<svg xmlns="http://www.w3.org/2000/svg" viewBox="0 0 1917.1 61.53"><defs><style>.cls-1{fill:#3267a8;opacity:0.5;}</style></defs><g id="Слой_2" data-name="Слой 2"><g id="Layer_1" data-name="Layer 1"><path class="cls-1" d="M1914.26,27.45l-3.37,5.88-2.56,4.49-10.4,2.88,2.77,10.42-2.58,4.48-3.39,5.93h-6.63l1.64-2.86,3.39-5.93,1.4-2.43-2.14-8.06h-.06l0-.07-8,2.23-1.4,2.43-5,8.82,1.66,2.86,1.75,3h-6.67l-.06-.1-.06.1h-6.67l1.75-3,1.67-2.86-1.68-2.93-3.37-5.88-1.39-2.43-8.07-2.24,0,.08h0l-2.13,8.05,1.39,2.43,3.4,5.93,1.64,2.86h-6.64l-3.4-5.93-2.56-4.48,2.75-10.41-10.41-2.89-2.57-4.49-3.37-5.88-3.37,5.88-2.57,4.49-10.75,3,2.73,10.31-2.57,4.48-3.41,5.93h-6.63l1.63-2.86,3.4-5.93,1.39-2.43-2.14-8.13-8.11,2.24-1.39,2.43-3.36,5.88-1.69,2.94,1.66,2.86,1.75,3h-6.67l-.06-.1-.06.1h-6.67l1.75-3,1.68-2.86-1.69-2.94-3.37-5.88-1.39-2.43-8-2.23,0,.07h-.06l-2.14,8.06,1.39,2.43,3.41,5.93,1.63,2.86h-6.63L1771,55.6l-2.57-4.48,2.76-10.42-10.39-2.88-2.56-4.49-3.38-5.88-3.37,5.88-2.57,4.49-10.75,3,2.73,10.31-2.57,4.48-3.41,5.93h-6.62l1.63-2.86,3.4-5.93,1.39-2.43-2.14-8.13-8.11,2.24L1723,46.85l-3.38,5.88L1718,55.67l1.66,2.86,1.75,3h-6.67l-.06-.1-.06.1h-6.67l1.75-3,1.66-2.86-1.67-2.94-3.37-5.88-1.39-2.43-8.11-2.24-2.15,8.13,1.39,2.43,3.41,5.93,1.63,2.86h-6.64l-3.4-5.93-2.56-4.48,2.74-10.38-10.53-2.92-2.57-4.49-3.36-5.88-3.38,5.88-2.56,4.49-10.63,2.94L1661,51.12l-2.58,4.48L1655,61.53h-6.63l1.64-2.86,3.4-5.93,1.39-2.43-2.15-8.13-8.11,2.24-1.4,2.43-5,8.82,1.66,2.86,1.75,3h-6.67l-.06-.1-.06.1H1628l1.75-3,1.66-2.86-1.68-2.94-3.36-5.88L1625,44.42l-8-2.23,0,.07h-.06l-2.14,8.06,1.39,2.43,3.4,5.93,1.65,2.86h-6.65l-3.4-5.93-2.56-4.48,2.76-10.42L1601,37.82l-2.57-4.49-3.18-5.55v-.33l-3.36,5.88-2.58,4.49-10.21,2.84,2.76,10.46-2.56,4.48-3.4,5.93h-6.64l1.64-2.86,3.4-5.93,1.39-2.43-2.14-8.11-.23.06v0l-7.87,2.18-1.4,2.43-5,8.82,1.66,2.86,1.75,3h-6.67l-.06-.1-.06.1h-6.66l1.74-3,1.66-2.86-1.67-2.94-3.37-5.88-1.39-2.43-8.11-2.24-2.15,8.13,1.39,2.43,3.4,5.93,1.64,2.86h-6.63L1532,55.6l-2.57-4.48,2.71-10.31-10.77-3-2.56-4.49-3.37-5.88-3.37,5.88-2.56,4.49-10.4,2.88,2.77,10.42-2.58,4.48-3.39,5.93h-6.63l1.64-2.86,3.39-5.93,1.4-2.43-2.14-8.06h-.06l0-.07-8,2.23-1.4,2.43-5,8.82,1.66,2.86,1.75,3h-6.67l-.06-.1-.06.1H1469l1.75-3,1.67-2.86-1.68-2.93-3.37-5.88L1466,44.43l-8.07-2.24,0,.08h0l-2.13,8.05,1.39,2.43,3.4,5.93,1.64,2.86h-6.64l-3.4-5.93-2.56-4.48,2.75-10.41-10.41-2.89-2.57-4.49-3.37-5.88-3.37,5.88L1430,37.82l-10.75,3L1422,51.12l-2.57,4.48L1416,61.53h-6.63l1.63-2.86,3.4-5.93,1.39-2.43-2.14-8.13-8.11,2.24-1.39,2.43-3.36,5.88-1.69,2.94,1.66,2.86,1.75,3h-6.67l-.06-.1-.06.1H1389l1.75-3,1.68-2.86-1.69-2.94-3.37-5.88L1386,44.42l-8-2.23,0,.07h-.06l-2.14,8.06,1.39,2.43,3.41,5.93,1.63,2.86h-6.63l-3.4-5.93-2.57-4.48,2.76-10.42L1362,37.82l-2.56-4.49L1356,27.45l-3.37,5.88-2.57,4.49-10.75,3,2.73,10.31-2.57,4.48-3.41,5.93h-6.62l1.63-2.86,3.4-5.93,1.39-2.43-2.14-8.13-8.11,2.24-1.39,2.43-3.38,5.88-1.67,2.94,1.66,2.86,1.75,3h-6.67l-.06-.1-.06.1h-6.67l1.75-3,1.66-2.86-1.67-2.94-3.37-5.88-1.39-2.43L1298,42.18l-2.15,8.13,1.39,2.43,3.41,5.93,1.63,2.86h-6.64l-3.4-5.93-2.56-4.48,2.74-10.38-10.53-2.92-2.57-4.49L1276,27.45l-3.38,5.88L1270,37.82l-10.63,2.94,2.75,10.36-2.58,4.48-3.39,5.93h-6.63l1.64-2.86,3.4-5.93,1.39-2.43-2.15-8.13-8.11,2.24-1.4,2.43-5,8.82,1.66,2.86,1.75,3H1236l-.06-.1-.06.1h-6.66l1.75-3,1.66-2.86-5-8.82-1.39-2.43-8-2.23,0,.07h-.06L1216,50.31l1.39,2.43,3.4,5.93,1.65,2.86h-6.65l-3.4-5.93-2.56-4.48,2.76-10.42-10.39-2.88-2.57-4.49-3.18-5.55v-.33L1193,33.33l-2.58,4.49-10.21,2.84L1183,51.12l-2.56,4.48-3.4,5.93h-6.64l1.64-2.86,3.4-5.93,1.39-2.43-2.14-8.11-.23.06v0l-7.87,2.18-1.4,2.43-5,8.82,1.66,2.86,1.75,3h-6.67l-.06-.1-.06.1h-6.66l1.74-3,1.66-2.86-1.67-2.94-3.37-5.88-1.39-2.43L1139,42.18l-2.15,8.13,1.39,2.43,3.4,5.93,1.64,2.86h-6.63l-3.4-5.93-2.57-4.48,2.71-10.31-10.77-3L1120,33.33l-3.37-5.88-3.37,5.88-2.56,4.49-10.4,2.88,2.77,10.42-2.58,4.48-3.39,5.93h-6.63l1.64-2.86,3.39-5.93,1.4-2.43-2.14-8.06h-.06l0-.07-8,2.23-1.4,2.43-5,8.82,1.66,2.86,1.75,3H1077l-.06-.1-.06.1h-6.67l1.75-3,1.67-2.86-1.68-2.93-3.37-5.88-1.39-2.43-8.07-2.24,0,.08h0l-2.13,8.05,1.39,2.43,3.4,5.93,1.64,2.86h-6.64l-3.4-5.93-2.56-4.48,2.75-10.41-10.41-2.89-2.57-4.49-3.37-5.88-3.37,5.88-2.57,4.49-10.75,3,2.73,10.31-2.57,4.48-3.41,5.93h-6.63l1.63-2.86,3.4-5.93,1.39-2.43-2.14-8.13-8.11,2.24-1.39,2.43L1002,52.73l-1.69,2.94,1.66,2.86,1.75,3H997l-.06-.1-.06.1h-6.67l1.75-3,1.68-2.86L992,52.73l-3.37-5.88-1.39-2.43-8-2.23,0,.07h-.06L977,50.31l1.39,2.43,3.41,5.93,1.63,2.86h-6.63l-3.4-5.93-2.57-4.48,2.76-10.42-10.39-2.88-2.56-4.49-3.38-5.88-3.37,5.88-2.57,4.49-10.75,3,2.73,10.31-2.57,4.48-3.41,5.93h-6.62l1.63-2.86,3.4-5.93,1.39-2.43-2.14-8.13-8.11,2.24-1.39,2.43-3.38,5.88-1.67,2.94,1.66,2.86,1.75,3h-6.67l-.06-.1-.06.1h-6.67l1.75-3,1.66-2.86-1.67-2.94-3.37-5.88-1.39-2.43-8.11-2.24-2.15,8.13,1.39,2.43,3.41,5.93,1.63,2.86h-6.64l-3.4-5.93-2.56-4.48,2.74-10.38L883.1,37.82l-2.57-4.49-3.36-5.88-3.38,5.88-2.56,4.49L860.6,40.76l2.75,10.36-2.58,4.48-3.39,5.93h-6.63l1.64-2.86,3.4-5.93,1.39-2.43L855,42.18l-8.11,2.24-1.4,2.43-5,8.82,1.66,2.86,1.75,3h-6.67l-.06-.1-.06.1h-6.66l1.75-3,1.66-2.86-5-8.82-1.39-2.43-8-2.23,0,.07h-.06l-2.14,8.06,1.39,2.43,3.4,5.93,1.65,2.86h-6.65l-3.4-5.93L811,51.12l2.76-10.42-10.39-2.88-2.57-4.49-3.18-5.55v-.33l-3.36,5.88-2.58,4.49-10.21,2.84,2.76,10.46-2.56,4.48-3.4,5.93h-6.64l1.64-2.86,3.4-5.93L778,50.31,775.9,42.2l-.23.06v0l-7.87,2.18-1.4,2.43-5,8.82L763,58.53l1.75,3h-6.67l-.06-.1-.06.1h-6.66l1.74-3,1.66-2.86L753,52.73l-3.37-5.88-1.39-2.43-8.11-2.24L738,50.31l1.39,2.43,3.4,5.93,1.64,2.86h-6.63l-3.4-5.93-2.57-4.48,2.71-10.31-10.77-3-2.56-4.49-3.37-5.88-3.37,5.88-2.56,4.49-10.4,2.88,2.77,10.42-2.58,4.48-3.39,5.93H691.7l1.64-2.86,3.39-5.93,1.4-2.43L696,42.25h-.06l0-.07-8,2.23-1.4,2.43-5,8.82,1.66,2.86,1.75,3h-6.67l-.06-.1-.06.1h-6.67l1.75-3,1.67-2.86-1.68-2.93-3.37-5.88-1.39-2.43-8.07-2.24,0,.08h0l-2.13,8.05,1.39,2.43,3.4,5.93,1.64,2.86h-6.64l-3.4-5.93-2.56-4.48,2.75-10.41-10.41-2.89-2.57-4.49-3.37-5.88L635,33.33l-2.57,4.49-10.75,3,2.73,10.31L621.8,55.6l-3.41,5.93h-6.63l1.63-2.86,3.4-5.93,1.39-2.43L616,42.18l-8.11,2.24-1.39,2.43-3.36,5.88-1.69,2.94,1.66,2.86,1.75,3h-6.67l-.06-.1-.06.1h-6.67l1.75-3,1.68-2.86-1.69-2.94-3.37-5.88-1.39-2.43-8-2.23,0,.07h-.06l-2.14,8.06,1.39,2.43L583,58.67l1.63,2.86H578l-3.4-5.93L572,51.12l2.76-10.42-10.39-2.88-2.56-4.49-3.38-5.88-3.37,5.88-2.57,4.49-10.75,3,2.73,10.31-2.57,4.48-3.41,5.93h-6.62l1.63-2.86,3.4-5.93,1.39-2.43-2.14-8.13L528,44.42l-1.39,2.43-3.38,5.88-1.67,2.94,1.66,2.86,1.75,3h-6.67l-.06-.1-.06.1h-6.67l1.75-3L515,55.67l-1.67-2.94-3.37-5.88-1.39-2.43-8.11-2.24-2.15,8.13,1.39,2.43,3.41,5.93,1.63,2.86h-6.64l-3.4-5.93-2.56-4.48,2.74-10.38L484.3,37.82l-2.57-4.49-3.36-5.88L475,33.33l-2.56,4.49L461.8,40.76l2.75,10.36L462,55.6l-3.39,5.93H452l1.64-2.86,3.4-5.93,1.39-2.43-2.15-8.13-8.11,2.24-1.4,2.43-5,8.82,1.66,2.86,1.75,3h-6.67l-.06-.1-.06.1h-6.66l1.75-3,1.66-2.86-5-8.82-1.39-2.43-8.05-2.23,0,.07h-.06l-2.14,8.06,1.39,2.43,3.4,5.93,1.65,2.86h-6.65l-3.4-5.93-2.56-4.48,2.76-10.42-10.39-2.88L402,33.33l-3.18-5.55v-.33l-3.36,5.88-2.58,4.49-10.21,2.84,2.76,10.46-2.56,4.48-3.4,5.93h-6.64l1.64-2.86,3.4-5.93,1.39-2.43L377.1,42.2l-.23.06v0L369,44.42l-1.4,2.43-5,8.82,1.66,2.86,1.75,3h-6.67l-.06-.1-.06.1h-6.66l1.74-3,1.66-2.86-1.67-2.94-3.37-5.88-1.39-2.43-8.11-2.24-2.15,8.13,1.39,2.43,3.4,5.93,1.64,2.86H339l-3.4-5.93-2.57-4.48,2.71-10.31-10.77-3-2.56-4.49-3.37-5.88-3.37,5.88-2.56,4.49-10.4,2.88,2.77,10.42-2.58,4.48-3.39,5.93H292.9l1.64-2.86,3.39-5.93,1.4-2.43-2.14-8.06h-.06l0-.07-8,2.23-1.4,2.43-5,8.82,1.66,2.86,1.75,3h-6.67l-.06-.1-.06.1h-6.67l1.75-3L276,55.67l-1.68-2.93L271,46.86l-1.39-2.43-8.07-2.24,0,.08h0l-2.13,8.05,1.39,2.43,3.4,5.93,1.64,2.86h-6.64l-3.4-5.93-2.56-4.48,2.75-10.41-10.41-2.89-2.57-4.49-3.37-5.88-3.37,5.88-2.57,4.49-10.75,3,2.73,10.31L223,55.6l-3.41,5.93H213l1.63-2.86,3.4-5.93,1.39-2.43-2.14-8.13-8.11,2.24-1.39,2.43-3.36,5.88-1.69,2.94,1.66,2.86,1.75,3h-6.67l-.06-.1-.06.1h-6.67l1.75-3,1.68-2.86-1.69-2.94L191,46.85l-1.39-2.43-8-2.23,0,.07h-.06l-2.14,8.06,1.39,2.43,3.41,5.93,1.63,2.86h-6.63l-3.4-5.93-2.57-4.48L176,40.7l-10.39-2.88L163,33.33l-3.38-5.88-3.37,5.88-2.57,4.49-10.75,3,2.73,10.31-2.57,4.48-3.41,5.93h-6.62l1.63-2.86,3.4-5.93,1.39-2.43-2.14-8.13-8.11,2.24-1.39,2.43-3.38,5.88-1.67,2.94,1.66,2.86,1.75,3h-6.67l-.06-.1-.06.1h-6.67l1.75-3,1.66-2.86-1.67-2.94-3.37-5.88-1.39-2.43-8.11-2.24-2.15,8.13,1.39,2.43,3.41,5.93,1.63,2.86H99.25l-3.4-5.93-2.56-4.48L96,40.74,85.5,37.82l-2.57-4.49-3.36-5.88-3.38,5.88-2.56,4.49L63,40.76l2.75,10.36L63.17,55.6l-3.39,5.93H53.15l1.64-2.86,3.4-5.93,1.39-2.43-2.15-8.13-8.11,2.24-1.4,2.43-5,8.82,1.66,2.86,1.75,3H39.62l-.06-.1-.06.1H32.84l1.75-3,1.66-2.86-1.68-2.94-3.36-5.88-1.39-2.43-8-2.23,0,.07h-.06l-2.14,8.06,1.39,2.43,3.4,5.93L26,61.53H19.34l-3.4-5.93-2.56-4.48L16.14,40.7,5.75,37.82,3.18,33.33,0,27.78V15.58L3.25,10l6.81,0,6.67,0h13l.84-.83,5.07-5L39.69.14l4.09,4.05L49.7,10H62.65l6.66,0,6.81,0,3.45,5.92L83,10l6.81,0,6.66,0h13l6-5.91h0L119.6,0l4.17,4.12,6,5.91H142.7l6.67,0,6.81,0,3.45,5.92L163.06,10l6.82,0,6.65,0h12.95l1.73-1.7,4.26-4.21,4.11-4,4.09,4.05,6,5.91h13l6.66,0,6.81,0,3.45,5.92L243,10l6.81,0,6.67,0H269.4l.1-.1,5.7-5.63,4.11-4,9.9,9.78h12.94l6.66,0,6.82,0,3.44,5.92L322.51,10l6.81,0L336,10h12.95l.55-.55,5.35-5.29,4.1-4L363,4.2l5.9,5.83h12.95l6.66,0,6.81,0,3.44,5.92v-.33L402.05,10l6.81,0,6.67,0h13l.84-.83,5.07-5,4.1-4.05,4.09,4.05L448.5,10h12.95l6.66,0,6.81,0,3.45,5.92L481.81,10l6.81,0,6.66,0h13l6-5.91h0L518.4,0l4.17,4.12,6,5.91h13l6.67,0L555,10l3.45,5.92L561.86,10l6.82,0,6.65,0h12.95L590,8.33l4.26-4.21,4.11-4,4.09,4.05,6,5.91h12.95l6.66,0,6.81,0,3.45,5.92L641.77,10l6.81,0,6.67,0h13l.1-.1L674,4.3l4.11-4L688,10H701l6.66,0,6.82,0,3.44,5.92L721.31,10l6.81,0,6.67,0h13l.55-.55,5.35-5.29,4.1-4,4.1,4.05,5.9,5.83h13l6.66,0,6.81,0,3.44,5.92v-.33L800.85,10l6.81,0,6.67,0h12.95l.84-.83,5.07-5,4.1-4.05,4.09,4.05L847.3,10h13l6.66,0,6.81,0,3.45,5.92L880.61,10l6.81,0,6.66,0H907l6-5.91h0L917.2,0l4.17,4.12,6,5.91H940.3L947,10l6.81,0,3.45,5.92L960.66,10l6.82,0,6.65,0h13l1.73-1.7,4.26-4.21,4.11-4,4.09,4.05,6,5.91h13l6.66,0,6.81,0,3.45,5.92,3.44-5.92,6.81,0,6.67,0h13l.1-.1,5.7-5.63,4.11-4,9.9,9.78h12.94l6.66,0,6.82,0,3.44,5.92,3.44-5.92,6.81,0,6.67,0h13l.55-.55,5.35-5.29,4.1-4,4.1,4.05,5.9,5.83h13l6.66,0,6.81,0,3.44,5.92v-.33l3.25-5.59,6.81,0,6.67,0h12.95l.84-.83,5.07-5,4.1-4.05,4.09,4.05L1246.1,10h13l6.66,0,6.81,0,3.45,5.92,3.44-5.92,6.81,0,6.66,0h12.95l6-5.91h0L1316,0l4.17,4.12,6,5.91h12.95l6.67,0,6.81,0,3.45,5.92,3.43-5.92,6.82,0,6.65,0h13l1.73-1.7,4.26-4.21,4.11-4,4.09,4.05,6,5.91h13l6.66,0,6.81,0,3.45,5.92,3.44-5.92,6.81,0,6.67,0h13l.1-.1,5.7-5.63,4.11-4,9.9,9.78h12.94l6.66,0,6.82,0,3.44,5.92,3.44-5.92,6.81,0,6.67,0h12.95l.55-.55,5.35-5.29,4.1-4,4.1,4.05,5.9,5.83h13l6.66,0,6.81,0,3.44,5.92v-.33l3.25-5.59,6.81,0,6.67,0h13l.84-.83,5.07-5,4.1-4.05L1639,4.19,1644.9,10h12.95l6.66,0,6.81,0,3.45,5.92,3.44-5.92,6.81,0,6.66,0h13l6-5.91h0L1714.8,0,1719,4.12l6,5.91h13l6.67,0,6.81,0,3.45,5.92,3.43-5.92,6.82,0,6.65,0h13l1.73-1.7,4.26-4.21,4.11-4,4.09,4.05,6,5.91h13l6.66,0,6.81,0,3.45,5.92,3.44-5.92,6.81,0,6.67,0h12.95l.1-.1,5.7-5.63,4.11-4,9.9,9.78h12.94l6.66,0,6.82,0,3.44,5.92L1917.1,11V32.41ZM18.44,24.59,15,18.65l-1.65-2.87H6.55l-1.77,3L3.12,21.67,4.8,24.59l3.37,5.88L9.56,32.9l8.06,2.24v-.07l.06,0L19.83,27Zm28.89-8.8L39.69,8.24,32,15.79H20l3.4,5.93L26,26.21,23.24,36.62l10.39,2.89L36.21,44l3.36,5.88L42.94,44l2.56-4.47,10.62-3L53.38,26.21l2.56-4.48,3.41-5.94Zm27.25,3-1.77-3H66l-1.64,2.87-3.4,5.94L59.55,27l2.15,8.13,8.1-2.25,1.39-2.43,3.38-5.88,1.68-2.92Zm23.61,5.78-3.4-5.94-1.64-2.87H86.32l-1.77,3-1.67,2.86,1.68,2.92,3.38,5.88,1.39,2.43,8.1,2.25L99.58,27Zm29.19-8.8-7.79-7.7-7.79,7.7h-12l3.41,5.93,2.56,4.49L103,36.58l10.53,2.93L116.11,44l3.36,5.87L122.84,44l2.56-4.48,10.76-3-2.73-10.31L136,21.72l3.4-5.93Zm27.27,3-1.79-3H146l-1.65,2.87L141,24.59,139.6,27l2.15,8.13,8.11-2.25,1.39-2.43,3.38-5.88,1.67-2.92Zm23.6,5.78-3.4-5.94-1.65-2.87h-6.83l-1.76,3-1.67,2.86,1.68,2.92L168,30.47l1.4,2.43,8,2.24,0-.07.07,0L179.65,27Zm29-8.8-7.72-7.62-7.71,7.62h-12l3.41,5.94,2.56,4.48-2.76,10.42,10.39,2.89L196,44l3.37,5.88L202.74,44l2.57-4.47,10.76-3-2.73-10.32,2.57-4.48,3.4-5.94Zm27.26,3-1.78-3h-6.83l-1.64,2.87-3.41,5.94L219.5,27l2.16,8.13,8.1-2.25,1.4-2.43,3.37-5.88,1.67-2.92Zm23.61,5.78-3.41-5.94-1.64-2.87h-6.84l-1.76,3.06-1.66,2.85,1.67,2.92,3.38,5.88,1.39,2.43,8.07,2.25,0-.08h0L259.55,27Zm28.68-8.8L279.3,8.35l-7.52,7.44h-12l3.41,5.94,2.57,4.48L263,36.62l10.41,2.9L276,44l3.36,5.88L282.69,44l2.56-4.47,10.39-2.89-2.76-10.42,2.57-4.48,3.4-5.94Zm27.25,3-1.77-3h-6.84l-1.64,2.87-3.4,5.94L299.05,27l2.13,8.07.07,0,0,.07,8-2.24,1.41-2.43,3.36-5.88,1.68-2.92Zm23.6,5.78-3.4-5.94-1.64-2.87h-6.83l-1.77,3-1.66,2.86,1.67,2.92,3.38,5.88,1.39,2.43,8.11,2.25L339.08,27Zm28.88-8.8-7.64-7.54-7.63,7.54h-12l3.41,5.94,2.57,4.48-2.73,10.31,10.77,3L355.87,44l3.36,5.88L362.6,44l2.56-4.47,10.23-2.84-2.78-10.47,2.57-4.48,3.41-5.94Zm27.25,3-1.76-3h-6.83l-1.65,2.87-3.39,5.94L378.78,27l2.15,8.11.24-.07v0L389,32.9l1.4-2.43,3.37-5.88,1.68-2.92Zm23.42,5.78-3.41-5.94-1.65-2.87h-6.83l-1.77,3-1.66,2.86,1.68,2.92L407,30.47l1.39,2.43,8.06,2.24v-.07l.06,0L418.63,27Zm28.89-8.8-7.64-7.55-7.65,7.55h-12l3.4,5.93,2.56,4.49L422,36.62l10.39,2.89L435,44l3.36,5.88L441.74,44l2.56-4.47,10.62-3-2.74-10.35,2.56-4.48,3.41-5.94Zm27.25,3-1.77-3h-6.83l-1.64,2.87-3.4,5.94L458.35,27l2.15,8.13,8.1-2.25L470,30.47l3.38-5.88,1.68-2.92ZM497,24.59l-3.4-5.94L492,15.78h-6.83l-1.77,3-1.67,2.86,1.68,2.92,3.38,5.88,1.39,2.43,8.1,2.25L498.38,27Zm29.19-8.8-7.79-7.7-7.79,7.7h-12L502,21.72l2.56,4.49-2.75,10.37,10.53,2.93L514.91,44l3.36,5.87L521.64,44l2.56-4.48,10.76-3-2.73-10.31,2.57-4.49,3.4-5.93Zm27.27,3-1.79-3h-6.82l-1.65,2.87-3.4,5.94L538.4,27l2.15,8.13,8.11-2.25,1.39-2.43,3.38-5.88,1.67-2.92Zm23.6,5.78-3.4-5.94L572,15.78h-6.83l-1.76,3-1.67,2.86,1.68,2.92,3.37,5.88,1.4,2.43,8,2.24,0-.07.07,0L578.45,27Zm29-8.8-7.72-7.62-7.71,7.62h-12l3.41,5.94,2.56,4.48-2.76,10.42,10.39,2.89L594.81,44l3.37,5.88L601.54,44l2.57-4.47,10.76-3-2.73-10.32,2.57-4.48,3.4-5.94Zm27.26,3-1.78-3h-6.83l-1.64,2.87-3.41,5.94L618.3,27l2.16,8.13,8.1-2.25,1.4-2.43,3.37-5.88L635,21.67ZM657,24.59l-3.41-5.94-1.64-2.87h-6.84l-1.76,3.06-1.66,2.85,1.67,2.92,3.38,5.88,1.39,2.43,8.07,2.25,0-.08h0L658.35,27Zm28.68-8.8L678.1,8.35l-7.52,7.44h-12L662,21.73l2.57,4.48-2.76,10.41,10.41,2.9L674.76,44l3.36,5.88L681.49,44l2.56-4.47,10.39-2.89-2.76-10.42,2.57-4.48,3.4-5.94Zm27.25,3-1.77-3h-6.84l-1.64,2.87-3.4,5.94L697.85,27,700,35.09l.07,0,0,.07,8-2.24,1.41-2.43,3.36-5.88,1.68-2.92Zm23.6,5.78-3.4-5.94-1.64-2.87h-6.83l-1.77,3-1.66,2.86,1.67,2.92,3.38,5.88,1.39,2.43,8.11,2.25L737.88,27Zm28.88-8.8-7.64-7.54-7.63,7.54h-12l3.41,5.94,2.57,4.48-2.73,10.31,10.77,3L754.67,44,758,49.87,761.4,44,764,39.52l10.23-2.84-2.78-10.47L774,21.73l3.41-5.94Zm27.25,3-1.76-3H784l-1.65,2.87L779,24.59,777.58,27l2.15,8.11.24-.07v0l7.86-2.18,1.4-2.43,3.37-5.88,1.68-2.92ZM816,24.59l-3.41-5.94L811,15.78h-6.83l-1.77,3-1.66,2.86,1.68,2.92,3.37,5.88,1.39,2.43,8.06,2.24v-.07l.06,0L817.43,27Zm28.89-8.8-7.64-7.55-7.65,7.55h-12l3.4,5.93,2.56,4.49-2.76,10.41,10.39,2.89L833.81,44l3.36,5.88L840.54,44l2.56-4.47,10.62-3L851,26.21l2.56-4.48L857,15.79Zm27.25,3-1.77-3h-6.83l-1.64,2.87-3.4,5.94L857.15,27l2.15,8.13,8.1-2.25,1.39-2.43,3.38-5.88,1.68-2.92Zm23.61,5.78-3.4-5.94-1.64-2.87h-6.83l-1.77,3-1.67,2.86,1.68,2.92,3.38,5.88,1.39,2.43,8.1,2.25L897.18,27ZM925,15.79l-7.79-7.7-7.79,7.7h-12l3.41,5.93,2.56,4.49-2.75,10.37,10.53,2.93L913.71,44l3.36,5.87L920.44,44,923,39.51l10.76-3L931,26.21l2.57-4.49,3.4-5.93Zm27.27,3-1.79-3h-6.82L942,18.65l-3.4,5.94L937.2,27l2.15,8.13,8.11-2.25,1.39-2.43,3.38-5.88,1.67-2.92Zm23.6,5.78-3.4-5.94-1.65-2.87H964l-1.76,3-1.67,2.86,1.68,2.92,3.37,5.88L967,32.9l8,2.24,0-.07.07,0L977.25,27Zm29-8.8-7.72-7.62-7.71,7.62h-12l3.41,5.94,2.56,4.48-2.76,10.42,10.39,2.89L993.61,44,997,49.87l3.36-5.88,2.57-4.47,10.76-3-2.73-10.32,2.57-4.48,3.4-5.94Zm27.26,3-1.78-3h-6.83l-1.64,2.87-3.41,5.94L1017.1,27l2.16,8.13,8.1-2.25,1.4-2.43,3.37-5.88,1.67-2.92Zm23.61,5.78-3.41-5.94-1.64-2.87h-6.84l-1.76,3.06-1.66,2.85,1.67,2.92,3.38,5.88,1.39,2.43,8.07,2.25,0-.08h0l2.13-8.06Zm28.68-8.8-7.54-7.44-7.52,7.44h-12l3.41,5.94,2.57,4.48-2.76,10.41,10.41,2.9,2.57,4.47,3.36,5.88,3.37-5.88,2.56-4.47,10.39-2.89-2.76-10.42,2.57-4.48,3.4-5.94Zm27.25,3-1.77-3h-6.84l-1.64,2.87-3.4,5.94L1096.65,27l2.13,8.07.07,0,0,.07,8-2.24,1.41-2.43,3.36-5.88,1.68-2.92Zm23.6,5.78-3.4-5.94-1.64-2.87h-6.83l-1.77,3L1120,21.67l1.67,2.92,3.38,5.88,1.39,2.43,8.11,2.25,2.14-8.13Zm28.88-8.8-7.64-7.54-7.63,7.54h-12l3.41,5.94,2.57,4.48-2.73,10.31,10.77,3,2.56,4.47,3.36,5.88L1160.2,44l2.56-4.47L1173,36.68l-2.78-10.47,2.57-4.48,3.41-5.94Zm27.25,3-1.76-3h-6.83l-1.65,2.87-3.39,5.94L1176.38,27l2.15,8.11.24-.07v0l7.86-2.18,1.4-2.43,3.37-5.88,1.68-2.92Zm23.42,5.78-3.41-5.94-1.65-2.87H1203l-1.77,3-1.66,2.86,1.68,2.92,3.37,5.88L1206,32.9l8.06,2.24v-.07l.06,0,2.14-8.07Zm28.89-8.8-7.64-7.55-7.65,7.55h-12l3.4,5.93,2.56,4.49-2.76,10.41L1230,39.51l2.58,4.48,3.36,5.88,3.37-5.88,2.56-4.47,10.62-3-2.74-10.35,2.56-4.48,3.41-5.94Zm27.25,3-1.77-3h-6.83l-1.64,2.87-3.4,5.94L1256,27l2.15,8.13,8.1-2.25,1.39-2.43,3.38-5.88,1.68-2.92Zm23.61,5.78-3.4-5.94-1.64-2.87h-6.83l-1.77,3-1.67,2.86,1.68,2.92,3.38,5.88,1.39,2.43,8.1,2.25L1296,27Zm29.19-8.8L1316,8.09l-7.79,7.7h-12l3.41,5.93,2.56,4.49-2.75,10.37,10.53,2.93,2.57,4.48,3.36,5.87,3.37-5.87,2.56-4.48,10.76-3-2.73-10.31,2.57-4.49,3.4-5.93Zm27.27,3-1.79-3h-6.82l-1.65,2.87-3.4,5.94L1336,27l2.15,8.13,8.11-2.25,1.39-2.43,3.38-5.88,1.67-2.92Zm23.6,5.78-3.4-5.94-1.65-2.87h-6.83l-1.76,3-1.67,2.86,1.68,2.92,3.37,5.88,1.4,2.43,8,2.24,0-.07.07,0,2.14-8.07Zm29-8.8L1396,8.17l-7.71,7.62h-12l3.41,5.94,2.56,4.48-2.76,10.42,10.39,2.89,2.56,4.47,3.37,5.88,3.36-5.88,2.57-4.47,10.76-3-2.73-10.32,2.57-4.48,3.4-5.94Zm27.26,3-1.78-3h-6.83l-1.64,2.87-3.41,5.94L1415.9,27l2.16,8.13,8.1-2.25,1.4-2.43,3.37-5.88,1.67-2.92Zm23.61,5.78-3.41-5.94-1.64-2.87h-6.84l-1.76,3.06-1.66,2.85,1.67,2.92,3.38,5.88,1.39,2.43,8.07,2.25,0-.08h0L1456,27Zm28.68-8.8-7.54-7.44-7.52,7.44h-12l3.41,5.94,2.57,4.48-2.76,10.41,10.41,2.9,2.57,4.47,3.36,5.88,3.37-5.88,2.56-4.47L1492,36.63l-2.76-10.42,2.57-4.48,3.4-5.94Zm27.25,3-1.77-3h-6.84l-1.64,2.87-3.4,5.94L1495.45,27l2.13,8.07.07,0,0,.07,8-2.24,1.41-2.43,3.36-5.88,1.68-2.92Zm23.6,5.78-3.4-5.94-1.64-2.87h-6.83l-1.77,3-1.66,2.86,1.67,2.92,3.38,5.88,1.39,2.43,8.11,2.25,2.14-8.13Zm28.88-8.8-7.64-7.54-7.63,7.54h-12l3.41,5.94,2.57,4.48-2.73,10.31,10.77,3,2.56,4.47,3.36,5.88L1559,44l2.56-4.47,10.23-2.84L1569,26.21l2.57-4.48,3.41-5.94Zm27.25,3-1.76-3h-6.83L1580,18.65l-3.39,5.94L1575.18,27l2.15,8.11.24-.07v0l7.86-2.18,1.4-2.43,3.37-5.88,1.68-2.92Zm23.42,5.78-3.41-5.94-1.65-2.87h-6.83l-1.77,3-1.66,2.86,1.68,2.92,3.37,5.88,1.39,2.43,8.06,2.24v-.07l.06,0L1615,27Zm28.89-8.8-7.64-7.55-7.65,7.55h-12l3.4,5.93,2.56,4.49-2.76,10.41,10.39,2.89,2.58,4.48,3.36,5.88,3.37-5.88,2.56-4.47,10.62-3-2.74-10.35,2.56-4.48,3.41-5.94Zm27.25,3-1.77-3h-6.83l-1.64,2.87-3.4,5.94L1654.75,27l2.15,8.13,8.1-2.25,1.39-2.43,3.38-5.88,1.68-2.92Zm23.61,5.78-3.4-5.94-1.64-2.87h-6.83l-1.77,3-1.67,2.86,1.68,2.92,3.38,5.88,1.39,2.43,8.1,2.25,2.15-8.13Zm29.19-8.8-7.79-7.7-7.79,7.7h-12l3.41,5.93,2.56,4.49-2.75,10.37,10.53,2.93,2.57,4.48,3.36,5.87L1718,44l2.56-4.48,10.76-3-2.73-10.31,2.57-4.49,3.4-5.93Zm27.27,3-1.79-3h-6.82l-1.65,2.87-3.4,5.94L1734.8,27l2.15,8.13,8.11-2.25,1.39-2.43,3.38-5.88,1.67-2.92Zm23.6,5.78-3.4-5.94-1.65-2.87h-6.83l-1.76,3-1.67,2.86,1.68,2.92,3.37,5.88,1.4,2.43,8,2.24,0-.07.07,0,2.14-8.07Zm29-8.8-7.72-7.62-7.71,7.62h-12l3.41,5.94,2.56,4.48-2.76,10.42,10.39,2.89,2.56,4.47,3.37,5.88,3.36-5.88,2.57-4.47,10.76-3-2.73-10.32,2.57-4.48,3.4-5.94Zm27.26,3-1.78-3h-6.83l-1.64,2.87-3.41,5.94L1814.7,27l2.16,8.13,8.1-2.25,1.4-2.43,3.37-5.88,1.67-2.92Zm23.61,5.78L1850,18.65l-1.64-2.87h-6.84l-1.76,3.06-1.66,2.85,1.67,2.92,3.38,5.88,1.39,2.43,8.07,2.25,0-.08h0l2.13-8.06Zm28.68-8.8-7.54-7.44L1867,15.79h-12l3.41,5.94,2.57,4.48-2.76,10.41,10.41,2.9,2.57,4.47,3.36,5.88,3.37-5.88,2.56-4.47,10.39-2.89-2.76-10.42,2.57-4.48,3.4-5.94Zm27.25,3-1.77-3h-6.84L1899,18.65l-3.4,5.94L1894.25,27l2.13,8.07.07,0,0,.07,8-2.24,1.41-2.43,3.36-5.88,1.68-2.92Z"/></g></g></svg>
