<?xml version="1.0" encoding="utf-8"?>
<!-- Generator: Adobe Illustrator 24.1.3, SVG Export Plug-In . SVG Version: 6.00 Build 0)  -->
<svg version="1.1" id="Layer_1" xmlns="http://www.w3.org/2000/svg" xmlns:xlink="http://www.w3.org/1999/xlink" x="0px" y="0px"
	 viewBox="0 0 285.65 841.89" style="enable-background:new 0 0 285.65 841.89;" xml:space="preserve">
<style type="text/css">
	.st0{fill:#b49a4a;}
</style>
<path class="st0" d="M273.18,44.12l5.97-3.46l6.21-3.58l0.02,0.02V23.39l-0.02-0.02l-12.15,7.01l0.05-14.07l-12.2-7.08h-23.84
	l-12.1,6.94l-9.25,5.29L210,42.58l-21.76-5.75l-9.23,5.29l-12.25,7.01V24.37L151.8,9.23L142.69,0l-9.13,9.23l-14.95,15.14v24.78
	l-12.24-7.01l-9.23-5.29l-21.59,5.7L69.7,21.48l-9.25-5.31L48.32,9.23H24.52L12.3,16.33l0.05,14.05L0.2,23.37L0,23.49V37.2l0.2-0.12
	l6.21,3.58l5.97,3.46v26.71L0.36,83L0.2,82.83L0.03,83L0,82.97v16.97l0.03-0.03l0.17,0.17l0.15-0.17l12.03,12.17v26.71l-5.97,3.46
	l-6.21,3.58L0,145.71v13.71l0.2,0.12l12.15-7.01l-0.05,14.05l12.22,7.09l-12.22,7.11l0.05,14.05L0.2,187.81L0,187.93v13.73l0.2-0.12
	l6.21,3.58l5.97,3.46v26.69L0.56,247.26l-0.36-0.37l-0.2,0.2v17.24l0.2,0.2l0.36-0.37l11.83,11.96v26.71l-5.97,3.45l-6.21,3.6
	L0,309.77v13.71l0.2,0.12l12.15-7.01l-0.05,14.05l12.22,7.09l-12.22,7.11l0.05,14.05L0.2,351.87L0,351.99v13.71l0.2-0.12l6.21,3.6
	l5.97,3.45v26.71L0.2,411.68l-0.2-0.2v17.33l0.2-0.2l12.19,12.34v26.71l-5.97,3.46l-6.21,3.58L0,474.57v13.71l0.2,0.12l12.15-7.01
	l-0.05,14.05l12.22,7.09l-12.22,7.11l0.05,14.05L0.2,516.67L0,516.79v13.71l0.2-0.12l6.21,3.6l5.97,3.45v26.71L0.2,576.49l-0.2-0.2
	v17.62l0.2-0.2l12.19,12.34v26.71l-5.97,3.46L0.2,639.8L0,639.68v13.73l0.2,0.12l12.15-7.03l-0.05,14.05l12.22,7.09l-12.22,7.11
	l0.05,14.05L0.2,681.78L0,681.9v13.73l0.2-0.12l6.21,3.58l5.97,3.46v26.7l-12.05,12.2l-0.14-0.14l-0.15,0.14L0,741.4v17l0.05-0.05
	l0.15,0.15l0.14-0.15l12.05,12.2v26.71l-5.97,3.45l-6.21,3.6L0,804.19v13.71l0.2,0.12l12.15-7.01l-0.05,14.05l11.54,6.7h25.15
	l11.46-6.57l9.25-5.29l5.94-21.43l21.5,5.69l9.23-5.29l12.24-7.01v24.78l14.95,15.14l9.13,9.23l9.11-9.23l14.95-15.14v-24.76
	l12.25,7.01l9.23,5.29l21.67-5.74l5.96,21.48l9.25,5.29l11.42,6.55h25.2l11.52-6.7L273.21,811l12.15,7.03l0.02-0.02v-13.71
	l-0.02,0.02l-6.21-3.6l-5.97-3.45v-26.71l12.05-12.2l0.14,0.15l0.02-0.02v-17.16l-0.02-0.02l-0.14,0.14l-12.05-12.2v-26.7l5.97-3.46
	l6.21-3.58l0.02,0.02V681.8l-0.02-0.02l-12.15,7.03l0.05-14.07l-12.2-7.09l12.2-7.08l-0.05-14.07l12.15,7.03l0.02-0.02v-13.73
	l-0.02,0.02l-6.21-3.58l-5.97-3.46v-26.71l12.18-12.34l0.02,0.02v-17.24l-0.02,0.02l-12.18-12.35v-26.71l5.97-3.45l6.21-3.6
	l0.02,0.02v-13.71l-0.02-0.02l-12.15,7.03l0.05-14.07l-12.2-7.09l12.2-7.09l-0.05-14.05l12.15,7.01l0.02-0.02v-13.71l-0.02,0.02
	l-6.21-3.6l-5.97-3.45v-26.71l12.18-12.34l0.02,0.02v-16.95l-0.02,0.02l-12.18-12.34v-26.71l5.97-3.45l6.21-3.6l0.02,0.02v-13.71
	l-0.02-0.02l-12.15,7.03l0.05-14.07l-12.2-7.09l12.2-7.09l-0.05-14.05l12.15,7.01l0.02-0.02v-13.71l-0.02,0.02l-6.21-3.6l-5.97-3.45
	v-26.71l11.83-11.96l0.36,0.37l0.02-0.02v-17.62l-0.02-0.02l-0.36,0.37l-11.83-11.98v-26.69l5.97-3.46l6.21-3.58l0.02,0.02v-13.73
	l-0.02-0.02l-12.15,7.03l0.05-14.07l-12.2-7.09l12.2-7.08l-0.05-14.07l12.15,7.01l0.02-0.02v-13.71l-0.02,0.02l-6.21-3.58
	l-5.97-3.46v-26.71l12.02-12.17l0.17,0.17l0.02-0.02V82.85l-0.02-0.02L285.19,83l-12.02-12.17V44.12z M226.02,29.34l5.01-2.87
	l12.1-6.94l6.06-3.48l5.91,3.44l6.26,3.63l-0.02,7.21l-0.02,6.87l-5.92,3.39l-12.25,7.03l-5.01,2.87l-16.77-4.45L226.02,29.34z
	 M166.72,69.73l0.02-6.89l5.94-3.39l12.24-7.03l5.01-2.87L206.69,54l-4.65,16.72l-5.01,2.87l-12.12,6.96L178.87,84l-5.89-3.43
	l-6.28-3.65L166.72,69.73z M154.84,771.3l-12.15-7.01l-12.15,7.01l0.03-14.05l-12.18-7.09l12.18-7.09l-0.03-14.07l12.15,7.03
	l12.15-7.03l-0.05,14.07l12.22,7.09l-12.22,7.09L154.84,771.3z M130.54,69.68l12.15,7.03l12.15-7.01l-0.05,14.05l12.22,7.09
	l-12.22,7.09l0.05,14.05l-12.15-7.01l-12.15,7.01l0.03-14.05l-12.18-7.09l12.18-7.09L130.54,69.68z M130.49,646.96v-26.71l5.99-3.45
	l6.21-3.6l6.21,3.6l5.97,3.45v26.71l-12.19,12.34L130.49,646.96z M154.87,688.55v26.71l-5.97,3.45l-6.21,3.6l-6.21-3.6l-5.99-3.45
	v-26.71l12.2-12.34L154.87,688.55z M154.84,606.5l-12.15-7.01l-12.15,7.01l0.03-14.05l-12.18-7.09l12.18-7.09l-0.03-14.07
	l12.15,7.03l12.15-7.03l-0.05,14.05l12.22,7.11l-12.22,7.09L154.84,606.5z M154.87,550.46l-5.97,3.45l-6.21,3.6l-6.21-3.6
	l-5.99-3.45v-26.71l12.2-12.34l12.19,12.34V550.46z M130.49,482.15v-26.71l5.99-3.46l6.21-3.58l6.21,3.58l5.97,3.46v26.71
	l-12.19,12.34L130.49,482.15z M154.84,441.7l-12.15-7.01l-12.15,7.01l0.03-14.05l-12.18-7.09l12.18-7.09l-0.03-14.07l12.15,7.03
	l12.15-7.03l-0.05,14.05l12.22,7.11l-12.22,7.09L154.84,441.7z M154.87,385.66l-5.97,3.45l-6.21,3.58l-6.21-3.58l-5.99-3.45v-26.71
	l12.2-12.35l12.19,12.35V385.66z M130.49,317.28v-26.71l5.99-3.45l6.21-3.6l6.21,3.6l5.97,3.45v26.71l-12.19,12.34L130.49,317.28z
	 M154.84,276.83l-12.15-7.01l-12.15,7.01l0.03-14.05l-12.18-7.09l12.18-7.09l-0.03-14.07l12.15,7.03l12.15-7.03l-0.05,14.05
	l12.22,7.11l-12.22,7.09L154.84,276.83z M154.87,220.79l-5.97,3.45l-6.21,3.6l-6.21-3.6l-5.99-3.45v-26.71l12.2-12.34l12.19,12.34
	V220.79z M130.49,152.45v-26.71l5.99-3.45l6.21-3.6l6.21,3.6l5.97,3.45v26.71l-12.19,12.34L130.49,152.45z M118.68,104.76l-0.02,7.2
	l-0.03,6.87l-5.92,3.41l-12.24,7.01l-5.01,2.87l-16.77-4.43l4.63-16.73l5.01-2.87l12.12-6.94l6.06-3.46l5.91,3.43L118.68,104.76z
	 M97.14,144.84l9.23-5.29l12.24-7.01v24.78l15.75,15.94l-15.75,15.94v24.79l-12.24-7.01l-9.23-5.31l-21.5,5.7l-5.94-21.43
	l-9.25-5.29l-12.13-6.96l12.13-6.94l9.25-5.29l6.16-22.21L97.14,144.84z M78.83,218.8l16.63-4.4l5.01,2.87l12.24,7.01l5.92,3.39
	l0.03,6.89l0.02,7.2l-6.26,3.65l-5.91,3.43l-6.06-3.46l-12.12-6.94l-5.01-2.89l-4.6-16.58l0.14-0.03L78.83,218.8z M106.51,262.52
	l5.91,3.43l6.26,3.65l-0.02,7.2l-0.03,6.87l-5.92,3.41l-12.24,7.01l-5.01,2.87l-16.61-4.4l0.02-0.07l-0.15-0.05l4.62-16.65
	l5.01-2.87l12.12-6.94L106.51,262.52z M97.14,309.68l9.23-5.29l12.24-7.01v24.78l15.77,15.95l-15.77,15.95v24.79l-12.24-7.03
	l-9.23-5.29l-21.28,5.63l-6.16-22.18l-9.25-5.29l-12.13-6.96l12.13-6.96l9.25-5.29L75.66,304L97.14,309.68z M95.46,379.28l5.01,2.87
	l12.24,7.01l5.92,3.39l0.03,6.87l0.02,7.21l-6.26,3.65l-5.91,3.43l-6.06-3.48l-12.12-6.94l-5.01-2.87l-4.63-16.72L95.46,379.28z
	 M106.51,427.37l5.91,3.45l6.26,3.65l-0.02,7.2l-0.03,6.87l-5.92,3.39l-12.24,7.03l-5.01,2.87l-16.63-4.41l0.03-0.12l-0.14-0.05
	l4.6-16.58l5.01-2.87l12.12-6.94L106.51,427.37z M97.14,474.55l9.23-5.29l12.24-7.01v24.78l15.73,15.92l-15.73,15.92v24.79
	l-12.24-7.03l-9.23-5.29l-21.28,5.63l-6.16-22.18l-9.25-5.29l-12.13-6.96l12.13-6.96l9.25-5.29l5.94-21.42L97.14,474.55z
	 M95.46,544.08l5.01,2.87l12.24,7.01l5.92,3.39l0.03,6.87l0.02,7.21l-6.26,3.65l-5.91,3.43l-6.06-3.46l-12.12-6.96l-5.01-2.87
	l-4.63-16.72L95.46,544.08z M106.51,592.19l5.91,3.43l6.26,3.65l-0.02,7.2l-0.03,6.87l-5.92,3.39l-12.24,7.03l-5.01,2.87
	l-16.77-4.45l4.63-16.72l5.01-2.87l12.12-6.94L106.51,592.19z M97.14,639.35l9.23-5.29l12.24-7.01v24.78l15.73,15.92l-15.73,15.94
	v24.78l-12.24-7.01l-9.23-5.31l-21.37,5.67L69.7,679.9l-9.25-5.29l-12.13-6.96l12.13-6.94l9.25-5.29l6.02-21.72L97.14,639.35z
	 M95.46,708.88l5.01,2.87l12.24,7.01l5.92,3.39l0.03,6.89l0.02,7.2l-6.26,3.65l-5.91,3.43l-6.06-3.46l-12.12-6.94l-5.01-2.89
	l-4.63-16.72L95.46,708.88z M166.7,736.24l0.02-7.2l0.02-6.89l5.94-3.39l12.24-7.03l5.01-2.87l16.77,4.45l-4.65,16.72l-5.01,2.87
	l-12.12,6.96l-6.04,3.46l-5.89-3.43L166.7,736.24z M188.24,696.14l-9.23,5.29l-12.25,7.01v-24.76l-15.71-15.94l15.71-15.92v-24.78
	l12.25,7.03l9.23,5.29l21.59-5.72l6.04,21.76l9.25,5.29l12.1,6.94l-12.1,6.96l-9.25,5.29l-6.09,21.94L188.24,696.14z M189.92,626.64
	l-5.01-2.87l-12.24-7.03l-5.94-3.39l-0.02-6.89l-0.02-7.2l6.28-3.65l5.89-3.43l6.04,3.46l12.12,6.96l5.01,2.87l4.65,16.72
	L189.92,626.64z M178.87,578.5l-5.89-3.41l-6.28-3.67l0.02-7.18l0.02-6.89l5.94-3.39l12.24-7.03l5.01-2.87l16.77,4.45l-4.65,16.72
	l-5.01,2.87l-12.12,6.96L178.87,578.5z M188.24,531.34l-9.23,5.29l-12.25,7.01v-24.78l-15.71-15.92l15.71-15.92v-24.78l12.25,7.03
	l9.23,5.29l21.67-5.74l5.96,21.47l9.25,5.29l12.1,6.94l-12.1,6.94l-9.25,5.29L209.69,537L188.24,531.34z M189.92,461.84l-5.01-2.89
	l-12.24-7.01l-5.94-3.39l-0.02-6.89l-0.02-7.2l6.28-3.65l5.89-3.43l6.04,3.46l12.12,6.96l5.01,2.87l4.65,16.72L189.92,461.84z
	 M178.87,413.69l-5.89-3.41l-6.28-3.67l0.02-7.2l0.02-6.87l5.94-3.41l12.24-7.01l5.01-2.87l16.77,4.43l-4.65,16.73l-5.01,2.87
	l-12.12,6.94L178.87,413.69z M188.24,366.53l-9.23,5.29l-12.25,7.01v-24.78l-15.75-15.95l15.75-15.95v-24.76l12.25,7.01l9.23,5.29
	l21.65-5.74l5.97,21.54l9.25,5.29l12.1,6.94l-12.1,6.94l-9.25,5.29l-6.18,22.23L188.24,366.53z M189.92,296.97l-5.01-2.87
	l-12.24-7.03l-5.94-3.39l-0.02-6.89l-0.02-7.2l6.28-3.65l5.89-3.43l6.04,3.46l12.12,6.96l5.01,2.87l4.65,16.72L189.92,296.97z
	 M178.87,248.84l-5.89-3.43l-6.28-3.67l0.02-7.18l0.02-6.89l5.94-3.39l12.24-7.03l5.01-2.87l16.77,4.45l-4.65,16.72l-5.01,2.87
	l-12.12,6.96L178.87,248.84z M188.24,201.66l-9.23,5.29l-12.25,7.01v-24.78l-15.73-15.94l15.73-15.94v-24.76l12.25,7.01l9.23,5.29
	l21.45-5.67l6.18,22.25l9.25,5.29l12.1,6.94l-12.1,6.96l-9.25,5.29l-5.96,21.47L188.24,201.66z M189.92,132.13l-5.01-2.87
	l-12.24-7.03l-5.94-3.39l-0.02-6.89l-0.02-7.2l6.28-3.65l5.89-3.43l6.04,3.46l12.12,6.96l5.01,2.87l4.65,16.72L189.92,132.13z
	 M130.49,29.24l12.2-12.34l12.19,12.34v26.71l-5.97,3.44l-6.21,3.6l-6.21-3.6l-5.99-3.44V29.24z M95.46,49.57l5.01,2.87l12.24,7.01
	l5.92,3.41l0.03,6.87l0.02,7.2l-6.26,3.65L106.51,84l-6.06-3.46L88.33,73.6l-5.01-2.89l-4.5-16.22l0.03-0.02L78.73,54L95.46,49.57z
	 M30.5,19.5l5.89-3.43l6.02,3.46l12.13,6.96l5.01,2.87l4.51,16.22l-0.05,0.02l0.14,0.49l-16.73,4.43l-5.01-2.89l-12.24-7.01
	l-5.92-3.39l-0.02-6.89l-0.03-7.2L30.5,19.5z M8.71,91.46l15.56-15.75V50.93l12.24,7.03l9.25,5.29l21.59-5.72l5.85,21.08l9.23,5.29
	l12.12,6.94l-12.12,6.94l-9.23,5.29l-6.18,22.21l-21.26-5.63l-9.25,5.29l-12.24,7.03V107.2L8.71,91.46z M24.2,159.76l0.03-7.2
	l0.02-6.89l5.92-3.39l12.24-7.01l5.01-2.87l16.78,4.43l-4.65,16.72l-5.01,2.87l-12.13,6.96l-6.02,3.46l-5.89-3.43L24.2,159.76z
	 M30.5,183.96l5.89-3.43l6.02,3.46l12.13,6.94l5.01,2.89l4.62,16.58l-0.15,0.03l0.05,0.14l-16.65,4.4l-5.01-2.87l-12.24-7.01
	l-5.92-3.39l-0.02-6.89l-0.03-7.2L30.5,183.96z M8.91,255.71l15.36-15.55v-24.78l12.24,7.01l9.25,5.31l21.48-5.7l5.96,21.43
	l9.23,5.29l12.12,6.94l-12.12,6.94l-9.23,5.29l-5.97,21.48l-21.47-5.69l-9.25,5.29l-12.24,7.03v-24.78L8.91,255.71z M24.2,323.82
	l0.03-7.2l0.02-6.89l5.92-3.39l12.24-7.03l5.01-2.87l16.63,4.4l-0.03,0.08l0.17,0.03l-4.63,16.65l-5.01,2.87l-12.13,6.96l-6.02,3.46
	l-5.89-3.43L24.2,323.82z M30.5,348l5.89-3.41l6.02,3.45l12.13,6.96l5.01,2.87l4.65,16.72l-16.78,4.45l-5.01-2.87l-12.24-7.03
	l-5.92-3.39l-0.02-6.89l-0.03-7.18L30.5,348z M8.54,420.14l15.73-15.92v-24.78l12.24,7.01l9.25,5.29l21.28-5.63l6.16,22.2l9.23,5.29
	l12.12,6.94l-12.12,6.94l-9.23,5.29l-5.96,21.42l-21.48-5.69l-9.25,5.29l-12.24,7.03v-24.78L8.54,420.14z M24.2,488.62l0.03-7.2
	l0.02-6.89l5.92-3.39l12.24-7.03l5.01-2.87l16.65,4.41l-0.05,0.14l0.15,0.03l-4.62,16.58l-5.01,2.87l-12.13,6.96l-6.02,3.46
	l-5.89-3.43L24.2,488.62z M30.5,512.8l5.89-3.41l6.02,3.45l12.13,6.96l5.01,2.87l4.65,16.72l-16.78,4.45l-5.01-2.87l-12.24-7.01
	l-5.92-3.41l-0.02-6.87l-0.03-7.2L30.5,512.8z M8.38,585.1l15.88-16.07v-24.78l12.24,7.01l9.25,5.29l21.28-5.63l6.16,22.2l9.23,5.29
	l12.12,6.94l-12.12,6.94l-9.23,5.29l-6.04,21.71l-21.4-5.67l-9.25,5.29l-12.24,7.03v-24.78L8.38,585.1z M24.2,653.73l0.03-7.2
	l0.02-6.89l5.92-3.39l12.24-7.01l5.01-2.87l16.78,4.43l-4.65,16.72l-5.01,2.87l-12.13,6.96l-6.02,3.46l-5.89-3.43L24.2,653.73z
	 M30.5,677.93l5.89-3.43l6.02,3.46l12.13,6.96l5.01,2.87l4.65,16.72l-16.78,4.43l-5.01-2.87l-12.24-7.01l-5.92-3.39l-0.02-6.89
	l-0.03-7.2L30.5,677.93z M59.55,812.03l-5.01,2.87l-12.13,6.96l-6.02,3.46l-5.89-3.43l-6.3-3.65l0.03-7.2l0.02-6.89l5.92-3.39
	l12.24-7.03l5.01-2.87l16.65,4.41l-0.05,0.12l0.15,0.03L59.55,812.03z M73.19,762.39l-5.96,21.43l-21.48-5.69l-9.25,5.29
	l-12.24,7.01v-24.76L8.69,749.9l15.58-15.77v-24.78l12.24,7.03l9.25,5.29l21.35-5.67l6.09,21.91l9.23,5.29l12.12,6.94l-12.12,6.94
	L73.19,762.39z M118.66,771.27l-0.03,6.87l-5.92,3.41l-12.24,7.01l-5.01,2.87l-16.63-4.4l0.03-0.14l-0.14-0.03l4.6-16.6l5.01-2.87
	l12.12-6.94l6.06-3.46l5.91,3.43l6.26,3.65L118.66,771.27z M154.87,811.76l-12.19,12.34l-12.2-12.34v-26.71l5.99-3.45l6.21-3.6
	l6.21,3.6l5.97,3.45V811.76z M189.92,791.45l-5.01-2.87l-12.24-7.03l-5.94-3.39l-0.02-6.89l-0.02-7.2l6.28-3.65l5.89-3.43l6.04,3.46
	l12.12,6.96l5.01,2.87l4.65,16.72L189.92,791.45z M255.09,821.89l-5.91,3.43l-6.06-3.46l-12.1-6.94l-5.01-2.87l-4.65-16.73
	l16.77-4.43l5.01,2.87l12.25,7.01l5.92,3.41l0.02,6.87l0.02,7.2L255.09,821.89z M276.88,749.9l-15.58,15.78v24.78l-12.24-7.01
	l-9.25-5.29l-21.67,5.72l-5.96-21.47l-9.25-5.29l-12.12-6.96l12.12-6.96l9.25-5.29l6.09-21.94l21.54,5.7l9.25-5.29l12.24-7.03v24.79
	L276.88,749.9z M261.35,681.56l-0.02,7.21l-0.02,6.87l-5.92,3.39l-12.25,7.03l-5.01,2.87l-16.77-4.45l4.65-16.72l5.01-2.87
	l12.1-6.94l6.06-3.48l5.91,3.45L261.35,681.56z M255.09,657.38l-5.91,3.45l-6.06-3.48l-12.1-6.94l-5.01-2.87l-4.65-16.72l16.77-4.45
	l5.01,2.87l12.25,7.03l5.92,3.39l0.02,6.87l0.02,7.21L255.09,657.38z M277.17,585.1l-15.87,16.07v24.79l-12.24-7.03l-9.25-5.29
	l-21.59,5.72l-6.04-21.76l-9.25-5.29l-12.12-6.96l12.12-6.96l9.25-5.29l6.18-22.23l21.45,5.69l9.25-5.29l12.24-7.03v24.79
	L277.17,585.1z M261.35,516.45l-0.02,7.21l-0.02,6.87l-5.92,3.39l-12.25,7.01l-5.01,2.87l-16.77-4.43l4.65-16.72l5.01-2.87
	l12.1-6.94l6.06-3.48l5.91,3.43L261.35,516.45z M255.09,492.27l-5.91,3.43l-6.06-3.46l-12.1-6.94l-5.01-2.87l-4.65-16.72l16.77-4.45
	l5.01,2.87l12.25,7.03l5.92,3.39l0.02,6.87l0.02,7.2L255.09,492.27z M277.01,420.14l-15.71,15.92v24.78l-12.24-7.01l-9.25-5.29
	l-21.67,5.74l-5.96-21.47l-9.25-5.31l-12.12-6.94l12.12-6.96l9.25-5.29l6.18-22.23l21.45,5.69l9.25-5.31l12.24-7.01v24.79
	L277.01,420.14z M261.35,351.65l-0.02,7.2l-0.02,6.89l-5.92,3.39l-12.25,7.01l-5.01,2.87l-16.77-4.43l4.65-16.72l5.01-2.89
	l12.1-6.94l6.06-3.46l5.91,3.43L261.35,351.65z M255.09,327.47l-5.91,3.43l-6.06-3.46l-12.1-6.94l-5.01-2.87l-4.65-16.72l16.77-4.45
	l5.01,2.87l12.25,7.01l5.92,3.41l0.02,6.87l0.02,7.2L255.09,327.47z M276.66,255.71l-15.36,15.55v24.78l-12.24-7.01l-9.25-5.29
	l-21.65,5.72l-5.97-21.52l-9.25-5.29l-12.12-6.96l12.12-6.96l9.25-5.29l5.96-21.47l21.67,5.74l9.25-5.29l12.24-7.03v24.79
	L276.66,255.71z M261.35,187.59l-0.02,7.21l-0.02,6.87l-5.92,3.39l-12.25,7.03l-5.01,2.87l-16.77-4.45l4.65-16.72l5.01-2.87
	l12.1-6.94l6.06-3.48l5.91,3.45L261.35,187.59z M255.09,163.41l-5.91,3.45l-6.06-3.48l-12.1-6.94l-5.01-2.87l-4.65-16.72l16.77-4.45
	l5.01,2.87l12.25,7.03l5.92,3.39l0.02,6.87l0.02,7.21L255.09,163.41z M276.84,91.46L261.3,107.2V132l-12.24-7.03l-9.25-5.29
	l-21.45,5.69l-6.18-22.27l-9.25-5.29l-12.12-6.96l12.12-6.96l9.25-5.29l5.87-21.11l21.76,5.75l9.25-5.29l12.24-7.01v24.78
	L276.84,91.46z"/>
</svg>
