<svg xmlns="http://www.w3.org/2000/svg" viewBox="0 0 1921.59 95.29"><defs><style>.cls-1{fill:#b49b4b;}</style></defs><g id="Слой_2" data-name="Слой 2"><g id="Layer_1" data-name="Layer 1"><path class="cls-1" d="M1919,26.12l2.63,2.6V15.45L1919,18l-7.73-7.63h-12l3.4-5.94L1905.19,0h-6.63l-.93,1.61-3.4,5.93-1.65,2.88h-6.82l-1.78-3-1.66-2.85L1884,1.61l.92-1.61h-11.84l.93,1.62,1.68,2.92L1874,7.4l-1.77,3h-6.83l-1.65-2.88-3.41-5.94L1859.45,0h-6.64l2.57,4.47,3.4,5.94h-12L1839,18.05l-7.73-7.64h-12l3.4-5.94L1825.26,0h-6.64l-.92,1.61-3.4,5.93-1.66,2.88h-6.82l-1.78-3-1.65-2.85,1.68-2.93L1805,0h-11.85l.93,1.62,1.68,2.92-1.66,2.86-1.77,3h-6.83l-1.65-2.88-3.39-5.94L1779.52,0h-6.64l2.56,4.47,3.41,5.94h-12L1759.12,18l-7.72-7.62h-12l3.4-5.94L1745.35,0h-6.64l-.92,1.61-3.41,5.93-1.64,2.88h-6.83l-1.78-3-1.65-2.85,1.67-2.93.92-1.61h-11.83l.93,1.62,1.68,2.92-1.66,2.86-1.77,3h-6.84l-1.64-2.88-3.41-5.94L1699.61,0H1693l2.57,4.47,3.41,5.94h-12L1679.21,18l-7.73-7.62h-12l3.4-5.94L1665.44,0h-6.63l-.93,1.61-3.4,5.93-1.65,2.88H1646l-1.77-3-1.66-2.86,1.68-2.92.92-1.61h-11.84l.93,1.62,1.68,2.92-1.66,2.86-1.77,3h-6.83L1624,7.55l-3.41-5.94L1619.7,0h-6.64l2.56,4.48,3.4,5.94h-12l-7.33,7.24h0l-7.33-7.25h-12l3.4-5.94L1586.31,0h-6.64l-.92,1.61-3.41,5.93-1.64,2.88h-6.83l-1.77-3-1.66-2.85,1.67-2.93L1566,0h-11.83l.93,1.62,1.67,2.92-1.66,2.86-1.77,3h-6.83l-1.64-2.88-3.41-5.94L1540.58,0h-6.64l2.57,4.47,3.4,5.94h-12L1520.17,18l-7.73-7.63h-12l3.4-5.94L1506.39,0h-6.63l-.93,1.61-3.4,5.93-1.65,2.88H1487l-1.78-3-1.66-2.85,1.68-2.93.92-1.61h-11.84l.93,1.62,1.68,2.92-1.66,2.86-1.77,3h-6.83L1465,7.55l-3.41-5.94L1460.65,0H1454l2.57,4.47,3.4,5.94h-12l-7.73,7.64-7.73-7.64h-12l3.4-5.94L1426.46,0h-6.64l-.92,1.61-3.4,5.93-1.66,2.88H1407l-1.78-3-1.65-2.85,1.68-2.93.92-1.61h-11.85l.93,1.62L1397,4.54l-1.66,2.86-1.77,3h-6.83L1385,7.55l-3.39-5.94L1380.72,0h-6.64l2.56,4.47,3.41,5.94h-12L1360.32,18l-7.72-7.62h-12l3.4-5.94L1346.55,0h-6.64L1339,1.61l-3.41,5.93-1.64,2.88h-6.83l-1.78-3-1.65-2.85,1.67-2.93.92-1.61h-11.83l.93,1.62,1.68,2.92-1.66,2.86-1.77,3h-6.84l-1.64-2.88-3.41-5.94L1300.81,0h-6.64l2.57,4.47,3.41,5.94h-12L1280.41,18l-7.73-7.62h-12l3.4-5.94L1266.64,0H1260l-.93,1.61-3.4,5.93L1254,10.42h-6.83l-1.77-3-1.66-2.86,1.68-2.92.92-1.61h-11.84l.93,1.62,1.68,2.92-1.66,2.86-1.77,3h-6.83l-1.65-2.88-3.41-5.94L1220.9,0h-6.64l2.56,4.48,3.4,5.94h-12l-7.33,7.24h0l-7.33-7.25h-12l3.4-5.94L1187.51,0h-6.64L1180,1.61l-3.41,5.93-1.64,2.88h-6.83l-1.77-3-1.66-2.85,1.67-2.93.93-1.61h-11.83l.93,1.62L1158,4.54l-1.66,2.86-1.77,3h-6.83l-1.64-2.88-3.41-5.94L1141.78,0h-6.64l2.57,4.47,3.4,5.94h-12L1121.37,18l-7.73-7.63h-12l3.4-5.94L1107.59,0H1101L1100,1.61l-3.4,5.93L1095,10.42h-6.82l-1.78-3-1.66-2.85,1.68-2.93.92-1.61h-11.84l.93,1.62,1.68,2.92-1.66,2.86-1.77,3h-6.83l-1.65-2.88-3.41-5.94L1061.85,0h-6.64l2.57,4.47,3.4,5.94h-12l-7.73,7.64-7.73-7.64h-12l3.4-5.94L1027.66,0H1021l-.92,1.61-3.4,5.93L1015,10.42h-6.82l-1.78-3-1.65-2.85,1.68-2.93.92-1.61H995.54l.93,1.62,1.68,2.92L996.49,7.4l-1.77,3h-6.83l-1.65-2.88-3.39-5.94L981.92,0h-6.64l2.56,4.47,3.41,5.94h-12L961.52,18l-7.72-7.62h-12l3.4-5.94L947.75,0h-6.64l-.92,1.61-3.41,5.93-1.64,2.88h-6.83l-1.78-3-1.65-2.85,1.67-2.93L927.47,0H915.64l.93,1.62,1.68,2.92L916.59,7.4l-1.77,3H908l-1.64-2.88-3.41-5.94L902,0h-6.64l2.57,4.47,3.41,5.94h-12L881.61,18l-7.73-7.62h-12l3.4-5.94L867.84,0h-6.63l-.93,1.61-3.4,5.93-1.65,2.88H848.4l-1.77-3L845,4.53l1.68-2.92L847.57,0H835.73l.93,1.62,1.68,2.92L836.68,7.4l-1.77,3h-6.83l-1.65-2.88L823,1.61,822.1,0h-6.64L818,4.48l3.4,5.94h-12l-7.33,7.24h0l-7.33-7.25h-12l3.4-5.94L788.71,0h-6.64l-.92,1.61-3.41,5.93-1.64,2.88h-6.83l-1.77-3-1.66-2.85,1.67-2.93L768.44,0H756.61l.93,1.62,1.67,2.92L757.55,7.4l-1.77,3H749l-1.64-2.88L743.9,1.61,743,0h-6.64l2.57,4.47,3.4,5.94h-12L722.57,18l-7.73-7.63h-12l3.4-5.94L708.79,0h-6.63l-.93,1.61-3.4,5.93-1.65,2.88h-6.82l-1.78-3-1.66-2.85,1.68-2.93L688.52,0H676.68l.93,1.62,1.68,2.92L677.63,7.4l-1.77,3H669l-1.65-2.88L664,1.61,663.05,0h-6.64L659,4.47l3.4,5.94h-12l-7.73,7.64-7.73-7.64h-12l3.4-5.94L628.86,0h-6.64l-.92,1.61-3.4,5.93-1.66,2.88h-6.82l-1.78-3L606,4.54l1.68-2.93L608.59,0H596.74l.93,1.62,1.68,2.92L597.69,7.4l-1.77,3h-6.83l-1.65-2.88-3.39-5.94L583.12,0h-6.64L579,4.47l3.41,5.94h-12L562.72,18,555,10.41H543l3.4-5.94L549,0h-6.64l-.92,1.61L538,7.54l-1.64,2.88h-6.83l-1.78-3-1.65-2.85,1.67-2.93L528.67,0H516.84l.93,1.62,1.68,2.92L517.79,7.4l-1.77,3h-6.84l-1.64-2.88-3.41-5.94L503.21,0h-6.64l2.57,4.47,3.41,5.94h-12L482.81,18l-7.73-7.62h-12l3.4-5.94L469,0h-6.63l-.93,1.61-3.4,5.93-1.65,2.88H449.6l-1.77-3-1.66-2.86,1.68-2.92L448.77,0H436.93l.93,1.62,1.68,2.92L437.88,7.4l-1.77,3h-6.83l-1.65-2.88-3.41-5.94L423.3,0h-6.64l2.56,4.48,3.4,5.94h-12l-7.33,7.24h0L396,10.41H384l3.4-5.94L389.91,0h-6.64l-.92,1.61-3.41,5.93-1.64,2.88h-6.83l-1.77-3L367,4.54l1.67-2.93L369.64,0H357.81l.93,1.62,1.67,2.92L358.75,7.4l-1.77,3h-6.83l-1.64-2.88L345.1,1.61,344.18,0h-6.64l2.57,4.47,3.4,5.94h-12L323.77,18,316,10.41H304l3.4-5.94L310,0h-6.63l-.93,1.61L299,7.54l-1.65,2.88h-6.82l-1.78-3-1.66-2.85,1.68-2.93L289.72,0H277.88l.93,1.62,1.68,2.92L278.83,7.4l-1.77,3h-6.83l-1.65-2.88-3.41-5.94L264.25,0h-6.64l2.57,4.47,3.4,5.94h-12l-7.73,7.64-7.73-7.64h-12l3.4-5.94L230.06,0h-6.64l-.92,1.61-3.4,5.93-1.66,2.88h-6.82l-1.78-3-1.65-2.85,1.68-2.93L209.79,0H197.94l.93,1.62,1.68,2.92L198.89,7.4l-1.77,3h-6.83l-1.65-2.88-3.39-5.94L184.32,0h-6.64l2.56,4.47,3.41,5.94h-12L163.92,18l-7.72-7.62h-12l3.4-5.94L150.15,0h-6.64l-.92,1.61-3.41,5.93-1.64,2.88h-6.83l-1.78-3-1.65-2.85L129,1.61,129.87,0H118L119,1.62l1.68,2.92L119,7.4l-1.77,3h-6.84l-1.64-2.88-3.41-5.94L104.41,0H97.77l2.57,4.47,3.41,5.94h-12L84,18l-7.73-7.62h-12l3.4-5.94L70.24,0H63.61l-.93,1.61-3.4,5.93-1.65,2.88H50.8L49,7.39,47.37,4.53l1.68-2.92L50,0H38.13l.93,1.62,1.68,2.92L39.08,7.4l-1.77,3H30.48L28.83,7.55,25.42,1.61,24.5,0H17.86l2.56,4.48,3.4,5.94h-12L4.48,17.66,0,22.08l4.48,4.43,7.34,7.25h12l-3.4,5.93-2.56,4.48,2.76,10.42L10.24,57.47,7.67,62,4.49,67.51v12.2L7.74,85.3l6.81,0,6.67,0h13l.84.83,5.07,5,4.1,4.05,4.09-4.05,5.92-5.84h13l6.66,0,6.81,0,3.45-5.92L87.5,85.3l6.81,0,6.66,0h13l6,5.91h0l4.17,4.12,4.17-4.12,6-5.91h12.95l6.67,0,6.81,0,3.45-5.92,3.43,5.92,6.82,0,6.65,0H194L195.7,87,200,91.17l4.11,4,4.09-4,6-5.91H227.1l6.66,0,6.81,0L244,79.38l3.44,5.92,6.81,0,6.67,0h12.95l.1.1,5.7,5.63L283.8,95l9.9-9.78h12.94l6.66,0,6.82,0,3.44-5.92L327,85.3l6.81,0,6.67,0h12.95l.55.55,5.35,5.29,4.1,4,4.1-4,5.9-5.83h12.95l6.66,0,6.81,0,3.44-5.92v.33l3.25,5.59,6.81,0,6.67,0h13l.84.83,5.07,5,4.1,4.05,4.09-4.05L453,85.26h12.95l6.66,0,6.81,0,3.45-5.92,3.44,5.92,6.81,0,6.66,0h13l6,5.91h0l4.17,4.12,4.17-4.12,6-5.91h13l6.67,0,6.81,0,3.45-5.92,3.43,5.92,6.82,0,6.65,0h12.95L594.5,87l4.26,4.21,4.11,4,4.09-4,6-5.91H625.9l6.66,0,6.81,0,3.45-5.92,3.44,5.92,6.81,0,6.67,0h13l.1.1,5.7,5.63L682.6,95l9.9-9.78h12.94l6.66,0,6.82,0,3.44-5.92,3.44,5.92,6.81,0,6.67,0h13l.55.55,5.35,5.29,4.1,4,4.1-4,5.9-5.83h12.95l6.66,0,6.81,0,3.44-5.92v.33l3.25,5.59,6.81,0,6.67,0h12.95l.84.83,5.07,5,4.1,4.05,4.09-4.05,5.92-5.84h13l6.66,0,6.81,0,3.45-5.92,3.44,5.92,6.81,0,6.66,0h12.95l6,5.91h0l4.17,4.12,4.17-4.12,6-5.91h12.95l6.67,0,6.81,0,3.45-5.92,3.43,5.92,6.82,0,6.65,0h13L993.3,87l4.26,4.21,4.11,4,4.09-4,6-5.91h13l6.66,0,6.81,0,3.45-5.92,3.44,5.92,6.81,0,6.67,0h13l.1.1,5.7,5.63L1081.4,95l9.9-9.78h12.94l6.66,0,6.82,0,3.44-5.92,3.44,5.92,6.81,0,6.67,0h13l.55.55,5.35,5.29,4.1,4,4.1-4,5.9-5.83h13l6.66,0,6.81,0,3.44-5.92v.33l3.25,5.59,6.81,0,6.67,0h13l.84.83,5.07,5,4.1,4.05,4.09-4.05,5.92-5.84h13l6.66,0,6.81,0,3.45-5.92,3.44,5.92,6.81,0,6.66,0h13l6,5.91h0l4.17,4.12,4.17-4.12,6-5.91h12.95l6.67,0,6.81,0,3.45-5.92L1364,85.3l6.82,0,6.65,0h12.95l1.73,1.7,4.26,4.21,4.11,4,4.09-4,6-5.91h13l6.66,0,6.81,0,3.45-5.92,3.44,5.92,6.81,0,6.67,0h13l.1.1,5.7,5.63L1480.2,95l9.9-9.78H1503l6.66,0,6.82,0,3.44-5.92,3.44,5.92,6.81,0,6.67,0h12.95l.55.55,5.35,5.29,4.1,4,4.1-4,5.9-5.83h13l6.66,0,6.81,0,3.44-5.92v.33l3.25,5.59,6.81,0,6.67,0h12.95l.84.83,5.07,5,4.1,4.05,4.09-4.05,5.92-5.84h12.95l6.66,0,6.81,0,3.45-5.92,3.44,5.92,6.81,0,6.66,0h12.95l6,5.91h0l4.17,4.12,4.17-4.12,6-5.91h13l6.67,0,6.81,0,3.45-5.92,3.43,5.92,6.82,0,6.65,0h13l1.73,1.7,4.26,4.21,4.11,4,4.09-4,6-5.91h13l6.66,0,6.81,0,3.45-5.92,3.44,5.92,6.81,0,6.67,0h12.95l.1.1,5.7,5.63L1879,95l9.9-9.78h12.94l6.66,0,6.82,0,3.44-5.92,2.83,4.87V62.88l-2.84,5L1915.38,62l-2.56-4.49-10.4-2.88,2.77-10.42-2.58-4.48-3.39-5.93h12Zm-50.21-9.93,6.81,0,3.44-5.92,3.44,5.92,6.82,0-3.41,5.89,3.41,5.89h-6.83l-3.43,5.9-3.44-5.9h-6.81l3.4-5.89Zm23.83,17.56,1.65,2.87,3.39,5.93L1899,45,1896.88,53h-.06l0,.07-8-2.23-1.4-2.43-5-8.82,1.66-2.86,1.77-3h3.49Zm-16.89,5.87L1874,42.55l-3.37,5.88-1.39,2.43-8.07,2.24,0-.08h0L1859,45l1.39-2.43,3.4-5.93,1.65-2.87,3.33,0h3.49l1.77,3Zm-26.56-23.44h13l1.67,2.89,1.74,3-1.74,3L1862.09,28h-13l-6-5.91Zm-34.82,2.89,1.67-2.89h13l6,5.91-6,5.92h-13l-1.67-2.91-1.74-3Zm-25.5-2.88,6.81,0,3.44-5.92,3.45,5.92,6.81,0-3.41,5.89,3.41,5.89h-6.82l-3.44,5.9-3.44-5.9h-6.81l3.4-5.89Zm7,23.43-1.69,2.94-3.37,5.88-1.39,2.43-8,2.23,0-.07h-.06L1779.05,45l1.39-2.43,3.41-5.93,1.64-2.87,3.33,0h3.49l1.77,3ZM1769.2,16.18h13l1.68,2.89,1.73,3-1.73,3L1782.15,28h-13l-6-5.91Zm-34.8,2.89,1.68-2.89h13l6,5.91L1749,28h-13l-1.68-2.91-1.74-3Zm-25.49-2.88,6.81,0,3.44-5.92,3.44,5.92,6.82,0L1726,22.08l3.41,5.89h-6.83l-3.43,5.9-3.44-5.9h-6.81l3.39-5.89Zm6.93,23.43-1.67,2.94-3.37,5.88-1.39,2.43-8.11,2.24L1699.15,45l1.39-2.43,3.41-5.93,1.64-2.87,3.33,0h3.49l1.77,3Zm-26.55-23.44h13l1.67,2.89,1.75,3-1.75,3L1702.24,28h-13l-6-5.91Zm-34.79,2.89,1.67-2.89h12.95l6,5.9-6,5.92h-12.95l-1.67-2.91-1.75-3ZM1659.27,45l-2.15,8.13L1649,50.87l-1.4-2.43-5-8.82,1.66-2.86,1.77-3h3.49l3.34,0,1.65,2.87,3.4,5.93ZM1629,16.19l6.81,0,3.44-5.92,3.44,5.92,6.82,0-3.41,5.89,3.41,5.89h-6.82l-3.44,5.9-3.44-5.9H1629l3.4-5.89Zm6.94,23.43-1.68,2.94-3.36,5.88-1.39,2.43-8,2.23,0-.07h-.06L1619.24,45l1.39-2.43,3.4-5.93,1.66-2.87,3.33,0h3.49l1.77,3Zm-26.56-23.44h13l1.67,2.9,1.74,3-1.74,3-1.67,2.9h-13l-5.6-5.53.39-.39-.38-.38Zm-34,2.89,1.67-2.9h13l5.6,5.53-.39.38.39.38L1590,28h-13l-1.67-2.9-1.74-3ZM1580.13,45,1578,53.09l-.23-.06v0l-7.87-2.18-1.4-2.43-5-8.82,1.66-2.86,1.77-3h3.49l3.33,0,1.65,2.87,3.4,5.93Zm-30.25-28.79,6.81,0,3.43-5.92,3.44,5.92,6.81,0L1567,22.08l3.4,5.89h-6.82l-3.44,5.9-3.43-5.9h-6.81l3.39-5.89Zm-19.63,0h13l1.68,2.89,1.74,3-1.74,3L1543.2,28h-13l-6-5.91Zm-34.8,2.89,1.67-2.89h13l6,5.91-6,5.92h-13l-1.67-2.91-1.75-3ZM1500.22,45,1498.08,53H1498l0,.07-8-2.23-1.4-2.43-5-8.82,1.66-2.86,1.77-3h3.49l3.34,0,1.65,2.87,3.39,5.93ZM1470,16.19l6.81,0,3.44-5.92,3.44,5.92,6.82,0-3.41,5.89,3.41,5.89h-6.83l-3.43,5.9-3.44-5.9H1470l3.4-5.89Zm6.94,23.43-1.68,2.93-3.37,5.88-1.39,2.43-8.07,2.24,0-.08h0L1460.19,45l1.39-2.43,3.4-5.93,1.65-2.87,3.33,0h3.49l1.77,3Zm-26.56-23.44h13l1.67,2.89,1.74,3-1.74,3L1463.29,28h-13l-6-5.91Zm-34.82,2.89,1.67-2.89h13l6,5.91-6,5.92h-13l-1.67-2.91-1.74-3ZM1390,16.19l6.81,0,3.44-5.92,3.45,5.92,6.81,0-3.41,5.89,3.41,5.89h-6.82l-3.44,5.9-3.44-5.9H1390l3.4-5.89Zm7,23.43-1.69,2.94-3.37,5.88-1.39,2.43-8,2.23,0-.07h-.06L1380.25,45l1.39-2.43,3.41-5.93,1.64-2.87,3.33,0h3.49l1.77,3ZM1370.4,16.18h12.95l1.68,2.89,1.73,3-1.73,3L1383.35,28H1370.4l-6-5.91Zm-34.8,2.89,1.68-2.89h13l6,5.91-6,5.92h-13l-1.68-2.91-1.74-3Zm-25.49-2.88,6.81,0,3.44-5.92,3.44,5.92,6.82,0-3.41,5.89,3.41,5.89h-6.83l-3.43,5.9-3.44-5.9h-6.81l3.39-5.89ZM1317,39.62l-1.67,2.94L1312,48.44l-1.39,2.43-8.11,2.24L1300.35,45l1.39-2.43,3.41-5.93,1.64-2.87,3.33,0h3.49l1.77,3Zm-26.55-23.44h13l1.67,2.89,1.75,3-1.75,3L1303.44,28h-13l-6-5.91Zm-34.79,2.89,1.67-2.89h13l6,5.9-6,5.92h-13l-1.67-2.91-1.75-3ZM1260.47,45l-2.15,8.13-8.11-2.24-1.4-2.43-5-8.82,1.66-2.86,1.77-3h3.49l3.34,0,1.65,2.87,3.4,5.93ZM1230.2,16.19l6.81,0,3.44-5.92,3.44,5.92,6.82,0-3.41,5.89,3.41,5.89h-6.82l-3.44,5.9L1237,28h-6.81l3.4-5.89Zm6.94,23.43-5,8.82-1.39,2.43-8,2.23,0-.07h-.06L1220.44,45l1.39-2.43,3.4-5.93,1.66-2.87,3.33,0h3.49l1.77,3Zm-26.56-23.44h13l1.67,2.9,1.74,3-1.74,3-1.67,2.9h-13l-5.6-5.53.39-.39-.38-.38Zm-34,2.89,1.67-2.9h13l5.6,5.53-.39.38.39.38-5.6,5.54h-13l-1.67-2.9-1.74-3ZM1181.33,45l-2.14,8.11L1179,53v0l-7.87-2.18-1.4-2.43-5-8.82,1.66-2.86,1.77-3h3.49l3.33,0,1.65,2.87,3.4,5.93Zm-30.25-28.79,6.81,0,3.43-5.92,3.44,5.92,6.81,0-3.39,5.89,3.4,5.89h-6.82l-3.44,5.9-3.43-5.9h-6.81l3.39-5.89Zm-19.63,0h13l1.68,2.89,1.74,3-1.74,3L1144.4,28h-13l-6-5.91Zm-34.8,2.89,1.67-2.89h13l6,5.91-6,5.92h-13l-1.67-2.91-1.75-3ZM1101.42,45,1099.28,53h-.06l0,.07-8-2.23-1.4-2.43-5-8.82,1.66-2.86,1.77-3h3.49l3.34,0,1.65,2.87,3.39,5.93Zm-30.27-28.79,6.81,0,3.44-5.92,3.44,5.92,6.82,0-3.41,5.89,3.41,5.89h-6.83l-3.43,5.9L1078,28h-6.81l3.4-5.89Zm6.94,23.43-1.68,2.93L1073,48.43l-1.39,2.43-8.07,2.24,0-.08h0L1061.39,45l1.39-2.43,3.4-5.93,1.65-2.87,3.33,0h3.49l1.77,3Zm-26.56-23.44h13l1.67,2.89,1.74,3-1.74,3L1064.49,28h-13l-6-5.91Zm-34.82,2.89,1.67-2.89h12.95l6,5.91-6,5.92h-12.95l-1.67-2.91-1.74-3Zm-25.5-2.88,6.81,0,3.44-5.92,3.45,5.92,6.81,0-3.41,5.89,3.41,5.89h-6.82l-3.44,5.9L998,28h-6.81l3.4-5.89Zm6.95,23.43-1.69,2.94-3.37,5.88-1.39,2.43-8,2.23,0-.07h-.06L981.45,45l1.39-2.43,3.41-5.93,1.64-2.87,3.33,0h3.49l1.77,3ZM971.6,16.18h12.95l1.68,2.89,1.73,3-1.73,3L984.55,28H971.6l-6-5.91Zm-34.8,2.89,1.68-2.89h12.95l6,5.91-6,5.92H938.48l-1.68-2.91-1.74-3Zm-25.49-2.88,6.81,0,3.44-5.92L925,16.21l6.82,0-3.41,5.89L931.82,28H925l-3.43,5.9L918.12,28h-6.81l3.39-5.89Zm6.93,23.43-1.67,2.94-3.37,5.88-1.39,2.43-8.11,2.24L901.55,45l1.39-2.43,3.41-5.93L908,33.75l3.33,0h3.49l1.77,3ZM891.69,16.18h12.95l1.67,2.89,1.75,3-1.75,3L904.64,28H891.69l-6-5.91ZM856.9,19.07l1.67-2.89h12.95l6,5.9-6,5.92H858.57l-1.67-2.91-1.75-3ZM861.67,45l-2.15,8.13-8.11-2.24L850,48.44l-5-8.82,1.66-2.86,1.77-3h3.49l3.34,0,1.65,2.87,3.4,5.93ZM831.4,16.19l6.81,0,3.44-5.92,3.44,5.92,6.82,0-3.41,5.89L851.91,28h-6.82l-3.44,5.9L838.21,28H831.4l3.4-5.89Zm6.94,23.43-5,8.82-1.39,2.43-8,2.23,0-.07h-.06L821.64,45,823,42.55l3.4-5.93,1.66-2.87,3.33,0h3.49l1.77,3ZM811.78,16.18h13l1.67,2.9,1.74,3-1.74,3L824.74,28h-13l-5.6-5.53.39-.39-.38-.38Zm-34,2.89,1.67-2.9h12.95L798,21.7l-.39.38.39.38L792.39,28H779.44l-1.67-2.9-1.74-3ZM782.53,45l-2.14,8.11-.23-.06v0l-7.87-2.18-1.4-2.43-5-8.82,1.66-2.86,1.77-3h3.49l3.33,0,1.65,2.87,3.4,5.93ZM752.28,16.19l6.81,0,3.43-5.92L766,16.21l6.81,0-3.39,5.89,3.4,5.89H766l-3.44,5.9L759.09,28h-6.81l3.39-5.89Zm-19.63,0h13l1.68,2.89,1.74,3-1.74,3L745.6,28h-13l-6-5.91Zm-34.8,2.89,1.67-2.89h13l6,5.91-6,5.92h-13l-1.67-2.91-1.75-3ZM702.62,45,700.48,53h-.06l0,.07-8-2.23L691,48.44l-5-8.82,1.66-2.86,1.77-3h3.49l3.34,0,1.65,2.87,3.39,5.93ZM672.35,16.19l6.81,0,3.44-5.92L686,16.21l6.82,0-3.41,5.89L692.86,28H686l-3.43,5.9L679.16,28h-6.81l3.4-5.89Zm6.94,23.43-1.68,2.93-3.37,5.88-1.39,2.43-8.07,2.24,0-.08h0L662.59,45,664,42.55l3.4-5.93L669,33.75l3.33,0h3.49l1.77,3ZM652.73,16.18h13l1.67,2.89,1.74,3-1.74,3L665.69,28h-13l-6-5.91Zm-34.82,2.89,1.67-2.89h12.95l6,5.91-6,5.92H619.58l-1.67-2.91-1.74-3Zm-25.5-2.88,6.81,0,3.44-5.92,3.45,5.92,6.81,0-3.41,5.89L612.92,28H606.1l-3.44,5.9L599.22,28h-6.81l3.4-5.89Zm7,23.43-1.69,2.94-3.37,5.88-1.39,2.43-8,2.23,0-.07h-.06L582.65,45,584,42.55l3.41-5.93,1.64-2.87,3.33,0h3.49l1.77,3ZM572.8,16.18h13l1.68,2.89,1.73,3-1.73,3L585.75,28h-13l-6-5.91ZM538,19.07l1.68-2.89h13l6,5.91-6,5.92h-13L538,25.09l-1.74-3Zm-25.49-2.88,6.81,0,3.44-5.92,3.44,5.92,6.82,0-3.41,5.89L533,28h-6.83l-3.43,5.9L519.32,28h-6.81l3.39-5.89Zm6.93,23.43-1.67,2.94-3.37,5.88L513,50.87l-8.11,2.24L502.75,45l1.39-2.43,3.41-5.93,1.64-2.87,3.33,0H516l1.77,3ZM492.89,16.18h12.95l1.67,2.89,1.75,3-1.75,3L505.84,28H492.89l-6-5.91ZM458.1,19.07l1.67-2.89h13l6,5.9-6,5.92h-13l-1.67-2.91-1.75-3ZM462.87,45l-2.15,8.13-8.11-2.24-1.4-2.43-5-8.82,1.66-2.86,1.77-3h3.49l3.34,0,1.65,2.87,3.4,5.93ZM432.6,16.19l6.81,0,3.44-5.92,3.44,5.92,6.82,0-3.41,5.89L453.11,28h-6.82l-3.44,5.9L439.41,28H432.6l3.4-5.89Zm6.94,23.43-5,8.82-1.39,2.43-8.05,2.23,0-.07H425L422.84,45l1.39-2.43,3.4-5.93,1.66-2.87,3.33,0h3.49l1.77,3ZM413,16.18h13l1.67,2.9,1.74,3-1.74,3L425.94,28H413l-5.6-5.53.39-.39-.38-.38Zm-34,2.89,1.67-2.9h12.95l5.6,5.53-.39.38.39.38L393.59,28H380.64L379,25.09l-1.74-3ZM383.73,45l-2.14,8.11-.23-.06v0l-7.87-2.18-1.4-2.43-5-8.82,1.66-2.86,1.77-3H374l3.33,0,1.65,2.87,3.4,5.93ZM353.48,16.19l6.81,0,3.43-5.92,3.44,5.92,6.81,0-3.39,5.89L374,28h-6.82l-3.44,5.9L360.29,28h-6.81l3.39-5.89Zm-19.63,0H346.8l1.68,2.89,1.74,3-1.74,3L346.8,28H333.85l-6-5.91Zm-34.8,2.89,1.67-2.89h12.95l6,5.91-6,5.92H300.72l-1.67-2.91-1.75-3ZM303.82,45,301.68,53h-.06l0,.07-8-2.23-1.4-2.43-5-8.82,1.66-2.86,1.77-3H294l3.34,0L299,36.62l3.39,5.93ZM273.55,16.19l6.81,0,3.44-5.92,3.44,5.92,6.82,0-3.41,5.89L294.06,28h-6.83l-3.43,5.9L280.36,28h-6.81l3.4-5.89Zm6.94,23.43-1.68,2.93-3.37,5.88-1.39,2.43L266,53.1l0-.08h0L263.79,45l1.39-2.43,3.4-5.93,1.65-2.87,3.33,0h3.49l1.77,3ZM253.93,16.18h13l1.67,2.89,1.74,3-1.74,3L266.89,28h-13l-6-5.91Zm-34.82,2.89,1.67-2.89h12.95l6,5.91-6,5.92H220.78l-1.67-2.91-1.74-3Zm-25.5-2.88,6.81,0,3.44-5.92,3.45,5.92,6.81,0-3.41,5.89L214.12,28H207.3l-3.44,5.9L200.42,28h-6.81l3.4-5.89Zm6.95,23.43-1.69,2.94-3.37,5.88-1.39,2.43-8,2.23,0-.07H186L183.85,45l1.39-2.43,3.41-5.93,1.64-2.87,3.33,0h3.49l1.77,3ZM174,16.18H187l1.68,2.89,1.73,3-1.73,3L187,28H174l-6-5.91Zm-34.8,2.89,1.68-2.89h13l6,5.91-6,5.92h-13l-1.68-2.91-1.74-3Zm-25.49-2.88,6.81,0L124,10.29l3.44,5.92,6.82,0-3.41,5.89L134.22,28h-6.83L124,33.86,120.52,28h-6.81l3.39-5.89Zm6.93,23.43L119,42.56l-3.37,5.88-1.39,2.43-8.11,2.24L104,45l1.39-2.43,3.41-5.93,1.64-2.87,3.33,0h3.49l1.77,3ZM94.09,16.18h13l1.67,2.89,1.75,3-1.75,3L107,28h-13l-6-5.91ZM59.3,19.07,61,16.18h13l6,5.9-6,5.92H61L59.3,25.09l-1.75-3ZM64.07,45l-2.15,8.13-8.11-2.24-1.4-2.43-5-8.82L49,36.76l1.77-3h3.49l3.34,0,1.65,2.87,3.4,5.93ZM33.8,16.19l6.81,0,3.44-5.92,3.44,5.92,6.82,0L50.9,22.08,54.31,28H47.49l-3.44,5.9L40.61,28H33.8l3.4-5.89Zm6.94,23.43-1.68,2.94L35.7,48.44l-1.39,2.43-8,2.23,0-.07h-.06L24,45l1.39-2.43,3.4-5.93,1.66-2.87,3.33,0h3.49l1.77,3ZM14.18,28l-6-5.91,6-5.91h13l1.67,2.9,1.74,3-1.74,3L27.14,28Zm8.75,42.7-3.41,5.94-1.65,2.87H11l-1.77-3L7.61,73.62,9.29,70.7l3.37-5.88,1.39-2.43,8.06-2.24v.07l.06,0,2.14,8.07Zm28.89,8.8-7.64,7.55L36.53,79.5h-12l3.4-5.93,2.56-4.49L27.73,58.67l10.39-2.89L40.7,51.3l3.36-5.88,3.37,5.88L50,55.77l10.62,3L57.87,69.08l2.56,4.48,3.41,5.94Zm27.25-3-1.77,3H70.47l-1.64-2.87-3.4-5.94L64,68.27l2.15-8.13,8.1,2.25,1.39,2.43,3.38,5.88,1.68,2.92ZM80.68,62l-2.56-4.49L67.49,54.53l2.75-10.36-2.58-4.48-3.39-5.93h12L84,26.13l7.72,7.63h12l-3.4,5.93-2.56,4.48,2.74,10.38L90,57.47,87.42,62l-3.36,5.88Zm22,8.74-3.4,5.94-1.64,2.87H90.81l-1.77-3-1.67-2.86,1.68-2.92,3.38-5.88,1.39-2.43,8.1-2.25,2.15,8.13Zm29.19,8.8-7.79,7.7-7.79-7.7h-12l3.41-5.93,2.56-4.49L107.5,58.71,118,55.78l2.57-4.48L124,45.43l3.37,5.87,2.56,4.48,10.76,3-2.73,10.31,2.57,4.49,3.4,5.93Zm10-26.39-8.11-2.24-1.39-2.43L129,42.56l-1.67-2.94,1.66-2.86,1.77-3h3.5l3.33,0,1.64,2.87,3.4,5.93L144,45Zm17.31,23.37-1.79,3h-6.82l-1.65-2.87-3.4-5.94-1.39-2.43,2.15-8.13,8.11,2.25,1.39,2.43,3.38,5.88,1.67,2.92Zm5-8.64L160.74,62l-2.57-4.49-10.75-3,2.73-10.31-2.57-4.48-3.41-5.93h12l7.72-7.63,7.72,7.63h12l-3.4,5.93-2.57,4.48,2.76,10.42-10.39,2.88L167.49,62Zm18.63,2.86-3.4,5.94-1.65,2.87h-6.83l-1.76-3-1.67-2.86,1.68-2.92,3.37-5.88,1.4-2.43,8-2.24,0,.07.07,0,2.14,8.07Zm29,8.8-7.72,7.62-7.71-7.62h-12l3.41-5.94,2.56-4.48-2.76-10.42,10.39-2.89,2.56-4.47,3.37-5.88,3.36,5.88,2.57,4.47,10.76,3-2.73,10.32,2.57,4.48,3.4,5.94Zm9.95-26.39-8.11-2.24-1.39-2.43-3.36-5.88-1.69-2.94,1.66-2.86,1.77-3h3.5l3.33,0,1.64,2.87,3.4,5.93L223.87,45ZM239,76.48l-1.78,3h-6.83l-1.64-2.87-3.41-5.94L224,68.27l2.16-8.13,8.1,2.25,1.4,2.43L239,70.7l1.67,2.92ZM240.65,62l-2.57-4.49-10.75-3,2.73-10.31-2.57-4.48-3.41-5.93h12l7.74-7.65,7.73,7.65h12l-3.4,5.93-2.56,4.48,2.75,10.41L250,57.47,247.39,62,244,67.84Zm22,8.74-3.41,5.94-1.64,2.87h-6.84L249,76.47l-1.66-2.85L249,70.7l3.38-5.88,1.39-2.43,8.07-2.25,0,.08h0L264,68.27Zm28.68,8.8-7.54,7.44-7.52-7.44h-12l3.41-5.94,2.57-4.48-2.76-10.41,10.41-2.9,2.57-4.47,3.36-5.88,3.37,5.88,2.56,4.47,10.39,2.89-2.76,10.42,2.57,4.48,3.4,5.94Zm27.25-3-1.77,3H310l-1.64-2.87-3.4-5.94-1.39-2.43,2.13-8.07.07,0,0-.07,8,2.24,1.41,2.43,3.36,5.88,1.68,2.92Zm5-8.64L320.18,62l-2.56-4.49-10.4-2.88L310,44.17l-2.58-4.48L304,33.76h12l7.73-7.64,7.73,7.64h12l-3.4,5.93-2.57,4.48,2.71,10.31-10.77,3L326.92,62Zm18.63,2.86-3.4,5.94-1.64,2.87h-6.83l-1.77-3-1.66-2.86,1.67-2.92,3.38-5.88,1.39-2.43,8.11-2.25,2.14,8.13Zm2.92-28.15,3.4-5.93,1.65-2.87,3.33,0H357l1.76,3,1.66,2.86-1.67,2.94-3.37,5.88L354,50.87l-8.11,2.24L343.71,45Zm26,37L363.42,87l-7.63-7.54h-12l3.41-5.94,2.57-4.48L347,58.77l10.77-3,2.56-4.47,3.36-5.88,3.37,5.88,2.56,4.47,10.23,2.84L377.1,69.08l2.57,4.48,3.41,5.94Zm27.25-3-1.76,3h-6.83l-1.65-2.87-3.39-5.94-1.41-2.43,2.15-8.11.24.07v0l7.86,2.18,1.4,2.43,3.37,5.88L400,73.62Zm5-8.64L399.93,62l-2.58-4.49-10.21-2.84,2.76-10.46-2.56-4.48-3.4-5.93h12l7.33-7.25h0l7.33,7.25h12l-3.4,5.93-2.56,4.48,2.76,10.42L409,57.47,406.47,62l-3.18,5.55Zm18.44,2.86-3.41,5.94-1.65,2.87h-6.83l-1.77-3-1.66-2.86,1.68-2.92,3.37-5.88,1.39-2.43,8.06-2.24v.07l.06,0,2.14,8.07Zm28.89,8.8L443,87.05l-7.65-7.55h-12l3.4-5.93,2.56-4.49-2.76-10.41,10.39-2.89,2.58-4.48,3.36-5.88,3.37,5.88,2.56,4.47,10.62,3-2.74,10.35,2.56,4.48,3.41,5.94Zm27.25-3-1.77,3h-6.83l-1.64-2.87-3.4-5.94-1.39-2.43L465,60.14l8.1,2.25,1.39,2.43,3.38,5.88,1.68,2.92ZM479.48,62l-2.56-4.49-10.63-2.94L469,44.17l-2.58-4.48-3.39-5.93h12l7.73-7.63,7.72,7.63h12l-3.4,5.93-2.56,4.48,2.74,10.38-10.53,2.92L486.22,62l-3.36,5.88Zm22,8.74-3.4,5.94-1.64,2.87h-6.83l-1.77-3-1.67-2.86,1.68-2.92,3.38-5.88,1.39-2.43,8.1-2.25,2.15,8.13Zm29.19,8.8-7.79,7.7-7.79-7.7h-12l3.41-5.93,2.56-4.49L506.3,58.71l10.53-2.93,2.57-4.48,3.36-5.87,3.37,5.87,2.56,4.48,10.76,3-2.73,10.31,2.57,4.49,3.4,5.93Zm10-26.39-8.11-2.24-1.39-2.43-3.38-5.88-1.67-2.94,1.66-2.86,1.77-3H533l3.33,0L538,36.62l3.4,5.93L542.77,45Zm17.31,23.37-1.79,3h-6.82l-1.65-2.87-3.4-5.94-1.39-2.43L545,60.14l8.11,2.25,1.39,2.43,3.38,5.88,1.67,2.92Zm5-8.64L559.54,62,557,57.47l-10.75-3L549,44.17l-2.57-4.48L543,33.76h12l7.72-7.63,7.72,7.63h12l-3.4,5.93-2.57,4.48,2.76,10.42-10.39,2.88L566.29,62Zm18.63,2.86-3.4,5.94-1.65,2.87h-6.83l-1.76-3-1.67-2.86,1.68-2.92,3.37-5.88,1.4-2.43,8-2.24,0,.07.07,0,2.14,8.07Zm29,8.8-7.72,7.62-7.71-7.62h-12l3.41-5.94,2.56-4.48-2.76-10.42,10.39-2.89,2.56-4.47,3.37-5.88L606,51.3l2.57,4.47,10.76,3-2.73,10.32,2.57,4.48,3.4,5.94Zm9.95-26.39-8.11-2.24L611,48.44l-3.36-5.88L606,39.62l1.66-2.86,1.77-3h3.5l3.33,0,1.64,2.87,3.4,5.93L622.67,45Zm17.31,23.37-1.78,3h-6.83l-1.64-2.87-3.41-5.94-1.39-2.43L625,60.14l8.1,2.25,1.4,2.43,3.37,5.88,1.67,2.92ZM639.45,62l-2.57-4.49-10.75-3,2.73-10.31-2.57-4.48-3.41-5.93h12l7.74-7.65,7.73,7.65h12L659,39.69l-2.56,4.48,2.75,10.41-10.41,2.89L646.19,62l-3.37,5.88Zm22,8.74L658,76.64l-1.64,2.87h-6.84l-1.76-3.06-1.66-2.85,1.67-2.92,3.38-5.88,1.39-2.43,8.07-2.25,0,.08h0l2.13,8.06Zm28.68,8.8-7.54,7.44-7.52-7.44h-12l3.41-5.94L669,69.08l-2.76-10.41,10.41-2.9,2.57-4.47,3.36-5.88L686,51.3l2.56,4.47,10.39,2.89-2.76,10.42,2.57,4.48,3.4,5.94Zm27.25-3-1.77,3h-6.84l-1.64-2.87-3.4-5.94-1.39-2.43,2.13-8.07.07,0,0-.07,8,2.24L714,64.82l3.36,5.88L719,73.62Zm5-8.64L719,62l-2.56-4.49L706,54.59l2.77-10.42-2.58-4.48-3.39-5.93h12l7.73-7.64,7.73,7.64h12l-3.4,5.93-2.57,4.48,2.71,10.31-10.77,3L725.72,62ZM741,70.7l-3.4,5.94-1.64,2.87h-6.83l-1.77-3-1.66-2.86,1.67-2.92,3.38-5.88,1.39-2.43,8.11-2.25,2.14,8.13Zm2.92-28.15,3.4-5.93L749,33.75l3.33,0h3.5l1.76,3,1.66,2.86-1.67,2.94-3.37,5.88-1.39,2.43-8.11,2.24L742.51,45Zm26,37L762.22,87l-7.63-7.54h-12L746,73.56l2.57-4.48-2.73-10.31,10.77-3,2.56-4.47,3.36-5.88,3.37,5.88,2.56,4.47,10.23,2.84L775.9,69.08l2.57,4.48,3.41,5.94Zm27.25-3-1.76,3h-6.83l-1.65-2.87-3.39-5.94-1.41-2.43,2.15-8.11.24.07v0l7.86,2.18,1.4,2.43,3.37,5.88,1.68,2.92Zm5-8.64L798.73,62l-2.58-4.49-10.21-2.84,2.76-10.46-2.56-4.48-3.4-5.93h12l7.33-7.25h0l7.33,7.25h12L818,39.69l-2.56,4.48,2.76,10.42-10.39,2.88L805.27,62l-3.18,5.55Zm18.44,2.86-3.41,5.94-1.65,2.87h-6.83l-1.77-3-1.66-2.86,1.68-2.92,3.37-5.88,1.39-2.43,8.06-2.24v.07l.06,0,2.14,8.07Zm28.89,8.8-7.64,7.55-7.65-7.55h-12l3.4-5.93,2.56-4.49-2.76-10.41,10.39-2.89,2.58-4.48,3.36-5.88L845,51.3l2.56,4.47,10.62,3-2.74,10.35L858,73.56l3.41,5.94Zm27.25-3-1.77,3h-6.83l-1.64-2.87L863,70.7l-1.39-2.43,2.15-8.13,8.1,2.25,1.39,2.43,3.38,5.88,1.68,2.92ZM878.28,62l-2.56-4.49-10.63-2.94,2.75-10.36-2.58-4.48-3.39-5.93h12l7.73-7.63,7.72,7.63h12l-3.4,5.93-2.56,4.48,2.74,10.38-10.53,2.92L885,62l-3.36,5.88Zm22,8.74-3.4,5.94-1.64,2.87h-6.83l-1.77-3L885,73.62l1.68-2.92L890,64.82l1.39-2.43,8.1-2.25,2.15,8.13Zm29.19,8.8-7.79,7.7-7.79-7.7h-12l3.41-5.93,2.56-4.49L905.1,58.71l10.53-2.93,2.57-4.48,3.36-5.87,3.37,5.87,2.56,4.48,10.76,3-2.73,10.31,2.57,4.49,3.4,5.93Zm10-26.39-8.11-2.24-1.39-2.43-3.38-5.88-1.67-2.94,1.66-2.86,1.77-3h3.5l3.33,0,1.64,2.87,3.4,5.93L941.57,45Zm17.31,23.37-1.79,3h-6.82l-1.65-2.87-3.4-5.94-1.39-2.43,2.15-8.13L952,62.39l1.39,2.43,3.38,5.88,1.67,2.92Zm5-8.64L958.34,62l-2.57-4.49-10.75-3,2.73-10.31-2.57-4.48-3.41-5.93h12l7.72-7.63,7.72,7.63h12l-3.4,5.93-2.57,4.48L978,54.59l-10.39,2.88L965.09,62Zm18.63,2.86-3.4,5.94-1.65,2.87h-6.83l-1.76-3L965,73.62l1.68-2.92,3.37-5.88,1.4-2.43,8-2.24,0,.07.07,0,2.14,8.07Zm29,8.8-7.72,7.62L994,79.5h-12l3.41-5.94,2.56-4.48-2.76-10.42,10.39-2.89,2.56-4.47,3.37-5.88,3.36,5.88,2.57,4.47,10.76,3-2.73,10.32,2.57,4.48,3.4,5.94Zm10-26.39-8.11-2.24-1.39-2.43-3.36-5.88-1.69-2.94,1.66-2.86,1.77-3h3.5l3.33,0,1.64,2.87,3.4,5.93,1.39,2.43Zm17.31,23.37-1.78,3H1028l-1.64-2.87L1023,70.7l-1.39-2.43,2.16-8.13,8.1,2.25,1.4,2.43,3.37,5.88,1.67,2.92ZM1038.25,62l-2.57-4.49-10.75-3,2.73-10.31-2.57-4.48-3.41-5.93h12l7.74-7.65,7.73,7.65h12l-3.4,5.93-2.56,4.48L1058,54.58l-10.41,2.89L1045,62l-3.37,5.88Zm22,8.74-3.41,5.94-1.64,2.87h-6.84l-1.76-3.06-1.66-2.85,1.67-2.92,3.38-5.88,1.39-2.43,8.07-2.25,0,.08h0l2.13,8.06Zm28.68,8.8-7.54,7.44-7.52-7.44h-12l3.41-5.94,2.57-4.48-2.76-10.41,10.41-2.9,2.57-4.47,3.36-5.88,3.37,5.88,2.56,4.47,10.39,2.89L1095,69.08l2.57,4.48,3.4,5.94Zm27.25-3-1.77,3h-6.84l-1.64-2.87-3.4-5.94-1.39-2.43,2.13-8.07.07,0,0-.07,8,2.24,1.41,2.43,3.36,5.88,1.68,2.92Zm5-8.64L1117.78,62l-2.56-4.49-10.4-2.88,2.77-10.42L1105,39.69l-3.39-5.93h12l7.73-7.64,7.73,7.64h12l-3.4,5.93-2.57,4.48,2.71,10.31-10.77,3L1124.52,62Zm18.63,2.86-3.4,5.94-1.64,2.87h-6.83l-1.77-3-1.66-2.86,1.67-2.92,3.38-5.88,1.39-2.43,8.11-2.25,2.14,8.13Zm2.92-28.15,3.4-5.93,1.65-2.87,3.33,0h3.5l1.76,3,1.66,2.86-1.67,2.94L1153,48.44l-1.39,2.43-8.11,2.24L1141.31,45Zm26,37L1161,87l-7.63-7.54h-12l3.41-5.94,2.57-4.48-2.73-10.31,10.77-3L1158,51.3l3.36-5.88,3.37,5.88,2.56,4.47,10.23,2.84-2.78,10.47,2.57,4.48,3.41,5.94Zm27.25-3-1.76,3h-6.83l-1.65-2.87-3.39-5.94-1.41-2.43,2.15-8.11.24.07v0l7.86,2.18,1.4,2.43,3.37,5.88,1.68,2.92Zm5-8.64L1197.53,62,1195,57.47l-10.21-2.84,2.76-10.46-2.56-4.48-3.4-5.93h12l7.33-7.25h0l7.33,7.25h12l-3.4,5.93-2.56,4.48L1217,54.59l-10.39,2.88L1204.07,62l-3.18,5.55Zm18.44,2.86-3.41,5.94-1.65,2.87h-6.83l-1.77-3L1204,73.62l1.68-2.92,3.37-5.88,1.39-2.43,8.06-2.24v.07l.06,0,2.14,8.07Zm28.89,8.8-7.64,7.55-7.65-7.55h-12l3.4-5.93,2.56-4.49-2.76-10.41,10.39-2.89,2.58-4.48,3.36-5.88,3.37,5.88,2.56,4.47,10.62,3-2.74,10.35,2.56,4.48,3.41,5.94Zm27.25-3-1.77,3h-6.83l-1.64-2.87-3.4-5.94-1.39-2.43,2.15-8.13,8.1,2.25,1.39,2.43,3.38,5.88,1.68,2.92ZM1277.08,62l-2.56-4.49-10.63-2.94,2.75-10.36-2.58-4.48-3.39-5.93h12l7.73-7.63,7.72,7.63h12l-3.4,5.93-2.56,4.48,2.74,10.38-10.53,2.92L1283.82,62l-3.36,5.88Zm22,8.74-3.4,5.94L1294,79.51h-6.83l-1.77-3-1.67-2.86,1.68-2.92,3.38-5.88,1.39-2.43,8.1-2.25,2.15,8.13Zm29.19,8.8-7.79,7.7-7.79-7.7h-12l3.41-5.93,2.56-4.49-2.75-10.37,10.53-2.93L1317,51.3l3.36-5.87,3.37,5.87,2.56,4.48,10.76,3-2.73,10.31,2.57,4.49,3.4,5.93Zm10-26.39-8.11-2.24-1.39-2.43-3.38-5.88-1.67-2.94,1.66-2.86,1.77-3h3.5l3.33,0,1.64,2.87,3.4,5.93,1.39,2.43Zm17.31,23.37-1.79,3h-6.82l-1.65-2.87-3.4-5.94-1.39-2.43,2.15-8.13,8.11,2.25,1.39,2.43,3.38,5.88,1.67,2.92Zm5-8.64L1357.14,62l-2.57-4.49-10.75-3,2.73-10.31L1344,39.69l-3.41-5.93h12l7.72-7.63,7.72,7.63h12l-3.4,5.93-2.57,4.48,2.76,10.42-10.39,2.88L1363.89,62Zm18.63,2.86-3.4,5.94-1.65,2.87h-6.83l-1.76-3-1.67-2.86,1.68-2.92,3.37-5.88,1.4-2.43,8-2.24,0,.07.07,0,2.14,8.07Zm29,8.8-7.72,7.62-7.71-7.62h-12l3.41-5.94,2.56-4.48L1384,58.66l10.39-2.89,2.56-4.47,3.37-5.88,3.36,5.88,2.57,4.47,10.76,3-2.73,10.32,2.57,4.48,3.4,5.94Zm10-26.39L1410,50.87l-1.39-2.43-3.36-5.88-1.69-2.94,1.66-2.86,1.77-3h3.5l3.33,0,1.64,2.87,3.4,5.93,1.39,2.43Zm17.31,23.37-1.78,3h-6.83l-1.64-2.87-3.41-5.94-1.39-2.43,2.16-8.13,8.1,2.25,1.4,2.43,3.37,5.88,1.67,2.92ZM1437.05,62l-2.57-4.49-10.75-3,2.73-10.31-2.57-4.48-3.41-5.93h12l7.74-7.65,7.73,7.65h12l-3.4,5.93L1454,44.17l2.75,10.41-10.41,2.89L1443.79,62l-3.37,5.88Zm22,8.74-3.41,5.94L1454,79.51h-6.84l-1.76-3.06-1.66-2.85,1.67-2.92,3.38-5.88,1.39-2.43,8.07-2.25,0,.08h0l2.13,8.06Zm28.68,8.8-7.54,7.44-7.52-7.44h-12l3.41-5.94,2.57-4.48-2.76-10.41,10.41-2.9,2.57-4.47,3.36-5.88,3.37,5.88,2.56,4.47,10.39,2.89-2.76,10.42,2.57,4.48,3.4,5.94Zm27.25-3-1.77,3h-6.84l-1.64-2.87-3.4-5.94-1.39-2.43,2.13-8.07.07,0,0-.07,8,2.24,1.41,2.43L1515,70.7l1.68,2.92Zm5-8.64L1516.58,62,1514,57.47l-10.4-2.88,2.77-10.42-2.58-4.48-3.39-5.93h12l7.73-7.64,7.73,7.64h12l-3.4,5.93-2.57,4.48,2.71,10.31-10.77,3L1523.32,62Zm18.63,2.86-3.4,5.94-1.64,2.87h-6.83l-1.77-3-1.66-2.86L1525,70.7l3.38-5.88,1.39-2.43,8.11-2.25,2.14,8.13Zm2.92-28.15,3.4-5.93,1.65-2.87,3.33,0h3.5l1.76,3,1.66,2.86-1.67,2.94-3.37,5.88-1.39,2.43-8.11,2.24L1540.11,45Zm26,37L1559.82,87l-7.63-7.54h-12l3.41-5.94,2.57-4.48-2.73-10.31,10.77-3,2.56-4.47,3.36-5.88,3.37,5.88,2.56,4.47,10.23,2.84-2.78,10.47,2.57,4.48,3.41,5.94Zm27.25-3-1.76,3h-6.83l-1.65-2.87-3.39-5.94-1.41-2.43,2.15-8.11.24.07v0l7.86,2.18,1.4,2.43,3.37,5.88,1.68,2.92Zm5-8.64L1596.33,62l-2.58-4.49-10.21-2.84,2.76-10.46-2.56-4.48-3.4-5.93h12l7.33-7.25h0l7.33,7.25h12l-3.4,5.93-2.56,4.48,2.76,10.42-10.39,2.88L1602.87,62l-3.18,5.55Zm18.44,2.86-3.41,5.94-1.65,2.87h-6.83l-1.77-3-1.66-2.86,1.68-2.92,3.37-5.88,1.39-2.43,8.06-2.24v.07l.06,0,2.14,8.07ZM1647,79.5l-7.64,7.55-7.65-7.55h-12l3.4-5.93,2.56-4.49-2.76-10.41,10.39-2.89,2.58-4.48,3.36-5.88,3.37,5.88,2.56,4.47,10.62,3-2.74,10.35,2.56,4.48L1659,79.5Zm27.25-3-1.77,3h-6.83L1664,76.64l-3.4-5.94-1.39-2.43,2.15-8.13,8.1,2.25,1.39,2.43,3.38,5.88,1.68,2.92ZM1675.88,62l-2.56-4.49-10.63-2.94,2.75-10.36-2.58-4.48-3.39-5.93h12l7.73-7.63,7.72,7.63h12l-3.4,5.93L1693,44.17l2.74,10.38-10.53,2.92L1682.62,62l-3.36,5.88Zm22,8.74-3.4,5.94-1.64,2.87H1686l-1.77-3-1.67-2.86,1.68-2.92,3.38-5.88,1.39-2.43,8.1-2.25,2.15,8.13Zm29.19,8.8-7.79,7.7-7.79-7.7h-12l3.41-5.93,2.56-4.49-2.75-10.37,10.53-2.93,2.57-4.48,3.36-5.87,3.37,5.87,2.56,4.48,10.76,3-2.73,10.31,2.57,4.49,3.4,5.93Zm10-26.39-8.11-2.24-1.39-2.43-3.38-5.88-1.67-2.94,1.66-2.86,1.77-3h3.5l3.33,0,1.64,2.87,3.4,5.93,1.39,2.43Zm17.31,23.37-1.79,3h-6.82l-1.65-2.87-3.4-5.94-1.39-2.43,2.15-8.13,8.11,2.25,1.39,2.43,3.38,5.88,1.67,2.92Zm5-8.64L1755.94,62l-2.57-4.49-10.75-3,2.73-10.31-2.57-4.48-3.41-5.93h12l7.72-7.63,7.72,7.63h12l-3.4,5.93-2.57,4.48,2.76,10.42-10.39,2.88L1762.69,62Zm18.63,2.86-3.4,5.94-1.65,2.87h-6.83l-1.76-3-1.67-2.86,1.68-2.92,3.37-5.88,1.4-2.43,8-2.24,0,.07.07,0,2.14,8.07Zm29,8.8-7.72,7.62-7.71-7.62h-12l3.41-5.94,2.56-4.48-2.76-10.42,10.39-2.89,2.56-4.47,3.37-5.88,3.36,5.88,2.57,4.47,10.76,3L1813,69.08l2.57,4.48,3.4,5.94Zm10-26.39-8.11-2.24-1.39-2.43-3.36-5.88-1.69-2.94,1.66-2.86,1.77-3h3.5l3.33,0,1.64,2.87,3.4,5.93,1.39,2.43Zm17.31,23.37-1.78,3h-6.83L1824,76.64l-3.41-5.94-1.39-2.43,2.16-8.13,8.1,2.25,1.4,2.43,3.37,5.88,1.67,2.92ZM1835.85,62l-2.57-4.49-10.75-3,2.73-10.31-2.57-4.48-3.41-5.93h12l7.74-7.65,7.73,7.65h12l-3.4,5.93-2.56,4.48,2.75,10.41-10.41,2.89L1842.59,62l-3.37,5.88Zm22,8.74-3.41,5.94-1.64,2.87H1846l-1.76-3.06-1.66-2.85,1.67-2.92,3.38-5.88,1.39-2.43,8.07-2.25,0,.08h0l2.13,8.06Zm28.68,8.8L1879,86.94l-7.52-7.44h-12l3.41-5.94,2.57-4.48-2.76-10.41,10.41-2.9,2.57-4.47,3.36-5.88,3.37,5.88,2.56,4.47,10.39,2.89-2.76,10.42,2.57,4.48,3.4,5.94Zm14.34-19.3.07,0,0-.07,8,2.24,1.41,2.43,3.36,5.88,1.68,2.92-1.66,2.86-1.77,3h-6.84l-1.64-2.87-3.4-5.94-1.39-2.43ZM1895.92,28l-1.67-2.91-1.75-3,1.75-3,1.67-2.89h12.95l6,5.91-6,5.92Z"/></g></g></svg>