<svg xmlns="http://www.w3.org/2000/svg" xmlns:xlink="http://www.w3.org/1999/xlink" viewBox="0 0 1917.1 61.53"><defs><style>.cls-1{opacity:0.75;fill:url(#Безымянный_градиент_29);}</style><linearGradient id="Безымянный_градиент_29" x1="958.55" y1="53.09" x2="958.55" y2="2.71" gradientUnits="userSpaceOnUse"><stop offset="0" stop-color="#b49b4b" stop-opacity="0"/><stop offset="1" stop-color="#b49b4b"/></linearGradient></defs><g id="Слой_2" data-name="Слой 2"><g id="Layer_1" data-name="Layer 1"><path class="cls-1" d="M1914.26,34.08l-3.37-5.88-2.56-4.49-10.4-2.88,2.77-10.42-2.58-4.48L1894.73,0h-6.63l1.64,2.86,3.39,5.93,1.4,2.43-2.14,8.06h-.06l0,.07-8-2.23-1.4-2.43-5-8.82L1879.49,3l1.75-3h-6.67l-.06.1-.06-.1h-6.67l1.75,3,1.67,2.86-1.68,2.93-3.37,5.88-1.39,2.43-8.07,2.24,0-.08h0l-2.13-8,1.39-2.43,3.4-5.93L1860.93,0h-6.64l-3.4,5.93-2.56,4.48,2.75,10.41-10.41,2.89-2.57,4.49-3.37,5.88-3.37-5.88-2.57-4.49-10.75-3,2.73-10.31-2.57-4.48L1814.79,0h-6.63l1.63,2.86,3.4,5.93,1.39,2.43-2.14,8.13-8.11-2.24-1.39-2.43-3.36-5.88-1.69-2.94L1799.55,3l1.75-3h-6.67l-.06.1-.06-.1h-6.67l1.75,3,1.68,2.86-1.69,2.94-3.37,5.88-1.39,2.43-8,2.23,0-.07h-.06l-2.14-8.06L1776,8.79l3.41-5.93L1781,0h-6.63L1771,5.93l-2.57,4.48,2.76,10.42-10.39,2.88-2.56,4.49-3.38,5.88-3.37-5.88-2.57-4.49-10.75-3,2.73-10.31-2.57-4.48L1734.88,0h-6.62l1.63,2.86,3.4,5.93,1.39,2.43-2.14,8.13-8.11-2.24L1723,14.68l-3.38-5.88L1718,5.86,1719.65,3l1.75-3h-6.67l-.06.1-.06-.1h-6.67l1.75,3,1.66,2.86-1.67,2.94-3.37,5.88-1.39,2.43-8.11,2.24-2.15-8.13,1.39-2.43,3.41-5.93L1701.09,0h-6.64l-3.4,5.93-2.56,4.48,2.74,10.38-10.53,2.92-2.57,4.49-3.36,5.88-3.38-5.88-2.56-4.49-10.63-2.94L1661,10.41l-2.58-4.48L1655,0h-6.63L1650,2.86l3.4,5.93,1.39,2.43-2.15,8.13-8.11-2.24-1.4-2.43-5-8.82L1639.74,3l1.75-3h-6.67l-.06.1-.06-.1H1628l1.75,3,1.66,2.86-1.68,2.94-3.36,5.88L1625,17.11l-8,2.23,0-.07h-.06l-2.14-8.06,1.39-2.43,3.4-5.93L1621.19,0h-6.65l-3.4,5.93-2.56,4.48,2.76,10.42L1601,23.71l-2.57,4.49-3.18,5.55v.33l-3.36-5.88-2.58-4.49-10.21-2.84,2.76-10.46-2.56-4.48L1575.85,0h-6.64l1.64,2.86,3.4,5.93,1.39,2.43-2.14,8.11-.23-.06v0l-7.87-2.18-1.4-2.43-5-8.82L1560.61,3l1.75-3h-6.67l-.06.1-.06-.1h-6.66l1.74,3,1.66,2.86-1.67,2.94-3.37,5.88-1.39,2.43-8.11,2.24-2.15-8.13L1537,8.79l3.4-5.93L1542.05,0h-6.63L1532,5.93l-2.57,4.48,2.71,10.31-10.77,3-2.56,4.49-3.37,5.88-3.37-5.88-2.56-4.49-10.4-2.88,2.77-10.42-2.58-4.48L1495.93,0h-6.63l1.64,2.86,3.39,5.93,1.4,2.43-2.14,8.06h-.06l0,.07-8-2.23-1.4-2.43-5-8.82L1480.69,3l1.75-3h-6.67l-.06.1-.06-.1H1469l1.75,3,1.67,2.86-1.68,2.93-3.37,5.88L1466,17.1l-8.07,2.24,0-.08h0l-2.13-8,1.39-2.43,3.4-5.93L1462.13,0h-6.64l-3.4,5.93-2.56,4.48,2.75,10.41-10.41,2.89-2.57,4.49-3.37,5.88-3.37-5.88L1430,23.71l-10.75-3L1422,10.41l-2.57-4.48L1416,0h-6.63L1411,2.86l3.4,5.93,1.39,2.43-2.14,8.13-8.11-2.24-1.39-2.43-3.36-5.88-1.69-2.94L1400.75,3l1.75-3h-6.67l-.06.1-.06-.1H1389l1.75,3,1.68,2.86-1.69,2.94-3.37,5.88L1386,17.11l-8,2.23,0-.07h-.06l-2.14-8.06,1.39-2.43,3.41-5.93L1382.19,0h-6.63l-3.4,5.93-2.57,4.48,2.76,10.42L1362,23.71l-2.56,4.49L1356,34.08l-3.37-5.88-2.57-4.49-10.75-3,2.73-10.31-2.57-4.48L1336.08,0h-6.62l1.63,2.86,3.4,5.93,1.39,2.43-2.14,8.13-8.11-2.24-1.39-2.43-3.38-5.88-1.67-2.94L1320.85,3l1.75-3h-6.67l-.06.1-.06-.1h-6.67l1.75,3,1.66,2.86-1.67,2.94-3.37,5.88-1.39,2.43L1298,19.35l-2.15-8.13,1.39-2.43,3.41-5.93L1302.29,0h-6.64l-3.4,5.93-2.56,4.48,2.74,10.38-10.53,2.92-2.57,4.49L1276,34.08l-3.38-5.88L1270,23.71l-10.63-2.94,2.75-10.36-2.58-4.48L1256.18,0h-6.63l1.64,2.86,3.4,5.93,1.39,2.43-2.15,8.13-8.11-2.24-1.4-2.43-5-8.82L1240.94,3l1.75-3H1236l-.06.1-.06-.1h-6.66L1231,3l1.66,2.86-5,8.82-1.39,2.43-8,2.23,0-.07h-.06L1216,11.22l1.39-2.43,3.4-5.93L1222.39,0h-6.65l-3.4,5.93-2.56,4.48,2.76,10.42-10.39,2.88-2.57,4.49-3.18,5.55v.33L1193,28.2l-2.58-4.49-10.21-2.84L1183,10.41l-2.56-4.48L1177.05,0h-6.64l1.64,2.86,3.4,5.93,1.39,2.43-2.14,8.11-.23-.06v0l-7.87-2.18-1.4-2.43-5-8.82L1161.81,3l1.75-3h-6.67l-.06.1-.06-.1h-6.66l1.74,3,1.66,2.86-1.67,2.94-3.37,5.88-1.39,2.43L1139,19.35l-2.15-8.13,1.39-2.43,3.4-5.93L1143.25,0h-6.63l-3.4,5.93-2.57,4.48,2.71,10.31-10.77,3L1120,28.2l-3.37,5.88-3.37-5.88-2.56-4.49-10.4-2.88,2.77-10.42-2.58-4.48L1097.13,0h-6.63l1.64,2.86,3.39,5.93,1.4,2.43-2.14,8.06h-.06l0,.07-8-2.23-1.4-2.43-5-8.82L1081.89,3l1.75-3H1077l-.06.1-.06-.1h-6.67l1.75,3,1.67,2.86-1.68,2.93-3.37,5.88-1.39,2.43-8.07,2.24,0-.08h0l-2.13-8,1.39-2.43,3.4-5.93L1063.33,0h-6.64l-3.4,5.93-2.56,4.48,2.75,10.41-10.41,2.89-2.57,4.49-3.37,5.88-3.37-5.88-2.57-4.49-10.75-3,2.73-10.31-2.57-4.48L1017.19,0h-6.63l1.63,2.86,3.4,5.93,1.39,2.43-2.14,8.13-8.11-2.24-1.39-2.43L1002,8.8l-1.69-2.94L1002,3l1.75-3H997L997,.1l-.06-.1h-6.67L992,3l1.68,2.86L992,8.8l-3.37,5.88-1.39,2.43-8,2.23,0-.07h-.06L977,11.22l1.39-2.43,3.41-5.93L983.39,0h-6.63l-3.4,5.93-2.57,4.48,2.76,10.42-10.39,2.88L960.6,28.2l-3.38,5.88-3.37-5.88-2.57-4.49-10.75-3,2.73-10.31-2.57-4.48L937.28,0h-6.62l1.63,2.86,3.4,5.93,1.39,2.43-2.14,8.13-8.11-2.24-1.39-2.43L922.06,8.8l-1.67-2.94L922.05,3l1.75-3h-6.67l-.06.1L917,0h-6.67l1.75,3,1.66,2.86L912.08,8.8l-3.37,5.88-1.39,2.43-8.11,2.24-2.15-8.13,1.39-2.43,3.41-5.93L903.49,0h-6.64l-3.4,5.93-2.56,4.48,2.74,10.38L883.1,23.71l-2.57,4.49-3.36,5.88-3.38-5.88-2.56-4.49L860.6,20.77l2.75-10.36-2.58-4.48L857.38,0h-6.63l1.64,2.86,3.4,5.93,1.39,2.43L855,19.35l-8.11-2.24-1.4-2.43-5-8.82L842.14,3l1.75-3h-6.67l-.06.1L837.1,0h-6.66l1.75,3,1.66,2.86-5,8.82-1.39,2.43-8,2.23,0-.07h-.06l-2.14-8.06,1.39-2.43,3.4-5.93L823.59,0h-6.65l-3.4,5.93L811,10.41l2.76,10.42-10.39,2.88-2.57,4.49-3.18,5.55v.33l-3.36-5.88-2.58-4.49-10.21-2.84,2.76-10.46-2.56-4.48L778.25,0h-6.64l1.64,2.86,3.4,5.93L778,11.22l-2.14,8.11-.23-.06v0l-7.87-2.18-1.4-2.43-5-8.82L763,3l1.75-3h-6.67L758,.1,758,0h-6.66l1.74,3,1.66,2.86L753,8.8l-3.37,5.88-1.39,2.43-8.11,2.24L738,11.22l1.39-2.43,3.4-5.93L744.45,0h-6.63l-3.4,5.93-2.57,4.48,2.71,10.31-10.77,3-2.56,4.49-3.37,5.88-3.37-5.88-2.56-4.49-10.4-2.88,2.77-10.42-2.58-4.48L698.33,0H691.7l1.64,2.86,3.39,5.93,1.4,2.43L696,19.28h-.06l0,.07-8-2.23-1.4-2.43-5-8.82L683.09,3l1.75-3h-6.67l-.06.1-.06-.1h-6.67l1.75,3,1.67,2.86-1.68,2.93-3.37,5.88-1.39,2.43-8.07,2.24,0-.08h0l-2.13-8,1.39-2.43,3.4-5.93L664.53,0h-6.64l-3.4,5.93-2.56,4.48,2.75,10.41-10.41,2.89L641.7,28.2l-3.37,5.88L635,28.2l-2.57-4.49-10.75-3,2.73-10.31L621.8,5.93,618.39,0h-6.63l1.63,2.86,3.4,5.93,1.39,2.43L616,19.35l-8.11-2.24-1.39-2.43L603.18,8.8l-1.69-2.94L603.15,3l1.75-3h-6.67l-.06.1-.06-.1h-6.67l1.75,3,1.68,2.86L593.18,8.8l-3.37,5.88-1.39,2.43-8,2.23,0-.07h-.06l-2.14-8.06,1.39-2.43L583,2.86,584.59,0H578l-3.4,5.93L572,10.41l2.76,10.42-10.39,2.88L561.8,28.2l-3.38,5.88-3.37-5.88-2.57-4.49-10.75-3,2.73-10.31-2.57-4.48L538.48,0h-6.62l1.63,2.86,3.4,5.93,1.39,2.43-2.14,8.13L528,17.11l-1.39-2.43L523.26,8.8l-1.67-2.94L523.25,3,525,0h-6.67l-.06.1-.06-.1h-6.67l1.75,3L515,5.86,513.28,8.8l-3.37,5.88-1.39,2.43-8.11,2.24-2.15-8.13,1.39-2.43,3.41-5.93L504.69,0h-6.64l-3.4,5.93-2.56,4.48,2.74,10.38L484.3,23.71l-2.57,4.49-3.36,5.88L475,28.2l-2.56-4.49L461.8,20.77l2.75-10.36L462,5.93,458.58,0H452l1.64,2.86L457,8.79l1.39,2.43-2.15,8.13-8.11-2.24-1.4-2.43-5-8.82L443.34,3l1.75-3h-6.67l-.06.1L438.3,0h-6.66l1.75,3,1.66,2.86-5,8.82-1.39,2.43-8.05,2.23,0-.07h-.06l-2.14-8.06,1.39-2.43,3.4-5.93L424.79,0h-6.65l-3.4,5.93-2.56,4.48,2.76,10.42-10.39,2.88L402,28.2l-3.18,5.55v.33l-3.36-5.88-2.58-4.49-10.21-2.84,2.76-10.46-2.56-4.48L379.45,0h-6.64l1.64,2.86,3.4,5.93,1.39,2.43-2.14,8.11-.23-.06v0L369,17.11l-1.4-2.43-5-8.82L364.21,3,366,0h-6.67l-.06.1-.06-.1h-6.66l1.74,3,1.66,2.86L354.24,8.8l-3.37,5.88-1.39,2.43-8.11,2.24-2.15-8.13,1.39-2.43L344,2.86,345.65,0H339l-3.4,5.93-2.57,4.48,2.71,10.31-10.77,3-2.56,4.49-3.37,5.88-3.37-5.88-2.56-4.49-10.4-2.88,2.77-10.42-2.58-4.48L299.53,0H292.9l1.64,2.86,3.39,5.93,1.4,2.43-2.14,8.06h-.06l0,.07-8-2.23-1.4-2.43-5-8.82L284.29,3,286,0h-6.67l-.06.1-.06-.1h-6.67l1.75,3L276,5.86l-1.68,2.93L271,14.67l-1.39,2.43-8.07,2.24,0-.08h0l-2.13-8,1.39-2.43,3.4-5.93L265.73,0h-6.64l-3.4,5.93-2.56,4.48,2.75,10.41-10.41,2.89L242.9,28.2l-3.37,5.88-3.37-5.88-2.57-4.49-10.75-3,2.73-10.31L223,5.93,219.59,0H213l1.63,2.86L218,8.79l1.39,2.43-2.14,8.13-8.11-2.24-1.39-2.43L204.38,8.8l-1.69-2.94L204.35,3l1.75-3h-6.67l-.06.1-.06-.1h-6.67l1.75,3,1.68,2.86L194.38,8.8,191,14.68l-1.39,2.43-8,2.23,0-.07h-.06l-2.14-8.06,1.39-2.43,3.41-5.93L185.79,0h-6.63l-3.4,5.93-2.57,4.48L176,20.83l-10.39,2.88L163,28.2l-3.38,5.88-3.37-5.88-2.57-4.49-10.75-3,2.73-10.31-2.57-4.48L139.68,0h-6.62l1.63,2.86,3.4,5.93,1.39,2.43-2.14,8.13-8.11-2.24-1.39-2.43L124.46,8.8l-1.67-2.94L124.45,3l1.75-3h-6.67l-.06.1-.06-.1h-6.67l1.75,3,1.66,2.86L114.48,8.8l-3.37,5.88-1.39,2.43-8.11,2.24-2.15-8.13,1.39-2.43,3.41-5.93L105.89,0H99.25l-3.4,5.93-2.56,4.48L96,20.79,85.5,23.71,82.93,28.2l-3.36,5.88L76.19,28.2l-2.56-4.49L63,20.77l2.75-10.36L63.17,5.93,59.78,0H53.15l1.64,2.86,3.4,5.93,1.39,2.43-2.15,8.13-8.11-2.24-1.4-2.43-5-8.82L44.54,3l1.75-3H39.62l-.06.1L39.5,0H32.84l1.75,3,1.66,2.86L34.57,8.8l-3.36,5.88-1.39,2.43-8,2.23,0-.07h-.06l-2.14-8.06,1.39-2.43,3.4-5.93L26,0H19.34l-3.4,5.93-2.56,4.48,2.76,10.42L5.75,23.71,3.18,28.2,0,33.75V46l3.25,5.59,6.81,0,6.67,0h13l.84.83,5.07,5,4.1,4,4.09-4L49.7,51.5H62.65l6.66,0,6.81,0,3.45-5.92L83,51.54l6.81,0,6.66,0h13l6,5.91h0l4.17,4.12,4.17-4.12,6-5.91H142.7l6.67,0,6.81,0,3.45-5.92,3.43,5.92,6.82,0,6.65,0h12.95l1.73,1.7,4.26,4.21,4.11,4.05,4.09-4.05,6-5.91h13l6.66,0,6.81,0,3.45-5.92L243,51.54l6.81,0,6.67,0H269.4l.1.1,5.7,5.63,4.11,4.05,9.9-9.78h12.94l6.66,0,6.82,0,3.44-5.92,3.44,5.92,6.81,0,6.67,0h12.95l.55.55,5.35,5.29,4.1,4,4.1-4.05,5.9-5.83h12.95l6.66,0,6.81,0,3.44-5.92V46l3.25,5.59,6.81,0,6.67,0h13l.84.83,5.07,5,4.1,4,4.09-4,5.92-5.84h12.95l6.66,0,6.81,0,3.45-5.92,3.44,5.92,6.81,0,6.66,0h13l6,5.91h0l4.17,4.12,4.17-4.12,6-5.91h13l6.67,0,6.81,0,3.45-5.92,3.43,5.92,6.82,0,6.65,0h12.95L590,53.2l4.26,4.21,4.11,4.05,4.09-4.05,6-5.91h12.95l6.66,0,6.81,0,3.45-5.92,3.44,5.92,6.81,0,6.67,0h13l.1.1,5.7,5.63,4.11,4.05L688,51.5H701l6.66,0,6.82,0,3.44-5.92,3.44,5.92,6.81,0,6.67,0h13l.55.55,5.35,5.29,4.1,4,4.1-4.05,5.9-5.83h13l6.66,0,6.81,0,3.44-5.92V46l3.25,5.59,6.81,0,6.67,0h12.95l.84.83,5.07,5,4.1,4,4.09-4,5.92-5.84h13l6.66,0,6.81,0,3.45-5.92,3.44,5.92,6.81,0,6.66,0H907l6,5.91h0l4.17,4.12,4.17-4.12,6-5.91H940.3l6.67,0,6.81,0,3.45-5.92,3.43,5.92,6.82,0,6.65,0h13l1.73,1.7,4.26,4.21,4.11,4.05,4.09-4.05,6-5.91h13l6.66,0,6.81,0,3.45-5.92,3.44,5.92,6.81,0,6.67,0h13l.1.1,5.7,5.63,4.11,4.05,9.9-9.78h12.94l6.66,0,6.82,0,3.44-5.92,3.44,5.92,6.81,0,6.67,0h13l.55.55,5.35,5.29,4.1,4,4.1-4.05,5.9-5.83h13l6.66,0,6.81,0,3.44-5.92V46l3.25,5.59,6.81,0,6.67,0h12.95l.84.83,5.07,5,4.1,4,4.09-4,5.92-5.84h13l6.66,0,6.81,0,3.45-5.92,3.44,5.92,6.81,0,6.66,0h12.95l6,5.91h0l4.17,4.12,4.17-4.12,6-5.91h12.95l6.67,0,6.81,0,3.45-5.92,3.43,5.92,6.82,0,6.65,0h13l1.73,1.7,4.26,4.21,4.11,4.05,4.09-4.05,6-5.91h13l6.66,0,6.81,0,3.45-5.92,3.44,5.92,6.81,0,6.67,0h13l.1.1,5.7,5.63,4.11,4.05,9.9-9.78h12.94l6.66,0,6.82,0,3.44-5.92,3.44,5.92,6.81,0,6.67,0h12.95l.55.55,5.35,5.29,4.1,4,4.1-4.05,5.9-5.83h13l6.66,0,6.81,0,3.44-5.92V46l3.25,5.59,6.81,0,6.67,0h13l.84.83,5.07,5,4.1,4,4.09-4,5.92-5.84h12.95l6.66,0,6.81,0,3.45-5.92,3.44,5.92,6.81,0,6.66,0h13l6,5.91h0l4.17,4.12,4.17-4.12,6-5.91h13l6.67,0,6.81,0,3.45-5.92,3.43,5.92,6.82,0,6.65,0h13l1.73,1.7,4.26,4.21,4.11,4.05,4.09-4.05,6-5.91h13l6.66,0,6.81,0,3.45-5.92,3.44,5.92,6.81,0,6.67,0h12.95l.1.1,5.7,5.63,4.11,4.05,9.9-9.78h12.94l6.66,0,6.82,0,3.44-5.92,2.83,4.87V29.12ZM18.44,36.94,15,42.88l-1.65,2.87H6.55L4.78,42.72,3.12,39.86,4.8,36.94l3.37-5.88,1.39-2.43,8.06-2.24v.07l.06,0,2.14,8.07Zm28.89,8.8-7.64,7.55L32,45.74H20l3.4-5.93L26,35.32,23.24,24.91,33.63,22l2.58-4.48,3.36-5.88,3.37,5.88L45.5,22l10.62,3L53.38,35.32l2.56,4.48,3.41,5.94Zm27.25-3-1.77,3.05H66l-1.64-2.87-3.4-5.94-1.39-2.43,2.15-8.13,8.1,2.25,1.39,2.43,3.38,5.88,1.68,2.92Zm23.61-5.78-3.4,5.94-1.64,2.87H86.32l-1.77-3.05-1.67-2.86,1.68-2.92,3.38-5.88,1.39-2.43,8.1-2.25,2.15,8.13Zm29.19,8.8-7.79,7.7-7.79-7.7h-12l3.41-5.93,2.56-4.49L103,25,113.54,22l2.57-4.48,3.36-5.87,3.37,5.87L125.4,22l10.76,3-2.73,10.31L136,39.81l3.4,5.93Zm27.27-3-1.79,3.05H146l-1.65-2.87L141,36.94l-1.39-2.43,2.15-8.13,8.11,2.25,1.39,2.43,3.38,5.88,1.67,2.92Zm23.6-5.78-3.4,5.94-1.65,2.87h-6.83l-1.76-3.05-1.67-2.86,1.68-2.92L168,31.06l1.4-2.43,8-2.24,0,.07.07,0,2.14,8.07Zm29,8.8-7.72,7.62-7.71-7.62h-12l3.41-5.94,2.56-4.48L183.06,24.9,193.45,22,196,17.54l3.37-5.88,3.36,5.88L205.31,22l10.76,3-2.73,10.32,2.57,4.48,3.4,5.94Zm27.26-3-1.78,3.05h-6.83l-1.64-2.87-3.41-5.94-1.39-2.43,2.16-8.13,8.1,2.25,1.4,2.43,3.37,5.88,1.67,2.92Zm23.61-5.78-3.41,5.94-1.64,2.87h-6.84l-1.76-3.06-1.66-2.85,1.67-2.92,3.38-5.88,1.39-2.43,8.07-2.25,0,.08h0l2.13,8.06Zm28.68,8.8-7.54,7.44-7.52-7.44h-12l3.41-5.94,2.57-4.48L263,24.91,273.39,22,276,17.54l3.36-5.88,3.37,5.88L285.25,22l10.39,2.89-2.76,10.42,2.57,4.48,3.4,5.94Zm27.25-3-1.77,3.05h-6.84l-1.64-2.87-3.4-5.94-1.39-2.43,2.13-8.07.07,0,0-.07,8,2.24,1.41,2.43,3.36,5.88,1.68,2.92Zm23.6-5.78-3.4,5.94-1.64,2.87h-6.83l-1.77-3.05-1.66-2.86,1.67-2.92,3.38-5.88,1.39-2.43,8.11-2.25,2.14,8.13Zm28.88,8.8-7.64,7.54-7.63-7.54h-12l3.41-5.94,2.57-4.48L342.54,25l10.77-3,2.56-4.47,3.36-5.88,3.37,5.88L365.16,22l10.23,2.84-2.78,10.47,2.57,4.48,3.41,5.94Zm27.25-3-1.76,3.05h-6.83l-1.65-2.87-3.39-5.94-1.41-2.43,2.15-8.11.24.07v0L389,28.63l1.4,2.43,3.37,5.88,1.68,2.92Zm23.42-5.78-3.41,5.94-1.65,2.87h-6.83l-1.77-3.05-1.66-2.86,1.68-2.92L407,31.06l1.39-2.43,8.06-2.24v.07l.06,0,2.14,8.07Zm28.89,8.8-7.64,7.55-7.65-7.55h-12l3.4-5.93,2.56-4.49L422,24.91,432.43,22,435,17.54l3.36-5.88,3.37,5.88L444.3,22l10.62,3-2.74,10.35,2.56,4.48,3.41,5.94Zm27.25-3-1.77,3.05h-6.83l-1.64-2.87-3.4-5.94-1.39-2.43,2.15-8.13,8.1,2.25L470,31.06l3.38,5.88,1.68,2.92ZM497,36.94l-3.4,5.94L492,45.75h-6.83l-1.77-3.05-1.67-2.86,1.68-2.92,3.38-5.88,1.39-2.43,8.1-2.25,2.15,8.13Zm29.19,8.8-7.79,7.7-7.79-7.7h-12L502,39.81l2.56-4.49L501.81,25,512.34,22l2.57-4.48,3.36-5.87,3.37,5.87L524.2,22,535,25l-2.73,10.31,2.57,4.49,3.4,5.93Zm27.27-3-1.79,3.05h-6.82l-1.65-2.87-3.4-5.94-1.39-2.43,2.15-8.13,8.11,2.25,1.39,2.43,3.38,5.88,1.67,2.92Zm23.6-5.78-3.4,5.94L572,45.75h-6.83l-1.76-3.05-1.67-2.86,1.68-2.92,3.37-5.88,1.4-2.43,8-2.24,0,.07.07,0,2.14,8.07Zm29,8.8-7.72,7.62-7.71-7.62h-12l3.41-5.94,2.56-4.48L581.86,24.9,592.25,22l2.56-4.47,3.37-5.88,3.36,5.88L604.11,22l10.76,3-2.73,10.32,2.57,4.48,3.4,5.94Zm27.26-3-1.78,3.05h-6.83l-1.64-2.87-3.41-5.94-1.39-2.43,2.16-8.13,8.1,2.25,1.4,2.43,3.37,5.88L635,39.86ZM657,36.94l-3.41,5.94-1.64,2.87h-6.84l-1.76-3.06-1.66-2.85,1.67-2.92,3.38-5.88,1.39-2.43,8.07-2.25,0,.08h0l2.13,8.06Zm28.68,8.8-7.54,7.44-7.52-7.44h-12L662,39.8l2.57-4.48-2.76-10.41L672.19,22l2.57-4.47,3.36-5.88,3.37,5.88L684.05,22l10.39,2.89-2.76,10.42,2.57,4.48,3.4,5.94Zm27.25-3-1.77,3.05h-6.84l-1.64-2.87-3.4-5.94-1.39-2.43L700,26.44l.07,0,0-.07,8,2.24,1.41,2.43,3.36,5.88,1.68,2.92Zm23.6-5.78-3.4,5.94-1.64,2.87h-6.83l-1.77-3.05-1.66-2.86,1.67-2.92,3.38-5.88,1.39-2.43,8.11-2.25,2.14,8.13Zm28.88,8.8-7.64,7.54-7.63-7.54h-12l3.41-5.94,2.57-4.48L741.34,25l10.77-3,2.56-4.47L758,11.66l3.37,5.88L764,22l10.23,2.84-2.78,10.47L774,39.8l3.41,5.94Zm27.25-3-1.76,3.05H784l-1.65-2.87L779,36.94l-1.41-2.43,2.15-8.11.24.07v0l7.86,2.18,1.4,2.43,3.37,5.88,1.68,2.92ZM816,36.94l-3.41,5.94L811,45.75h-6.83l-1.77-3.05-1.66-2.86,1.68-2.92,3.37-5.88,1.39-2.43,8.06-2.24v.07l.06,0,2.14,8.07Zm28.89,8.8-7.64,7.55-7.65-7.55h-12l3.4-5.93,2.56-4.49-2.76-10.41L831.23,22l2.58-4.48,3.36-5.88,3.37,5.88L843.1,22l10.62,3L851,35.32l2.56,4.48L857,45.74Zm27.25-3-1.77,3.05h-6.83l-1.64-2.87-3.4-5.94-1.39-2.43,2.15-8.13,8.1,2.25,1.39,2.43,3.38,5.88,1.68,2.92Zm23.61-5.78-3.4,5.94-1.64,2.87h-6.83l-1.77-3.05-1.67-2.86,1.68-2.92,3.38-5.88,1.39-2.43,8.1-2.25,2.15,8.13ZM925,45.74l-7.79,7.7-7.79-7.7h-12l3.41-5.93,2.56-4.49L900.61,25,911.14,22l2.57-4.48,3.36-5.87,3.37,5.87L923,22l10.76,3L931,35.32l2.57,4.49,3.4,5.93Zm27.27-3-1.79,3.05h-6.82L942,42.88l-3.4-5.94-1.39-2.43,2.15-8.13,8.11,2.25,1.39,2.43,3.38,5.88,1.67,2.92Zm23.6-5.78-3.4,5.94-1.65,2.87H964l-1.76-3.05-1.67-2.86,1.68-2.92,3.37-5.88,1.4-2.43,8-2.24,0,.07.07,0,2.14,8.07Zm29,8.8-7.72,7.62-7.71-7.62h-12l3.41-5.94,2.56-4.48L980.66,24.9,991.05,22l2.56-4.47L997,11.66l3.36,5.88,2.57,4.47,10.76,3-2.73,10.32,2.57,4.48,3.4,5.94Zm27.26-3-1.78,3.05h-6.83l-1.64-2.87-3.41-5.94-1.39-2.43,2.16-8.13,8.1,2.25,1.4,2.43,3.37,5.88,1.67,2.92Zm23.61-5.78-3.41,5.94-1.64,2.87h-6.84l-1.76-3.06-1.66-2.85,1.67-2.92,3.38-5.88,1.39-2.43,8.07-2.25,0,.08h0l2.13,8.06Zm28.68,8.8-7.54,7.44-7.52-7.44h-12l3.41-5.94,2.57-4.48-2.76-10.41L1071,22l2.57-4.47,3.36-5.88,3.37,5.88,2.56,4.47,10.39,2.89-2.76,10.42,2.57,4.48,3.4,5.94Zm27.25-3-1.77,3.05h-6.84l-1.64-2.87-3.4-5.94-1.39-2.43,2.13-8.07.07,0,0-.07,8,2.24,1.41,2.43,3.36,5.88,1.68,2.92Zm23.6-5.78-3.4,5.94-1.64,2.87h-6.83l-1.77-3.05L1120,39.86l1.67-2.92,3.38-5.88,1.39-2.43,8.11-2.25,2.14,8.13Zm28.88,8.8-7.64,7.54-7.63-7.54h-12l3.41-5.94,2.57-4.48L1140.14,25l10.77-3,2.56-4.47,3.36-5.88,3.37,5.88,2.56,4.47L1173,24.85l-2.78,10.47,2.57,4.48,3.41,5.94Zm27.25-3-1.76,3.05h-6.83l-1.65-2.87-3.39-5.94-1.41-2.43,2.15-8.11.24.07v0l7.86,2.18,1.4,2.43,3.37,5.88,1.68,2.92Zm23.42-5.78-3.41,5.94-1.65,2.87H1203l-1.77-3.05-1.66-2.86,1.68-2.92,3.37-5.88,1.39-2.43,8.06-2.24v.07l.06,0,2.14,8.07Zm28.89,8.8-7.64,7.55-7.65-7.55h-12l3.4-5.93,2.56-4.49-2.76-10.41L1230,22l2.58-4.48,3.36-5.88,3.37,5.88L1241.9,22l10.62,3-2.74,10.35,2.56,4.48,3.41,5.94Zm27.25-3-1.77,3.05h-6.83l-1.64-2.87-3.4-5.94L1256,34.51l2.15-8.13,8.1,2.25,1.39,2.43,3.38,5.88,1.68,2.92Zm23.61-5.78-3.4,5.94-1.64,2.87h-6.83L1281,42.72l-1.67-2.86,1.68-2.92,3.38-5.88,1.39-2.43,8.1-2.25,2.15,8.13Zm29.19,8.8-7.79,7.7-7.79-7.7h-12l3.41-5.93,2.56-4.49L1299.41,25,1309.94,22l2.57-4.48,3.36-5.87,3.37,5.87L1321.8,22l10.76,3-2.73,10.31,2.57,4.49,3.4,5.93Zm27.27-3-1.79,3.05h-6.82l-1.65-2.87-3.4-5.94L1336,34.51l2.15-8.13,8.11,2.25,1.39,2.43,3.38,5.88,1.67,2.92Zm23.6-5.78-3.4,5.94-1.65,2.87h-6.83L1361,42.72l-1.67-2.86,1.68-2.92,3.37-5.88,1.4-2.43,8-2.24,0,.07.07,0,2.14,8.07Zm29,8.8L1396,53.36l-7.71-7.62h-12l3.41-5.94,2.56-4.48-2.76-10.42L1389.85,22l2.56-4.47,3.37-5.88,3.36,5.88,2.57,4.47,10.76,3-2.73,10.32,2.57,4.48,3.4,5.94Zm27.26-3-1.78,3.05h-6.83l-1.64-2.87-3.41-5.94-1.39-2.43,2.16-8.13,8.1,2.25,1.4,2.43,3.37,5.88,1.67,2.92Zm23.61-5.78-3.41,5.94-1.64,2.87h-6.84l-1.76-3.06-1.66-2.85,1.67-2.92,3.38-5.88,1.39-2.43,8.07-2.25,0,.08h0l2.13,8.06Zm28.68,8.8-7.54,7.44-7.52-7.44h-12l3.41-5.94,2.57-4.48-2.76-10.41,10.41-2.9,2.57-4.47,3.36-5.88,3.37,5.88,2.56,4.47L1492,24.9l-2.76,10.42,2.57,4.48,3.4,5.94Zm27.25-3-1.77,3.05h-6.84l-1.64-2.87-3.4-5.94-1.39-2.43,2.13-8.07.07,0,0-.07,8,2.24,1.41,2.43,3.36,5.88,1.68,2.92Zm23.6-5.78-3.4,5.94-1.64,2.87h-6.83l-1.77-3.05-1.66-2.86,1.67-2.92,3.38-5.88,1.39-2.43,8.11-2.25,2.14,8.13Zm28.88,8.8-7.64,7.54-7.63-7.54h-12l3.41-5.94,2.57-4.48L1538.94,25l10.77-3,2.56-4.47,3.36-5.88,3.37,5.88,2.56,4.47,10.23,2.84L1569,35.32l2.57,4.48,3.41,5.94Zm27.25-3-1.76,3.05h-6.83L1580,42.88l-3.39-5.94-1.41-2.43,2.15-8.11.24.07v0l7.86,2.18,1.4,2.43,3.37,5.88,1.68,2.92Zm23.42-5.78-3.41,5.94-1.65,2.87h-6.83L1600,42.72l-1.66-2.86,1.68-2.92,3.37-5.88,1.39-2.43,8.06-2.24v.07l.06,0,2.14,8.07Zm28.89,8.8-7.64,7.55-7.65-7.55h-12l3.4-5.93,2.56-4.49-2.76-10.41L1628.83,22l2.58-4.48,3.36-5.88,3.37,5.88L1640.7,22l10.62,3-2.74,10.35,2.56,4.48,3.41,5.94Zm27.25-3L1668,45.77h-6.83l-1.64-2.87-3.4-5.94-1.39-2.43,2.15-8.13,8.1,2.25,1.39,2.43,3.38,5.88,1.68,2.92Zm23.61-5.78-3.4,5.94-1.64,2.87h-6.83l-1.77-3.05-1.67-2.86,1.68-2.92,3.38-5.88,1.39-2.43,8.1-2.25,2.15,8.13Zm29.19,8.8-7.79,7.7-7.79-7.7h-12l3.41-5.93,2.56-4.49L1698.21,25,1708.74,22l2.57-4.48,3.36-5.87,3.37,5.87L1720.6,22l10.76,3-2.73,10.31,2.57,4.49,3.4,5.93Zm27.27-3-1.79,3.05h-6.82l-1.65-2.87-3.4-5.94-1.39-2.43,2.15-8.13,8.11,2.25,1.39,2.43,3.38,5.88,1.67,2.92Zm23.6-5.78-3.4,5.94-1.65,2.87h-6.83l-1.76-3.05-1.67-2.86,1.68-2.92,3.37-5.88,1.4-2.43,8-2.24,0,.07.07,0,2.14,8.07Zm29,8.8-7.72,7.62-7.71-7.62h-12l3.41-5.94,2.56-4.48-2.76-10.42L1788.65,22l2.56-4.47,3.37-5.88,3.36,5.88,2.57,4.47,10.76,3-2.73,10.32,2.57,4.48,3.4,5.94Zm27.26-3L1828,45.77h-6.83l-1.64-2.87-3.41-5.94-1.39-2.43,2.16-8.13,8.1,2.25,1.4,2.43,3.37,5.88,1.67,2.92Zm23.61-5.78L1850,42.88l-1.64,2.87h-6.84l-1.76-3.06-1.66-2.85,1.67-2.92,3.38-5.88,1.39-2.43,8.07-2.25,0,.08h0l2.13,8.06Zm28.68,8.8-7.54,7.44L1867,45.74h-12l3.41-5.94,2.57-4.48-2.76-10.41,10.41-2.9,2.57-4.47,3.36-5.88,3.37,5.88,2.56,4.47,10.39,2.89-2.76,10.42,2.57,4.48,3.4,5.94Zm27.25-3-1.77,3.05h-6.84L1899,42.88l-3.4-5.94-1.39-2.43,2.13-8.07.07,0,0-.07,8,2.24,1.41,2.43,3.36,5.88,1.68,2.92Z"/></g></g></svg>