<svg xmlns="http://www.w3.org/2000/svg" viewBox="0 0 1921.59 87.2"><defs><style>.cls-1{fill:#b49b4b;opacity:0.15;}</style></defs><g id="Слой_2" data-name="Слой 2"><g id="Layer_1" data-name="Layer 1"><polygon class="cls-1" points="1790.7 38.76 1789.31 36.33 1781.27 34.1 1781.25 34.17 1781.19 34.16 1779.05 42.22 1780.44 44.65 1783.85 50.58 1785.49 53.45 1788.82 53.47 1792.31 53.48 1794.08 50.44 1795.76 47.58 1794.07 44.64 1790.7 38.76"/><polygon class="cls-1" points="1802.5 59.24 1799.06 53.34 1795.62 59.24 1788.81 59.23 1792.21 65.12 1788.81 71.01 1795.62 70.99 1799.06 76.91 1802.51 70.99 1809.32 71.01 1805.91 65.12 1809.32 59.23 1802.5 59.24"/><polygon class="cls-1" points="1795.75 82.66 1794.09 79.8 1792.32 76.76 1788.83 76.77 1785.49 76.77 1783.84 79.65 1780.45 85.59 1779.52 87.2 1793.14 87.2 1794.07 85.58 1795.75 82.66"/><polygon class="cls-1" points="1782.15 59.2 1769.2 59.2 1763.21 65.11 1769.2 71.02 1782.15 71.02 1783.83 68.13 1785.56 65.12 1783.83 62.11 1782.15 59.2"/><polygon class="cls-1" points="1802.43 35.9 1805 31.43 1815.76 28.44 1813.03 18.12 1815.6 13.64 1819 7.7 1806.98 7.7 1799.26 0.08 1791.55 7.7 1779.54 7.7 1782.95 13.64 1785.51 18.12 1782.75 28.54 1793.14 31.43 1795.7 35.9 1799.07 41.78 1802.43 35.9"/><polygon class="cls-1" points="1805.81 53.48 1809.31 53.47 1812.64 53.45 1814.28 50.58 1817.68 44.65 1819.07 42.22 1816.93 34.09 1808.82 36.33 1807.43 38.76 1804.07 44.64 1802.38 47.58 1804.04 50.44 1805.81 53.48"/><polygon class="cls-1" points="1778.85 53.44 1775.45 47.51 1772.88 43.03 1775.64 32.61 1765.25 29.73 1762.69 25.24 1759.31 19.36 1755.94 25.24 1753.37 29.73 1742.62 32.72 1745.35 43.03 1742.78 47.51 1739.37 53.44 1751.39 53.44 1759.11 61.07 1766.83 53.44 1778.85 53.44"/><polygon class="cls-1" points="1764.31 16.5 1767.68 22.38 1769.08 24.81 1777.11 27.05 1777.13 26.98 1777.2 27 1779.34 18.93 1777.94 16.5 1774.54 10.56 1772.89 7.69 1769.55 7.68 1766.06 7.67 1764.3 10.72 1762.63 13.58 1764.31 16.5"/><polygon class="cls-1" points="1736.08 59.2 1734.4 62.11 1732.66 65.12 1734.4 68.13 1736.08 71.02 1736.08 71.03 1749.03 71.03 1755.01 65.12 1749.03 59.2 1736.08 59.2"/><polygon class="cls-1" points="1821.35 27.06 1829.45 24.81 1830.85 22.38 1834.22 16.5 1835.89 13.58 1834.24 10.72 1832.46 7.67 1828.97 7.68 1825.63 7.69 1823.99 10.56 1820.58 16.5 1819.19 18.93 1821.35 27.06"/><polygon class="cls-1" points="1862.09 59.2 1849.13 59.2 1843.15 65.11 1849.13 71.02 1862.09 71.02 1863.76 68.13 1865.5 65.12 1863.76 62.11 1862.09 59.2"/><polygon class="cls-1" points="1894.25 62.11 1892.5 65.12 1894.25 68.13 1895.92 71.02 1895.92 71.03 1908.87 71.03 1914.85 65.12 1908.87 59.2 1895.92 59.2 1894.25 62.11"/><polygon class="cls-1" points="1912.01 7.67 1908.51 7.68 1905.17 7.69 1903.53 10.56 1900.13 16.5 1898.74 18.93 1900.87 27 1900.94 26.98 1900.96 27.05 1908.99 24.81 1910.4 22.38 1913.76 16.5 1915.44 13.58 1913.78 10.72 1912.01 7.67"/><polygon class="cls-1" points="1870.64 38.77 1869.25 36.34 1861.18 34.1 1861.15 34.18 1861.12 34.17 1858.99 42.22 1860.38 44.65 1863.78 50.58 1865.43 53.45 1868.76 53.47 1872.25 53.48 1874.02 50.44 1875.69 47.58 1874.01 44.65 1870.64 38.77"/><polygon class="cls-1" points="1882.38 35.9 1884.94 31.43 1895.33 28.54 1892.57 18.12 1895.14 13.64 1898.54 7.7 1886.53 7.7 1878.99 0.26 1871.47 7.7 1859.45 7.7 1862.86 13.64 1865.43 18.12 1862.67 28.53 1873.08 31.43 1875.65 35.9 1879.01 41.78 1882.38 35.9"/><polygon class="cls-1" points="1815.98 59.2 1814.31 62.11 1812.57 65.12 1814.31 68.13 1815.98 71.02 1815.98 71.03 1828.93 71.03 1834.92 65.12 1828.93 59.2 1815.98 59.2"/><polygon class="cls-1" points="1858.78 53.44 1855.38 47.51 1852.82 43.03 1855.57 32.62 1845.16 29.73 1842.59 25.24 1839.22 19.36 1835.85 25.24 1833.28 29.73 1822.53 32.72 1825.26 43.03 1822.69 47.51 1819.28 53.44 1831.3 53.44 1839.04 61.09 1846.77 53.44 1858.78 53.44"/><polygon class="cls-1" points="1844.21 16.5 1847.59 22.38 1848.98 24.81 1857.05 27.06 1857.07 26.98 1857.11 26.99 1859.24 18.93 1857.85 16.5 1854.44 10.56 1852.8 7.69 1849.45 7.68 1845.96 7.67 1844.2 10.73 1842.54 13.58 1844.21 16.5"/><polygon class="cls-1" points="1885.75 53.48 1889.24 53.47 1892.58 53.45 1894.23 50.58 1897.62 44.65 1899.02 42.22 1896.88 34.16 1896.82 34.17 1896.8 34.1 1888.76 36.33 1887.36 38.76 1882.32 47.58 1883.98 50.44 1885.75 53.48"/><polygon class="cls-1" points="1882.43 59.24 1879 53.34 1875.56 59.24 1868.75 59.23 1872.15 65.12 1868.75 71.01 1875.56 70.99 1879 76.91 1882.44 70.99 1889.26 71.01 1885.85 65.12 1889.26 59.23 1882.43 59.24"/><polygon class="cls-1" points="938.48 59.2 936.8 62.11 935.06 65.12 936.8 68.13 938.48 71.02 938.48 71.03 951.43 71.03 957.41 65.12 951.43 59.2 938.48 59.2"/><polygon class="cls-1" points="1875.69 82.66 1874.03 79.8 1872.26 76.76 1868.77 76.77 1865.43 76.77 1863.78 79.65 1860.37 85.59 1859.45 87.2 1873.08 87.2 1874.01 85.58 1875.69 82.66"/><polygon class="cls-1" points="1915.38 25.24 1912.82 29.73 1902.42 32.61 1905.19 43.03 1902.61 47.51 1899.22 53.44 1911.23 53.44 1918.96 61.08 1921.59 58.48 1921.59 24.31 1918.75 19.36 1915.38 25.24"/><polygon class="cls-1" points="1894.23 79.66 1892.58 76.78 1889.24 76.77 1885.76 76.76 1883.98 79.81 1882.32 82.66 1884 85.59 1884.92 87.2 1898.56 87.2 1897.63 85.59 1894.23 79.66"/><polygon class="cls-1" points="1858.78 76.79 1846.77 76.79 1839.04 69.15 1831.31 76.79 1819.29 76.79 1822.69 82.73 1825.26 87.2 1852.81 87.2 1855.38 82.73 1858.78 76.79"/><polygon class="cls-1" points="422.62 76.78 410.62 76.78 403.29 69.55 395.95 76.79 383.95 76.79 387.35 82.73 389.91 87.2 416.66 87.2 419.22 82.72 422.62 76.78"/><polygon class="cls-1" points="821.43 53.44 818.03 47.51 815.47 43.03 818.23 32.61 807.84 29.73 805.27 25.24 802.09 19.69 802.09 19.36 798.73 25.24 796.15 29.73 785.94 32.57 788.7 43.03 786.14 47.51 782.74 53.44 794.75 53.44 802.09 60.69 809.42 53.44 821.43 53.44"/><polygon class="cls-1" points="824.74 59.2 811.78 59.2 806.18 64.73 806.57 65.12 806.19 65.5 811.78 71.02 824.74 71.02 826.41 68.12 828.15 65.11 826.41 62.1 824.74 59.2"/><polygon class="cls-1" points="821.42 76.78 809.42 76.78 802.09 69.55 794.75 76.79 782.75 76.79 786.15 82.73 788.71 87.2 815.46 87.2 818.02 82.72 821.42 76.78"/><polygon class="cls-1" points="425.94 59.2 412.98 59.2 407.38 64.73 407.77 65.12 407.39 65.5 412.98 71.02 425.94 71.02 427.61 68.12 429.35 65.11 427.61 62.1 425.94 59.2"/><polygon class="cls-1" points="422.63 53.44 419.23 47.51 416.67 43.03 419.43 32.61 409.04 29.73 406.47 25.24 403.29 19.69 403.29 19.36 399.93 25.24 397.35 29.73 387.14 32.57 389.9 43.03 387.34 47.51 383.94 53.44 395.95 53.44 403.29 60.69 410.62 53.44 422.63 53.44"/><polygon class="cls-1" points="1619.02 76.78 1607.02 76.78 1599.68 69.55 1592.35 76.79 1580.35 76.79 1583.75 82.73 1586.31 87.2 1613.06 87.2 1615.62 82.72 1619.02 76.78"/><polygon class="cls-1" points="1622.34 59.2 1609.38 59.2 1603.78 64.73 1604.17 65.12 1603.79 65.5 1609.38 71.02 1622.34 71.02 1624.01 68.12 1625.75 65.11 1624.01 62.1 1622.34 59.2"/><polygon class="cls-1" points="1619.03 53.44 1615.63 47.51 1613.07 43.03 1615.83 32.61 1605.44 29.73 1602.87 25.24 1599.69 19.69 1599.69 19.36 1596.33 25.24 1593.75 29.73 1583.54 32.57 1586.3 43.03 1583.74 47.51 1580.34 53.44 1592.35 53.44 1599.68 60.69 1607.02 53.44 1619.03 53.44"/><polygon class="cls-1" points="1220.23 53.44 1216.83 47.51 1214.27 43.03 1217.03 32.61 1206.64 29.73 1204.07 25.24 1200.89 19.69 1200.89 19.36 1197.53 25.24 1194.95 29.73 1184.74 32.57 1187.5 43.03 1184.94 47.51 1181.54 53.44 1193.55 53.44 1200.88 60.69 1208.22 53.44 1220.23 53.44"/><polygon class="cls-1" points="1220.22 76.78 1208.22 76.78 1200.88 69.55 1193.55 76.79 1181.55 76.79 1184.95 82.73 1187.51 87.2 1214.26 87.2 1216.82 82.72 1220.22 76.78"/><polygon class="cls-1" points="1223.54 59.2 1210.58 59.2 1204.98 64.73 1205.37 65.12 1204.99 65.5 1210.58 71.02 1223.54 71.02 1225.21 68.12 1226.95 65.11 1225.21 62.1 1223.54 59.2"/><polygon class="cls-1" points="1911.24 76.79 1899.23 76.79 1902.63 82.73 1905.19 87.2 1921.59 87.2 1921.59 71.74 1918.97 69.16 1911.24 76.79"/><polygon class="cls-1" points="1725.91 53.48 1729.41 53.47 1732.74 53.45 1734.38 50.58 1737.78 44.65 1739.17 42.22 1737.03 34.09 1728.92 36.33 1727.53 38.76 1724.15 44.64 1722.48 47.58 1724.14 50.44 1725.91 53.48"/><polygon class="cls-1" points="1722.59 59.24 1719.16 53.34 1715.72 59.24 1708.91 59.23 1712.3 65.12 1708.91 71.01 1715.72 70.99 1719.16 76.91 1722.6 70.99 1729.42 71.01 1726.01 65.12 1729.42 59.23 1722.59 59.24"/><polygon class="cls-1" points="1741.44 27.06 1749.55 24.81 1750.94 22.38 1754.32 16.5 1755.99 13.58 1754.34 10.72 1752.55 7.67 1749.06 7.68 1745.73 7.69 1744.08 10.56 1740.68 16.5 1739.29 18.93 1741.44 27.06"/><polygon class="cls-1" points="1715.85 82.66 1714.19 79.8 1712.42 76.76 1708.93 76.77 1705.58 76.77 1703.94 79.65 1700.53 85.59 1699.61 87.2 1713.24 87.2 1714.17 85.58 1715.85 82.66"/><polygon class="cls-1" points="1698.95 76.79 1686.93 76.79 1679.21 69.17 1671.48 76.79 1659.48 76.79 1662.88 82.73 1665.44 87.2 1692.97 87.2 1695.54 82.73 1698.95 76.79"/><polygon class="cls-1" points="1778.85 76.79 1766.84 76.79 1759.12 69.17 1751.4 76.79 1739.38 76.79 1742.78 82.73 1745.35 87.2 1772.88 87.2 1775.44 82.73 1778.85 76.79"/><polygon class="cls-1" points="1734.38 79.66 1732.74 76.78 1729.4 76.77 1725.91 76.76 1724.13 79.81 1722.48 82.66 1724.15 85.59 1725.07 87.2 1738.71 87.2 1737.79 85.59 1734.38 79.66"/><polygon class="cls-1" points="1635.94 82.66 1634.28 79.8 1632.51 76.76 1629.02 76.77 1625.68 76.77 1624.03 79.65 1620.62 85.59 1619.7 87.2 1633.33 87.2 1634.26 85.58 1635.94 82.66"/><polygon class="cls-1" points="1604.49 16.5 1607.86 22.38 1609.25 24.81 1617.31 27.05 1617.32 26.98 1617.38 27 1619.52 18.93 1618.13 16.5 1614.72 10.56 1613.07 7.69 1609.73 7.68 1606.24 7.67 1604.47 10.72 1602.81 13.58 1604.49 16.5"/><polygon class="cls-1" points="1630.9 38.76 1629.51 36.33 1621.46 34.1 1621.44 34.17 1621.38 34.16 1619.24 42.22 1620.63 44.65 1624.03 50.58 1625.69 53.45 1629.02 53.47 1632.51 53.48 1634.28 50.44 1635.94 47.58 1634.26 44.64 1630.9 38.76"/><polygon class="cls-1" points="1814.3 79.66 1812.64 76.78 1809.31 76.77 1805.82 76.76 1804.04 79.81 1802.39 82.66 1804.07 85.59 1804.99 87.2 1818.62 87.2 1817.7 85.59 1814.3 79.66"/><polygon class="cls-1" points="1646 53.48 1649.49 53.47 1652.83 53.45 1654.48 50.58 1657.88 44.65 1659.27 42.22 1657.12 34.09 1649.01 36.33 1647.61 38.76 1642.57 47.58 1644.23 50.44 1646 53.48"/><polygon class="cls-1" points="1698.94 53.44 1695.54 47.51 1692.98 43.03 1695.72 32.65 1685.19 29.73 1682.62 25.24 1679.26 19.36 1675.88 25.24 1673.32 29.73 1662.69 32.67 1665.44 43.03 1662.86 47.51 1659.47 53.44 1671.48 53.44 1679.21 61.07 1686.93 53.44 1698.94 53.44"/><polygon class="cls-1" points="1654.48 79.66 1652.83 76.78 1649.49 76.77 1646 76.76 1644.23 79.81 1642.57 82.67 1644.25 85.59 1645.17 87.2 1658.81 87.2 1657.88 85.59 1654.48 79.66"/><polygon class="cls-1" points="1684.25 16.5 1687.63 22.38 1689.02 24.81 1697.12 27.06 1699.27 18.93 1697.88 16.5 1694.48 10.56 1692.84 7.69 1689.5 7.68 1686.01 7.67 1684.24 10.72 1682.57 13.58 1684.25 16.5"/><polygon class="cls-1" points="1710.8 38.76 1709.41 36.33 1701.3 34.09 1699.15 42.22 1700.54 44.65 1703.95 50.58 1705.59 53.45 1708.92 53.47 1712.41 53.48 1714.18 50.44 1715.84 47.58 1714.17 44.64 1710.8 38.76"/><polygon class="cls-1" points="1722.53 35.9 1725.09 31.42 1735.85 28.43 1733.12 18.12 1735.69 13.63 1739.09 7.7 1727.07 7.7 1719.28 0 1711.49 7.7 1699.48 7.7 1702.89 13.63 1705.45 18.12 1702.7 28.49 1713.23 31.42 1715.8 35.9 1719.16 41.77 1722.53 35.9"/><polygon class="cls-1" points="1669.49 24.81 1670.88 22.38 1674.26 16.5 1675.94 13.58 1674.27 10.72 1672.5 7.67 1669.01 7.68 1665.67 7.69 1664.03 10.56 1660.63 16.5 1659.24 18.93 1661.39 27.06 1669.49 24.81"/><polygon class="cls-1" points="1642.69 59.24 1639.25 53.34 1635.81 59.24 1629 59.23 1632.4 65.12 1629 71.01 1635.81 70.99 1639.25 76.91 1642.69 70.99 1649.51 71.01 1646.1 65.12 1649.51 59.23 1642.69 59.24"/><polygon class="cls-1" points="1656.17 59.2 1654.5 62.11 1652.75 65.12 1654.5 68.13 1656.17 71.02 1669.12 71.02 1675.11 65.12 1669.12 59.2 1656.17 59.2"/><polygon class="cls-1" points="1702.24 59.2 1689.29 59.2 1683.31 65.11 1689.29 71.02 1702.24 71.02 1703.91 68.13 1705.66 65.12 1703.91 62.11 1702.24 59.2"/><polygon class="cls-1" points="1642.63 35.9 1645.19 31.43 1655.81 28.47 1653.07 18.12 1655.63 13.64 1659.04 7.7 1647.02 7.7 1639.38 0.15 1631.73 7.7 1619.73 7.7 1623.13 13.63 1625.69 18.12 1622.93 28.53 1633.32 31.42 1635.9 35.9 1639.26 41.78 1642.63 35.9"/><polygon class="cls-1" points="27.14 59.2 14.18 59.2 8.2 65.11 14.18 71.02 27.14 71.02 28.81 68.12 30.55 65.11 28.81 62.1 27.14 59.2"/><polygon class="cls-1" points="1582.06 26.97 1582.07 26.99 1589.93 24.81 1591.33 22.38 1594.7 16.5 1596.38 13.58 1594.71 10.72 1592.95 7.67 1589.46 7.68 1586.12 7.69 1584.47 10.56 1581.08 16.5 1579.67 18.93 1581.82 27.04 1582.06 26.97"/><polygon class="cls-1" points="40.74 82.66 39.08 79.8 37.31 76.76 33.82 76.77 30.48 76.77 28.83 79.65 25.42 85.59 24.5 87.2 38.13 87.2 39.06 85.58 40.74 82.66"/><polygon class="cls-1" points="30.49 18.12 27.73 28.53 38.12 31.42 40.7 35.9 44.06 41.78 47.43 35.9 49.99 31.43 60.61 28.47 57.87 18.12 60.43 13.64 63.84 7.7 51.82 7.7 44.18 0.15 36.53 7.7 24.53 7.7 27.93 13.63 30.49 18.12"/><polygon class="cls-1" points="12.66 22.38 14.05 24.81 22.11 27.05 22.12 26.98 22.18 27 24.32 18.93 22.93 16.5 19.52 10.56 17.87 7.69 14.53 7.68 11.04 7.67 9.27 10.72 7.61 13.58 9.29 16.5 12.66 22.38"/><polygon class="cls-1" points="1563.56 59.24 1560.12 53.34 1556.69 59.24 1549.88 59.23 1553.27 65.12 1549.88 71.01 1556.69 70.99 1560.12 76.91 1563.56 70.99 1570.37 71.01 1566.98 65.12 1570.38 59.23 1563.56 59.24"/><polygon class="cls-1" points="139.18 79.66 137.54 76.78 134.2 76.77 130.71 76.76 128.93 79.81 127.28 82.66 128.95 85.59 129.87 87.2 143.51 87.2 142.59 85.59 139.18 79.66"/><polygon class="cls-1" points="183.65 76.79 171.64 76.79 163.92 69.17 156.2 76.79 144.18 76.79 147.58 82.73 150.15 87.2 177.68 87.2 180.24 82.73 183.65 76.79"/><polygon class="cls-1" points="74.29 24.81 75.68 22.38 79.06 16.5 80.74 13.58 79.07 10.72 77.3 7.67 73.81 7.68 70.47 7.69 68.83 10.56 65.43 16.5 64.04 18.93 66.19 27.06 74.29 24.81"/><polygon class="cls-1" points="103.75 76.79 91.73 76.79 84.01 69.17 76.28 76.79 64.28 76.79 67.68 82.73 70.24 87.2 97.77 87.2 100.34 82.73 103.75 76.79"/><polygon class="cls-1" points="1575.34 79.66 1573.7 76.78 1570.36 76.77 1566.87 76.76 1565.1 79.81 1563.44 82.66 1565.11 85.59 1566.04 87.2 1579.67 87.2 1578.75 85.59 1575.34 79.66"/><polygon class="cls-1" points="60.97 59.2 59.3 62.11 57.55 65.12 59.3 68.13 60.97 71.02 73.92 71.02 79.91 65.12 73.92 59.2 60.97 59.2"/><polygon class="cls-1" points="127.33 35.9 129.89 31.42 140.65 28.43 137.92 18.12 140.49 13.63 143.89 7.7 131.87 7.7 124.08 0 116.29 7.7 104.28 7.7 107.69 13.63 110.25 18.12 107.5 28.49 118.03 31.42 120.6 35.9 123.96 41.77 127.33 35.9"/><polygon class="cls-1" points="1158.01 82.66 1156.35 79.8 1154.58 76.76 1151.09 76.77 1147.75 76.77 1146.11 79.65 1142.7 85.59 1141.78 87.2 1155.41 87.2 1156.34 85.58 1158.01 82.66"/><polygon class="cls-1" points="115.6 38.76 114.21 36.33 106.1 34.09 103.95 42.22 105.34 44.65 108.75 50.58 110.39 53.45 113.72 53.47 117.21 53.48 118.98 50.44 120.64 47.58 118.97 44.64 115.6 38.76"/><polygon class="cls-1" points="107.04 59.2 94.09 59.2 88.11 65.11 94.09 71.02 107.04 71.02 108.71 68.13 110.46 65.12 108.71 62.11 107.04 59.2"/><polygon class="cls-1" points="89.05 16.5 92.43 22.38 93.82 24.81 101.92 27.06 104.07 18.93 102.68 16.5 99.28 10.56 97.64 7.69 94.3 7.68 90.81 7.67 89.04 10.72 87.37 13.58 89.05 16.5"/><polygon class="cls-1" points="674.24 38.77 672.85 36.34 664.78 34.1 664.75 34.18 664.72 34.17 662.59 42.22 663.98 44.65 667.38 50.58 669.03 53.45 672.36 53.47 675.85 53.48 677.62 50.44 679.29 47.58 677.61 44.65 674.24 38.77"/><polygon class="cls-1" points="25.43 44.65 28.83 50.58 30.49 53.45 33.82 53.47 37.31 53.48 39.08 50.44 40.74 47.58 39.06 44.64 35.7 38.76 34.31 36.33 26.26 34.1 26.24 34.17 26.18 34.16 24.04 42.22 25.43 44.65"/><polygon class="cls-1" points="1595.59 64.74 1589.99 59.2 1589.99 59.21 1577.04 59.21 1575.37 62.11 1573.63 65.12 1575.37 68.13 1577.04 71.03 1589.99 71.03 1595.59 65.5 1595.2 65.12 1595.59 64.74"/><polygon class="cls-1" points="47.49 59.24 44.05 53.34 40.61 59.24 33.8 59.23 37.2 65.12 33.8 71.01 40.61 70.99 44.05 76.91 47.49 70.99 54.31 71.01 50.9 65.12 54.31 59.23 47.49 59.24"/><polygon class="cls-1" points="59.28 79.66 57.63 76.78 54.29 76.77 50.8 76.76 49.03 79.81 47.37 82.67 49.05 85.59 49.97 87.2 63.61 87.2 62.68 85.59 59.28 79.66"/><polygon class="cls-1" points="1577.76 34.17 1577.75 34.15 1569.88 36.33 1568.48 38.76 1563.44 47.58 1565.1 50.44 1566.87 53.48 1570.36 53.47 1573.69 53.45 1575.34 50.58 1578.74 44.65 1580.13 42.22 1577.99 34.11 1577.76 34.17"/><polygon class="cls-1" points="745.6 59.2 732.65 59.2 726.67 65.11 732.65 71.02 745.6 71.02 747.28 68.13 749.02 65.12 747.28 62.11 745.6 59.2"/><polygon class="cls-1" points="727.35 16.5 730.73 22.38 732.12 24.81 740.23 27.06 742.37 18.93 740.98 16.5 737.58 10.56 735.94 7.69 732.6 7.68 729.11 7.67 727.34 10.72 725.68 13.58 727.35 16.5"/><polygon class="cls-1" points="784.46 26.97 784.47 26.99 792.33 24.81 793.73 22.38 797.1 16.5 798.78 13.58 797.11 10.72 795.35 7.67 791.86 7.68 788.52 7.69 786.87 10.56 783.48 16.5 782.07 18.93 784.22 27.04 784.46 26.97"/><polygon class="cls-1" points="743.9 44.65 747.3 50.58 748.95 53.45 752.28 53.47 755.78 53.48 757.54 50.44 759.2 47.58 757.53 44.64 754.16 38.76 752.77 36.33 744.66 34.09 742.51 42.22 743.9 44.65"/><polygon class="cls-1" points="219.1 79.66 217.44 76.78 214.11 76.77 210.62 76.76 208.84 79.81 207.19 82.66 208.87 85.59 209.79 87.2 223.42 87.2 222.5 85.59 219.1 79.66"/><polygon class="cls-1" points="745.99 13.64 748.56 18.12 745.83 28.43 756.6 31.43 759.16 35.9 762.52 41.78 765.89 35.9 768.45 31.43 778.68 28.59 775.9 18.12 778.47 13.64 781.88 7.7 769.86 7.7 762.22 0.16 754.59 7.7 742.58 7.7 745.99 13.64"/><polygon class="cls-1" points="686.03 59.24 682.6 53.34 679.16 59.24 672.35 59.23 675.75 65.12 672.35 71.01 679.16 70.99 682.6 76.91 686.04 70.99 692.86 71.01 689.45 65.12 692.86 59.23 686.03 59.24"/><polygon class="cls-1" points="1476.89 82.66 1475.23 79.8 1473.46 76.76 1469.97 76.77 1466.63 76.77 1464.98 79.65 1461.57 85.59 1460.65 87.2 1474.28 87.2 1475.21 85.58 1476.89 82.66"/><polygon class="cls-1" points="697.83 79.66 696.18 76.78 692.84 76.77 689.36 76.76 687.58 79.81 685.92 82.66 687.6 85.59 688.52 87.2 702.16 87.2 701.23 85.59 697.83 79.66"/><polygon class="cls-1" points="679.29 82.66 677.63 79.8 675.86 76.76 672.37 76.77 669.03 76.77 667.38 79.65 663.97 85.59 663.05 87.2 676.68 87.2 677.61 85.58 679.29 82.66"/><polygon class="cls-1" points="981.25 76.79 969.24 76.79 961.52 69.17 953.8 76.79 941.78 76.79 945.18 82.73 947.75 87.2 975.28 87.2 977.84 82.73 981.25 76.79"/><polygon class="cls-1" points="742.31 53.44 738.91 47.51 736.34 43.03 739.05 32.72 728.28 29.73 725.72 25.24 722.35 19.36 718.98 25.24 716.42 29.73 706.02 32.61 708.79 43.03 706.21 47.51 702.82 53.44 714.83 53.44 722.56 61.08 730.29 53.44 742.31 53.44"/><polygon class="cls-1" points="360.41 82.66 358.75 79.8 356.98 76.76 353.49 76.77 350.15 76.77 348.51 79.65 345.1 85.59 344.18 87.2 357.81 87.2 358.74 85.58 360.41 82.66"/><polygon class="cls-1" points="343.51 76.79 331.5 76.79 323.77 69.16 316.04 76.79 304.03 76.79 307.43 82.73 309.99 87.2 337.54 87.2 340.11 82.73 343.51 76.79"/><polygon class="cls-1" points="797.99 64.74 792.39 59.2 792.39 59.21 779.44 59.21 777.77 62.11 776.03 65.12 777.77 68.13 779.44 71.03 792.39 71.03 797.99 65.5 797.6 65.12 797.99 64.74"/><polygon class="cls-1" points="1141.11 76.79 1129.1 76.79 1121.37 69.16 1113.64 76.79 1101.63 76.79 1105.03 82.73 1107.59 87.2 1135.14 87.2 1137.71 82.73 1141.11 76.79"/><polygon class="cls-1" points="263.58 76.79 251.57 76.79 243.84 69.15 236.11 76.79 224.09 76.79 227.49 82.73 230.06 87.2 257.61 87.2 260.18 82.73 263.58 76.79"/><polygon class="cls-1" points="1061.18 76.79 1049.17 76.79 1041.44 69.15 1033.71 76.79 1021.69 76.79 1025.09 82.73 1027.66 87.2 1055.21 87.2 1057.78 82.73 1061.18 76.79"/><polygon class="cls-1" points="765.96 59.24 762.52 53.34 759.09 59.24 752.28 59.23 755.67 65.12 752.28 71.01 759.09 70.99 762.52 76.91 765.96 70.99 772.77 71.01 769.38 65.12 772.78 59.23 765.96 59.24"/><polygon class="cls-1" points="1016.7 79.66 1015.04 76.78 1011.71 76.77 1008.22 76.76 1006.44 79.81 1004.79 82.66 1006.47 85.59 1007.39 87.2 1021.02 87.2 1020.1 85.59 1016.7 79.66"/><polygon class="cls-1" points="780.16 34.17 780.15 34.15 772.28 36.33 770.88 38.76 765.84 47.58 767.5 50.44 769.27 53.48 772.76 53.47 776.09 53.45 777.74 50.58 781.14 44.65 782.53 42.22 780.39 34.11 780.16 34.17"/><polygon class="cls-1" points="777.74 79.66 776.1 76.78 772.76 76.77 769.27 76.76 767.5 79.81 765.84 82.66 767.51 85.59 768.44 87.2 782.07 87.2 781.15 85.59 777.74 79.66"/><polygon class="cls-1" points="53.81 36.33 52.41 38.76 47.37 47.58 49.03 50.44 50.8 53.48 54.29 53.47 57.63 53.45 59.28 50.58 62.68 44.65 64.07 42.22 61.92 34.09 53.81 36.33"/><polygon class="cls-1" points="346.8 59.2 333.85 59.2 327.87 65.11 333.85 71.02 346.8 71.02 348.48 68.13 350.22 65.12 348.48 62.11 346.8 59.2"/><polygon class="cls-1" points="343.51 53.44 340.11 47.51 337.54 43.03 340.25 32.72 329.48 29.73 326.92 25.24 323.55 19.36 320.18 25.24 317.62 29.73 307.22 32.61 309.99 43.03 307.41 47.51 304.02 53.44 316.03 53.44 323.76 61.08 331.49 53.44 343.51 53.44"/><polygon class="cls-1" points="328.55 16.5 331.93 22.38 333.32 24.81 341.43 27.06 343.57 18.93 342.18 16.5 338.78 10.56 337.14 7.69 333.8 7.68 330.31 7.67 328.54 10.72 326.88 13.58 328.55 16.5"/><polygon class="cls-1" points="385.66 26.97 385.67 26.99 393.53 24.81 394.93 22.38 398.3 16.5 399.98 13.58 398.31 10.72 396.55 7.67 393.06 7.68 389.72 7.69 388.07 10.56 384.68 16.5 383.27 18.93 385.42 27.04 385.66 26.97"/><polygon class="cls-1" points="345.1 44.65 348.5 50.58 350.15 53.45 353.48 53.47 356.98 53.48 358.74 50.44 360.4 47.58 358.73 44.64 355.36 38.76 353.97 36.33 345.86 34.09 343.71 42.22 345.1 44.65"/><polygon class="cls-1" points="347.19 13.64 349.76 18.12 347.03 28.43 357.8 31.43 360.36 35.9 363.72 41.78 367.09 35.9 369.65 31.43 379.88 28.59 377.1 18.12 379.67 13.64 383.08 7.7 371.06 7.7 363.42 0.16 355.79 7.7 343.78 7.7 347.19 13.64"/><polygon class="cls-1" points="1541.5 44.65 1544.9 50.58 1546.55 53.45 1549.88 53.47 1553.38 53.48 1555.14 50.44 1556.8 47.58 1555.13 44.64 1551.76 38.76 1550.37 36.33 1542.26 34.09 1540.11 42.22 1541.5 44.65"/><polygon class="cls-1" points="1543.2 59.2 1530.25 59.2 1524.27 65.11 1530.25 71.02 1543.2 71.02 1544.88 68.13 1546.62 65.12 1544.88 62.11 1543.2 59.2"/><polygon class="cls-1" points="287.23 59.24 283.8 53.34 280.36 59.24 273.55 59.23 276.95 65.12 273.55 71.01 280.36 70.99 283.8 76.91 287.24 70.99 294.06 71.01 290.65 65.12 294.06 59.23 287.23 59.24"/><polygon class="cls-1" points="299.03 79.66 297.38 76.78 294.04 76.77 290.56 76.76 288.78 79.81 287.12 82.66 288.8 85.59 289.72 87.2 303.36 87.2 302.43 85.59 299.03 79.66"/><polygon class="cls-1" points="280.49 82.66 278.83 79.8 277.06 76.76 273.57 76.77 270.23 76.77 268.58 79.65 265.17 85.59 264.25 87.2 277.88 87.2 278.81 85.58 280.49 82.66"/><polygon class="cls-1" points="20.42 82.72 23.82 76.78 11.82 76.78 4.48 69.54 0 65.12 0 87.2 17.86 87.2 20.42 82.72"/><polygon class="cls-1" points="1495.43 79.66 1493.78 76.78 1490.44 76.77 1486.96 76.76 1485.18 79.81 1483.52 82.66 1485.2 85.59 1486.12 87.2 1499.76 87.2 1498.83 85.59 1495.43 79.66"/><polygon class="cls-1" points="1539.91 53.44 1536.51 47.51 1533.94 43.03 1536.65 32.72 1525.88 29.73 1523.32 25.24 1519.95 19.36 1516.58 25.24 1514.02 29.73 1503.62 32.61 1506.39 43.03 1503.81 47.51 1500.42 53.44 1512.43 53.44 1520.16 61.08 1527.89 53.44 1539.91 53.44"/><polygon class="cls-1" points="367.16 59.24 363.72 53.34 360.29 59.24 353.48 59.23 356.87 65.12 353.48 71.01 360.29 70.99 363.72 76.91 367.16 70.99 373.97 71.01 370.58 65.12 373.98 59.23 367.16 59.24"/><polygon class="cls-1" points="381.36 34.17 381.35 34.15 373.48 36.33 372.08 38.76 367.04 47.58 368.7 50.44 370.47 53.48 373.96 53.47 377.29 53.45 378.94 50.58 382.34 44.65 383.73 42.22 381.59 34.11 381.36 34.17"/><polygon class="cls-1" points="399.19 64.74 393.59 59.2 393.59 59.21 380.64 59.21 378.97 62.11 377.23 65.12 378.97 68.13 380.64 71.03 393.59 71.03 399.19 65.5 398.8 65.12 399.19 64.74"/><polygon class="cls-1" points="378.94 79.66 377.3 76.78 373.96 76.77 370.47 76.76 368.7 79.81 367.04 82.66 368.71 85.59 369.64 87.2 383.27 87.2 382.35 85.59 378.94 79.66"/><polygon class="cls-1" points="290.55 53.48 294.04 53.47 297.38 53.45 299.03 50.58 302.42 44.65 303.82 42.22 301.68 34.16 301.62 34.17 301.6 34.1 293.56 36.33 292.16 38.76 287.12 47.58 288.78 50.44 290.55 53.48"/><polygon class="cls-1" points="1524.95 16.5 1528.33 22.38 1529.72 24.81 1537.83 27.06 1539.97 18.93 1538.58 16.5 1535.18 10.56 1533.54 7.69 1530.2 7.68 1526.71 7.67 1524.94 10.72 1523.28 13.58 1524.95 16.5"/><polygon class="cls-1" points="146.24 27.06 154.35 24.81 155.74 22.38 159.12 16.5 160.79 13.58 159.14 10.72 157.35 7.67 153.86 7.68 150.53 7.69 148.88 10.56 145.48 16.5 144.09 18.93 146.24 27.06"/><polygon class="cls-1" points="169.11 16.5 172.48 22.38 173.88 24.81 181.91 27.05 181.93 26.98 182 27 184.14 18.93 182.74 16.5 179.34 10.56 177.69 7.69 174.35 7.68 170.86 7.67 169.1 10.72 167.43 13.58 169.11 16.5"/><polygon class="cls-1" points="207.23 35.9 209.8 31.43 220.56 28.44 217.83 18.12 220.4 13.64 223.8 7.7 211.78 7.7 204.06 0.08 196.35 7.7 184.34 7.7 187.75 13.64 190.31 18.12 187.55 28.54 197.94 31.43 200.5 35.9 203.87 41.78 207.23 35.9"/><polygon class="cls-1" points="195.5 38.76 194.11 36.33 186.07 34.1 186.05 34.17 185.99 34.16 183.85 42.22 185.24 44.65 188.65 50.58 190.29 53.45 193.62 53.47 197.11 53.48 198.88 50.44 200.56 47.58 198.87 44.64 195.5 38.76"/><polygon class="cls-1" points="186.95 59.2 174 59.2 168.01 65.11 174 71.02 186.95 71.02 188.63 68.13 190.36 65.12 188.63 62.11 186.95 59.2"/><polygon class="cls-1" points="200.55 82.66 198.89 79.8 197.12 76.76 193.63 76.77 190.29 76.77 188.64 79.65 185.25 85.59 184.32 87.2 197.94 87.2 198.87 85.58 200.55 82.66"/><polygon class="cls-1" points="1543.59 13.64 1546.16 18.12 1543.43 28.43 1554.2 31.43 1556.76 35.9 1560.12 41.78 1563.49 35.9 1566.05 31.43 1576.28 28.59 1573.5 18.12 1576.07 13.64 1579.48 7.7 1567.46 7.7 1559.82 0.16 1552.19 7.7 1540.18 7.7 1543.59 13.64"/><polygon class="cls-1" points="130.71 53.48 134.21 53.47 137.54 53.45 139.18 50.58 142.58 44.65 143.97 42.22 141.83 34.09 133.72 36.33 132.33 38.76 128.95 44.64 127.28 47.58 128.94 50.44 130.71 53.48"/><polygon class="cls-1" points="127.39 59.24 123.96 53.34 120.52 59.24 113.71 59.23 117.1 65.12 113.71 71.01 120.52 70.99 123.96 76.91 127.4 70.99 134.22 71.01 130.81 65.12 134.22 59.23 127.39 59.24"/><polygon class="cls-1" points="183.65 53.44 180.25 47.51 177.68 43.03 180.44 32.61 170.05 29.73 167.49 25.24 164.11 19.36 160.74 25.24 158.17 29.73 147.42 32.72 150.15 43.03 147.58 47.51 144.17 53.44 156.19 53.44 163.91 61.07 171.63 53.44 183.65 53.44"/><polygon class="cls-1" points="140.88 59.2 139.2 62.11 137.46 65.12 139.2 68.13 140.88 71.02 140.88 71.03 153.83 71.03 159.81 65.12 153.83 59.2 140.88 59.2"/><polygon class="cls-1" points="120.65 82.66 118.99 79.8 117.22 76.76 113.73 76.77 110.38 76.77 108.74 79.65 105.33 85.59 104.41 87.2 118.04 87.2 118.97 85.58 120.65 82.66"/><polygon class="cls-1" points="210.61 53.48 214.11 53.47 217.44 53.45 219.08 50.58 222.48 44.65 223.87 42.22 221.73 34.09 213.62 36.33 212.23 38.76 208.87 44.64 207.18 47.58 208.84 50.44 210.61 53.48"/><polygon class="cls-1" points="287.18 35.9 289.74 31.43 300.13 28.54 297.37 18.12 299.94 13.64 303.34 7.7 291.33 7.7 283.79 0.26 276.27 7.7 264.25 7.7 267.66 13.64 270.23 18.12 267.47 28.53 277.88 31.43 280.45 35.9 283.81 41.78 287.18 35.9"/><polygon class="cls-1" points="305.74 26.98 305.76 27.05 313.79 24.81 315.2 22.38 318.56 16.5 320.24 13.58 318.58 10.72 316.81 7.67 313.31 7.68 309.97 7.69 308.33 10.56 304.93 16.5 303.54 18.93 305.67 27 305.74 26.98"/><polygon class="cls-1" points="266.89 59.2 253.93 59.2 247.95 65.11 253.93 71.02 266.89 71.02 268.56 68.13 270.3 65.12 268.56 62.11 266.89 59.2"/><polygon class="cls-1" points="300.72 59.2 299.05 62.11 297.3 65.12 299.05 68.13 300.72 71.02 300.72 71.03 313.67 71.03 319.65 65.12 313.67 59.2 300.72 59.2"/><polygon class="cls-1" points="249.01 16.5 252.39 22.38 253.78 24.81 261.85 27.06 261.87 26.98 261.91 26.99 264.04 18.93 262.65 16.5 259.24 10.56 257.6 7.69 254.25 7.68 250.76 7.67 249 10.73 247.34 13.58 249.01 16.5"/><polygon class="cls-1" points="226.15 27.06 234.25 24.81 235.65 22.38 239.02 16.5 240.69 13.58 239.04 10.72 237.26 7.67 233.77 7.68 230.43 7.69 228.79 10.56 225.38 16.5 223.99 18.93 226.15 27.06"/><polygon class="cls-1" points="207.3 59.24 203.86 53.34 200.42 59.24 193.61 59.23 197.01 65.12 193.61 71.01 200.42 70.99 203.86 76.91 207.31 70.99 214.12 71.01 210.71 65.12 214.12 59.23 207.3 59.24"/><polygon class="cls-1" points="263.58 53.44 260.18 47.51 257.62 43.03 260.37 32.62 249.96 29.73 247.39 25.24 244.02 19.36 240.65 25.24 238.08 29.73 227.33 32.72 230.06 43.03 227.49 47.51 224.08 53.44 236.1 53.44 243.84 61.09 251.57 53.44 263.58 53.44"/><polygon class="cls-1" points="275.44 38.77 274.05 36.34 265.98 34.1 265.95 34.18 265.92 34.17 263.79 42.22 265.18 44.65 268.58 50.58 270.23 53.45 273.56 53.47 277.05 53.48 278.82 50.44 280.49 47.58 278.81 44.65 275.44 38.77"/><polygon class="cls-1" points="220.78 59.2 219.11 62.11 217.37 65.12 219.11 68.13 220.78 71.02 220.78 71.03 233.73 71.03 239.72 65.12 233.73 59.2 220.78 59.2"/><polygon class="cls-1" points="689.35 53.48 692.84 53.47 696.18 53.45 697.83 50.58 701.22 44.65 702.62 42.22 700.48 34.16 700.42 34.17 700.4 34.1 692.36 36.33 690.96 38.76 685.92 47.58 687.58 50.44 689.35 53.48"/><polygon class="cls-1" points="1183.26 26.97 1183.27 26.99 1191.13 24.81 1192.53 22.38 1195.9 16.5 1197.58 13.58 1195.91 10.72 1194.15 7.67 1190.66 7.68 1187.32 7.69 1185.67 10.56 1182.28 16.5 1180.87 18.93 1183.02 27.04 1183.26 26.97"/><polygon class="cls-1" points="1196.79 64.74 1191.19 59.2 1191.19 59.21 1178.24 59.21 1176.57 62.11 1174.83 65.12 1176.57 68.13 1178.24 71.03 1191.19 71.03 1196.79 65.5 1196.4 65.12 1196.79 64.74"/><polygon class="cls-1" points="665.69 59.2 652.73 59.2 646.75 65.11 652.73 71.02 665.69 71.02 667.36 68.13 669.1 65.12 667.36 62.11 665.69 59.2"/><polygon class="cls-1" points="1178.96 34.17 1178.95 34.15 1171.08 36.33 1169.68 38.76 1164.64 47.58 1166.3 50.44 1168.07 53.48 1171.56 53.47 1174.89 53.45 1176.54 50.58 1179.94 44.65 1181.33 42.22 1179.19 34.11 1178.96 34.17"/><polygon class="cls-1" points="1144.79 13.64 1147.36 18.12 1144.63 28.43 1155.4 31.43 1157.96 35.9 1161.32 41.78 1164.69 35.9 1167.25 31.43 1177.48 28.59 1174.7 18.12 1177.27 13.64 1180.68 7.7 1168.66 7.7 1161.02 0.16 1153.39 7.7 1141.38 7.7 1144.79 13.64"/><polygon class="cls-1" points="1142.7 44.65 1146.1 50.58 1147.75 53.45 1151.08 53.47 1154.58 53.48 1156.34 50.44 1158 47.58 1156.33 44.64 1152.96 38.76 1151.57 36.33 1143.46 34.09 1141.31 42.22 1142.7 44.65"/><polygon class="cls-1" points="1141.11 53.44 1137.71 47.51 1135.14 43.03 1137.85 32.72 1127.08 29.73 1124.52 25.24 1121.15 19.36 1117.78 25.24 1115.22 29.73 1104.82 32.61 1107.59 43.03 1105.01 47.51 1101.62 53.44 1113.63 53.44 1121.36 61.08 1129.09 53.44 1141.11 53.44"/><polygon class="cls-1" points="924.99 59.24 921.56 53.34 918.12 59.24 911.31 59.23 914.7 65.12 911.31 71.01 918.12 70.99 921.56 76.91 925 70.99 931.82 71.01 928.41 65.12 931.82 59.23 924.99 59.24"/><polygon class="cls-1" points="1126.15 16.5 1129.53 22.38 1130.92 24.81 1139.03 27.06 1141.17 18.93 1139.78 16.5 1136.38 10.56 1134.74 7.69 1131.4 7.68 1127.91 7.67 1126.14 10.72 1124.48 13.58 1126.15 16.5"/><polygon class="cls-1" points="1144.4 59.2 1131.45 59.2 1125.47 65.11 1131.45 71.02 1144.4 71.02 1146.08 68.13 1147.82 65.12 1146.08 62.11 1144.4 59.2"/><polygon class="cls-1" points="1176.54 79.66 1174.9 76.78 1171.56 76.77 1168.07 76.76 1166.3 79.81 1164.64 82.66 1166.31 85.59 1167.24 87.2 1180.87 87.2 1179.95 85.59 1176.54 79.66"/><polygon class="cls-1" points="742.31 76.79 730.3 76.79 722.57 69.16 714.84 76.79 702.83 76.79 706.23 82.73 708.79 87.2 736.34 87.2 738.91 82.73 742.31 76.79"/><polygon class="cls-1" points="1096.63 79.66 1094.98 76.78 1091.64 76.77 1088.16 76.76 1086.38 79.81 1084.72 82.66 1086.4 85.59 1087.32 87.2 1100.96 87.2 1100.03 85.59 1096.63 79.66"/><polygon class="cls-1" points="856.88 79.66 855.23 76.78 851.89 76.77 848.4 76.76 846.63 79.81 844.97 82.67 846.65 85.59 847.57 87.2 861.21 87.2 860.28 85.59 856.88 79.66"/><polygon class="cls-1" points="901.34 53.44 897.94 47.51 895.38 43.03 898.12 32.65 887.59 29.73 885.02 25.24 881.66 19.36 878.28 25.24 875.72 29.73 865.09 32.67 867.84 43.03 865.26 47.51 861.87 53.44 873.88 53.44 881.61 61.07 889.33 53.44 901.34 53.44"/><polygon class="cls-1" points="662.38 76.79 650.37 76.79 642.64 69.15 634.91 76.79 622.89 76.79 626.29 82.73 628.86 87.2 656.41 87.2 658.98 82.73 662.38 76.79"/><polygon class="cls-1" points="845.09 59.24 841.65 53.34 838.21 59.24 831.4 59.23 834.8 65.12 831.4 71.01 838.21 70.99 841.65 76.91 845.09 70.99 851.91 71.01 848.5 65.12 851.91 59.23 845.09 59.24"/><polygon class="cls-1" points="924.93 35.9 927.49 31.42 938.25 28.43 935.52 18.12 938.09 13.63 941.49 7.7 929.47 7.7 921.68 0 913.89 7.7 901.88 7.7 905.29 13.63 907.85 18.12 905.1 28.49 915.63 31.42 918.2 35.9 921.56 41.77 924.93 35.9"/><polygon class="cls-1" points="904.64 59.2 891.69 59.2 885.71 65.11 891.69 71.02 904.64 71.02 906.31 68.13 908.06 65.12 906.31 62.11 904.64 59.2"/><polygon class="cls-1" points="913.2 38.76 911.81 36.33 903.7 34.09 901.55 42.22 902.94 44.65 906.35 50.58 907.99 53.45 911.32 53.47 914.81 53.48 916.58 50.44 918.24 47.58 916.57 44.64 913.2 38.76"/><polygon class="cls-1" points="759.21 82.66 757.55 79.8 755.78 76.76 752.29 76.77 748.95 76.77 747.31 79.65 743.9 85.59 742.98 87.2 756.61 87.2 757.54 85.58 759.21 82.66"/><polygon class="cls-1" points="918.25 82.66 916.59 79.8 914.82 76.76 911.33 76.77 907.98 76.77 906.34 79.65 902.93 85.59 902.01 87.2 915.64 87.2 916.57 85.58 918.25 82.66"/><polygon class="cls-1" points="886.65 16.5 890.03 22.38 891.42 24.81 899.52 27.06 901.67 18.93 900.28 16.5 896.88 10.56 895.24 7.69 891.9 7.68 888.41 7.67 886.64 10.72 884.97 13.58 886.65 16.5"/><polygon class="cls-1" points="1008.21 53.48 1011.71 53.47 1015.04 53.45 1016.68 50.58 1020.08 44.65 1021.47 42.22 1019.33 34.09 1011.22 36.33 1009.83 38.76 1006.47 44.64 1004.78 47.58 1006.44 50.44 1008.21 53.48"/><polygon class="cls-1" points="998.15 82.66 996.49 79.8 994.72 76.76 991.23 76.77 987.89 76.77 986.24 79.65 982.85 85.59 981.92 87.2 995.54 87.2 996.47 85.58 998.15 82.66"/><polygon class="cls-1" points="1004.9 59.24 1001.46 53.34 998.02 59.24 991.21 59.23 994.61 65.12 991.21 71.01 998.02 70.99 1001.46 76.91 1004.91 70.99 1011.72 71.01 1008.31 65.12 1011.72 59.23 1004.9 59.24"/><polygon class="cls-1" points="1023.75 27.06 1031.85 24.81 1033.25 22.38 1036.62 16.5 1038.29 13.58 1036.64 10.72 1034.86 7.67 1031.37 7.68 1028.03 7.69 1026.39 10.56 1022.98 16.5 1021.59 18.93 1023.75 27.06"/><polygon class="cls-1" points="943.84 27.06 951.95 24.81 953.34 22.38 956.72 16.5 958.39 13.58 956.74 10.72 954.95 7.67 951.46 7.68 948.13 7.69 946.48 10.56 943.08 16.5 941.69 18.93 943.84 27.06"/><polygon class="cls-1" points="848.4 53.48 851.89 53.47 855.23 53.45 856.88 50.58 860.28 44.65 861.67 42.22 859.52 34.09 851.41 36.33 850.01 38.76 844.97 47.58 846.63 50.44 848.4 53.48"/><polygon class="cls-1" points="984.55 59.2 971.6 59.2 965.61 65.11 971.6 71.02 984.55 71.02 986.23 68.13 987.96 65.12 986.23 62.11 984.55 59.2"/><polygon class="cls-1" points="966.71 16.5 970.08 22.38 971.48 24.81 979.51 27.05 979.53 26.98 979.6 27 981.74 18.93 980.34 16.5 976.94 10.56 975.29 7.69 971.95 7.68 968.46 7.67 966.7 10.72 965.03 13.58 966.71 16.5"/><polygon class="cls-1" points="981.25 53.44 977.85 47.51 975.28 43.03 978.04 32.61 967.65 29.73 965.09 25.24 961.71 19.36 958.34 25.24 955.77 29.73 945.02 32.72 947.75 43.03 945.18 47.51 941.77 53.44 953.79 53.44 961.51 61.07 969.23 53.44 981.25 53.44"/><polygon class="cls-1" points="1004.83 35.9 1007.4 31.43 1018.16 28.44 1015.43 18.12 1018 13.64 1021.4 7.7 1009.38 7.7 1001.66 0.08 993.95 7.7 981.94 7.7 985.35 13.64 987.91 18.12 985.15 28.54 995.54 31.43 998.1 35.9 1001.47 41.78 1004.83 35.9"/><polygon class="cls-1" points="1018.38 59.2 1016.71 62.11 1014.97 65.12 1016.71 68.13 1018.38 71.02 1018.38 71.03 1031.33 71.03 1037.32 65.12 1031.33 59.2 1018.38 59.2"/><polygon class="cls-1" points="993.1 38.76 991.71 36.33 983.67 34.1 983.65 34.17 983.59 34.16 981.45 42.22 982.84 44.65 986.25 50.58 987.89 53.45 991.22 53.47 994.71 53.48 996.48 50.44 998.16 47.58 996.47 44.64 993.1 38.76"/><polygon class="cls-1" points="928.31 53.48 931.81 53.47 935.14 53.45 936.78 50.58 940.18 44.65 941.57 42.22 939.43 34.09 931.32 36.33 929.93 38.76 926.55 44.64 924.88 47.58 926.54 50.44 928.31 53.48"/><polygon class="cls-1" points="1073.04 38.77 1071.65 36.34 1063.58 34.1 1063.55 34.18 1063.52 34.17 1061.39 42.22 1062.78 44.65 1066.18 50.58 1067.83 53.45 1071.16 53.47 1074.65 53.48 1076.42 50.44 1078.09 47.58 1076.41 44.65 1073.04 38.77"/><polygon class="cls-1" points="1088.15 53.48 1091.64 53.47 1094.98 53.45 1096.63 50.58 1100.02 44.65 1101.42 42.22 1099.28 34.16 1099.22 34.17 1099.2 34.1 1091.16 36.33 1089.76 38.76 1084.72 47.58 1086.38 50.44 1088.15 53.48"/><polygon class="cls-1" points="1078.09 82.66 1076.43 79.8 1074.66 76.76 1071.17 76.77 1067.83 76.77 1066.18 79.65 1062.77 85.59 1061.85 87.2 1075.48 87.2 1076.41 85.58 1078.09 82.66"/><polygon class="cls-1" points="1084.83 59.24 1081.4 53.34 1077.96 59.24 1071.15 59.23 1074.55 65.12 1071.15 71.01 1077.96 70.99 1081.4 76.91 1084.84 70.99 1091.66 71.01 1088.25 65.12 1091.66 59.23 1084.83 59.24"/><polygon class="cls-1" points="1061.18 53.44 1057.78 47.51 1055.22 43.03 1057.97 32.62 1047.56 29.73 1044.99 25.24 1041.62 19.36 1038.25 25.24 1035.68 29.73 1024.93 32.72 1027.66 43.03 1025.09 47.51 1021.68 53.44 1033.7 53.44 1041.44 61.09 1049.17 53.44 1061.18 53.44"/><polygon class="cls-1" points="1064.49 59.2 1051.53 59.2 1045.55 65.11 1051.53 71.02 1064.49 71.02 1066.16 68.13 1067.9 65.12 1066.16 62.11 1064.49 59.2"/><polygon class="cls-1" points="1046.61 16.5 1049.99 22.38 1051.38 24.81 1059.45 27.06 1059.47 26.98 1059.51 26.99 1061.64 18.93 1060.25 16.5 1056.84 10.56 1055.2 7.69 1051.85 7.68 1048.36 7.67 1046.6 10.73 1044.94 13.58 1046.61 16.5"/><polygon class="cls-1" points="1098.32 59.2 1096.65 62.11 1094.9 65.12 1096.65 68.13 1098.32 71.02 1098.32 71.03 1111.27 71.03 1117.25 65.12 1111.27 59.2 1098.32 59.2"/><polygon class="cls-1" points="1084.78 35.9 1087.34 31.43 1097.73 28.54 1094.97 18.12 1097.54 13.64 1100.94 7.7 1088.93 7.7 1081.39 0.26 1073.87 7.7 1061.85 7.7 1065.26 13.64 1067.83 18.12 1065.07 28.53 1075.48 31.43 1078.05 35.9 1081.41 41.78 1084.78 35.9"/><polygon class="cls-1" points="1103.34 26.98 1103.36 27.05 1111.39 24.81 1112.8 22.38 1116.16 16.5 1117.84 13.58 1116.18 10.72 1114.41 7.67 1110.91 7.68 1107.57 7.69 1105.93 10.56 1102.53 16.5 1101.14 18.93 1103.27 27 1103.34 26.98"/><polygon class="cls-1" points="1164.76 59.24 1161.32 53.34 1157.89 59.24 1151.08 59.23 1154.47 65.12 1151.08 71.01 1157.89 70.99 1161.32 76.91 1164.76 70.99 1171.57 71.01 1168.18 65.12 1171.58 59.23 1164.76 59.24"/><polygon class="cls-1" points="545.04 27.06 553.15 24.81 554.54 22.38 557.92 16.5 559.59 13.58 557.94 10.72 556.15 7.67 552.66 7.68 549.33 7.69 547.68 10.56 544.28 16.5 542.89 18.93 545.04 27.06"/><polygon class="cls-1" points="582.45 53.44 579.05 47.51 576.48 43.03 579.24 32.61 568.85 29.73 566.29 25.24 562.91 19.36 559.54 25.24 556.97 29.73 546.22 32.72 548.95 43.03 546.38 47.51 542.97 53.44 554.99 53.44 562.71 61.07 570.43 53.44 582.45 53.44"/><polygon class="cls-1" points="539.68 59.2 538 62.11 536.26 65.12 538 68.13 539.68 71.02 539.68 71.03 552.63 71.03 558.61 65.12 552.63 59.2 539.68 59.2"/><polygon class="cls-1" points="567.91 16.5 571.28 22.38 572.68 24.81 580.71 27.05 580.73 26.98 580.8 27 582.94 18.93 581.54 16.5 578.14 10.56 576.49 7.69 573.15 7.68 569.66 7.67 567.9 10.72 566.23 13.58 567.91 16.5"/><polygon class="cls-1" points="606.03 35.9 608.6 31.43 619.36 28.44 616.63 18.12 619.2 13.64 622.6 7.7 610.58 7.7 602.86 0.08 595.15 7.7 583.14 7.7 586.55 13.64 589.11 18.12 586.35 28.54 596.74 31.43 599.3 35.9 602.67 41.78 606.03 35.9"/><polygon class="cls-1" points="936.78 79.66 935.14 76.78 931.8 76.77 928.31 76.76 926.53 79.81 924.88 82.66 926.55 85.59 927.47 87.2 941.11 87.2 940.19 85.59 936.78 79.66"/><polygon class="cls-1" points="505.84 59.2 492.89 59.2 486.91 65.11 492.89 71.02 505.84 71.02 507.51 68.13 509.26 65.12 507.51 62.11 505.84 59.2"/><polygon class="cls-1" points="594.3 38.76 592.91 36.33 584.87 34.1 584.85 34.17 584.79 34.16 582.65 42.22 584.04 44.65 587.45 50.58 589.09 53.45 592.42 53.47 595.91 53.48 597.68 50.44 599.36 47.58 597.67 44.64 594.3 38.76"/><polygon class="cls-1" points="529.51 53.48 533.01 53.47 536.34 53.45 537.98 50.58 541.38 44.65 542.77 42.22 540.63 34.09 532.52 36.33 531.13 38.76 527.75 44.64 526.08 47.58 527.74 50.44 529.51 53.48"/><polygon class="cls-1" points="519.45 82.66 517.79 79.8 516.02 76.76 512.53 76.77 509.18 76.77 507.54 79.65 504.13 85.59 503.21 87.2 516.84 87.2 517.77 85.58 519.45 82.66"/><polygon class="cls-1" points="526.19 59.24 522.76 53.34 519.32 59.24 512.51 59.23 515.9 65.12 512.51 71.01 519.32 70.99 522.76 76.91 526.2 70.99 533.02 71.01 529.61 65.12 533.02 59.23 526.19 59.24"/><polygon class="cls-1" points="619.58 59.2 617.91 62.11 616.17 65.12 617.91 68.13 619.58 71.02 619.58 71.03 632.53 71.03 638.52 65.12 632.53 59.2 619.58 59.2"/><polygon class="cls-1" points="685.98 35.9 688.54 31.43 698.93 28.54 696.17 18.12 698.74 13.64 702.14 7.7 690.13 7.7 682.59 0.26 675.07 7.7 663.05 7.7 666.46 13.64 669.03 18.12 666.27 28.53 676.68 31.43 679.25 35.9 682.61 41.78 685.98 35.9"/><polygon class="cls-1" points="647.81 16.5 651.19 22.38 652.58 24.81 660.65 27.06 660.67 26.98 660.71 26.99 662.84 18.93 661.45 16.5 658.04 10.56 656.4 7.69 653.05 7.68 649.56 7.67 647.8 10.73 646.14 13.58 647.81 16.5"/><polygon class="cls-1" points="704.54 26.98 704.56 27.05 712.59 24.81 714 22.38 717.36 16.5 719.04 13.58 717.38 10.72 715.61 7.67 712.11 7.68 708.77 7.69 707.13 10.56 703.73 16.5 702.34 18.93 704.47 27 704.54 26.98"/><polygon class="cls-1" points="662.38 53.44 658.98 47.51 656.42 43.03 659.17 32.62 648.76 29.73 646.19 25.24 642.82 19.36 639.45 25.24 636.88 29.73 626.13 32.72 628.86 43.03 626.29 47.51 622.88 53.44 634.9 53.44 642.64 61.09 650.37 53.44 662.38 53.44"/><polygon class="cls-1" points="858.57 59.2 856.9 62.11 855.15 65.12 856.9 68.13 858.57 71.02 871.52 71.02 877.51 65.12 871.52 59.2 858.57 59.2"/><polygon class="cls-1" points="606.1 59.24 602.66 53.34 599.22 59.24 592.41 59.23 595.81 65.12 592.41 71.01 599.22 70.99 602.66 76.91 606.11 70.99 612.92 71.01 609.51 65.12 612.92 59.23 606.1 59.24"/><polygon class="cls-1" points="599.35 82.66 597.69 79.8 595.92 76.76 592.43 76.77 589.09 76.77 587.44 79.65 584.05 85.59 583.12 87.2 596.74 87.2 597.67 85.58 599.35 82.66"/><polygon class="cls-1" points="585.75 59.2 572.8 59.2 566.81 65.11 572.8 71.02 585.75 71.02 587.43 68.13 589.16 65.12 587.43 62.11 585.75 59.2"/><polygon class="cls-1" points="609.41 53.48 612.91 53.47 616.24 53.45 617.88 50.58 621.28 44.65 622.67 42.22 620.53 34.09 612.42 36.33 611.03 38.76 607.67 44.64 605.98 47.58 607.64 50.44 609.41 53.48"/><polygon class="cls-1" points="624.95 27.06 633.05 24.81 634.45 22.38 637.82 16.5 639.49 13.58 637.84 10.72 636.06 7.67 632.57 7.68 629.23 7.69 627.59 10.56 624.18 16.5 622.79 18.93 624.95 27.06"/><polygon class="cls-1" points="514.4 38.76 513.01 36.33 504.9 34.09 502.75 42.22 504.14 44.65 507.55 50.58 509.19 53.45 512.52 53.47 516.01 53.48 517.78 50.44 519.44 47.58 517.77 44.64 514.4 38.76"/><polygon class="cls-1" points="699.52 59.2 697.85 62.11 696.1 65.12 697.85 68.13 699.52 71.02 699.52 71.03 712.47 71.03 718.45 65.12 712.47 59.2 699.52 59.2"/><polygon class="cls-1" points="439.54 82.66 437.88 79.8 436.11 76.76 432.62 76.77 429.28 76.77 427.63 79.65 424.22 85.59 423.3 87.2 436.93 87.2 437.86 85.58 439.54 82.66"/><polygon class="cls-1" points="537.98 79.66 536.34 76.78 533 76.77 529.51 76.76 527.73 79.81 526.08 82.66 527.75 85.59 528.67 87.2 542.31 87.2 541.39 85.59 537.98 79.66"/><polygon class="cls-1" points="838.34 82.66 836.68 79.8 834.91 76.76 831.42 76.77 828.08 76.77 826.43 79.65 823.02 85.59 822.1 87.2 835.73 87.2 836.66 85.58 838.34 82.66"/><polygon class="cls-1" points="502.55 76.79 490.53 76.79 482.81 69.17 475.08 76.79 463.08 76.79 466.48 82.73 469.04 87.2 496.57 87.2 499.14 82.73 502.55 76.79"/><polygon class="cls-1" points="901.35 76.79 889.33 76.79 881.61 69.17 873.88 76.79 861.88 76.79 865.28 82.73 867.84 87.2 895.37 87.2 897.94 82.73 901.35 76.79"/><polygon class="cls-1" points="833.3 38.76 831.91 36.33 823.86 34.1 823.84 34.17 823.78 34.16 821.64 42.22 823.03 44.65 826.43 50.58 828.09 53.45 831.42 53.47 834.91 53.48 836.68 50.44 838.34 47.58 836.66 44.64 833.3 38.76"/><polygon class="cls-1" points="617.9 79.66 616.24 76.78 612.91 76.77 609.42 76.76 607.64 79.81 605.99 82.66 607.67 85.59 608.59 87.2 622.22 87.2 621.3 85.59 617.9 79.66"/><polygon class="cls-1" points="871.89 24.81 873.28 22.38 876.66 16.5 878.34 13.58 876.67 10.72 874.9 7.67 871.41 7.68 868.07 7.69 866.43 10.56 863.03 16.5 861.64 18.93 863.79 27.06 871.89 24.81"/><polygon class="cls-1" points="582.45 76.79 570.44 76.79 562.72 69.17 555 76.79 542.98 76.79 546.38 82.73 548.95 87.2 576.48 87.2 579.04 82.73 582.45 76.79"/><polygon class="cls-1" points="806.89 16.5 810.26 22.38 811.65 24.81 819.71 27.05 819.72 26.98 819.78 27 821.92 18.93 820.53 16.5 817.12 10.56 815.47 7.69 812.13 7.68 808.64 7.67 806.87 10.72 805.21 13.58 806.89 16.5"/><polygon class="cls-1" points="845.03 35.9 847.59 31.43 858.21 28.47 855.47 18.12 858.03 13.64 861.44 7.7 849.42 7.7 841.78 0.15 834.13 7.7 822.13 7.7 825.53 13.63 828.09 18.12 825.33 28.53 835.72 31.42 838.3 35.9 841.66 41.78 845.03 35.9"/><polygon class="cls-1" points="526.13 35.9 528.69 31.42 539.45 28.43 536.72 18.12 539.29 13.63 542.69 7.7 530.67 7.7 522.88 0 515.09 7.7 503.08 7.7 506.49 13.63 509.05 18.12 506.3 28.49 516.83 31.42 519.4 35.9 522.76 41.77 526.13 35.9"/><polygon class="cls-1" points="446.29 59.24 442.85 53.34 439.41 59.24 432.6 59.23 436 65.12 432.6 71.01 439.41 70.99 442.85 76.91 446.29 70.99 453.11 71.01 449.7 65.12 453.11 59.23 446.29 59.24"/><polygon class="cls-1" points="434.5 38.76 433.11 36.33 425.06 34.1 425.04 34.17 424.98 34.16 422.84 42.22 424.23 44.65 427.63 50.58 429.29 53.45 432.62 53.47 436.11 53.48 437.88 50.44 439.54 47.58 437.86 44.64 434.5 38.76"/><polygon class="cls-1" points="458.08 79.66 456.43 76.78 453.09 76.77 449.6 76.76 447.83 79.81 446.17 82.67 447.85 85.59 448.77 87.2 462.41 87.2 461.48 85.59 458.08 79.66"/><polygon class="cls-1" points="502.54 53.44 499.14 47.51 496.58 43.03 499.32 32.65 488.79 29.73 486.22 25.24 482.86 19.36 479.48 25.24 476.92 29.73 466.29 32.67 469.04 43.03 466.46 47.51 463.07 53.44 475.08 53.44 482.81 61.07 490.53 53.44 502.54 53.44"/><polygon class="cls-1" points="487.85 16.5 491.23 22.38 492.62 24.81 500.72 27.06 502.87 18.93 501.48 16.5 498.08 10.56 496.44 7.69 493.1 7.68 489.61 7.67 487.84 10.72 486.17 13.58 487.85 16.5"/><polygon class="cls-1" points="449.6 53.48 453.09 53.47 456.43 53.45 458.08 50.58 461.48 44.65 462.87 42.22 460.72 34.09 452.61 36.33 451.21 38.76 446.17 47.58 447.83 50.44 449.6 53.48"/><polygon class="cls-1" points="408.09 16.5 411.46 22.38 412.85 24.81 420.91 27.05 420.92 26.98 420.98 27 423.12 18.93 421.73 16.5 418.32 10.56 416.67 7.69 413.33 7.68 409.84 7.67 408.07 10.72 406.41 13.58 408.09 16.5"/><polygon class="cls-1" points="446.23 35.9 448.79 31.43 459.41 28.47 456.67 18.12 459.23 13.64 462.64 7.7 450.62 7.7 442.98 0.15 435.33 7.7 423.33 7.7 426.73 13.63 429.29 18.12 426.53 28.53 436.92 31.42 439.5 35.9 442.86 41.78 446.23 35.9"/><polygon class="cls-1" points="459.77 59.2 458.1 62.11 456.35 65.12 458.1 68.13 459.77 71.02 472.72 71.02 478.71 65.12 472.72 59.2 459.77 59.2"/><polygon class="cls-1" points="473.09 24.81 474.48 22.38 477.86 16.5 479.54 13.58 477.87 10.72 476.1 7.67 472.61 7.68 469.27 7.69 467.63 10.56 464.23 16.5 462.84 18.93 464.99 27.06 473.09 24.81"/><polygon class="cls-1" points="103.74 53.44 100.34 47.51 97.78 43.03 100.52 32.65 89.99 29.73 87.42 25.24 84.06 19.36 80.68 25.24 78.12 29.73 67.49 32.67 70.24 43.03 67.66 47.51 64.27 53.44 76.28 53.44 84.01 61.07 91.73 53.44 103.74 53.44"/><polygon class="cls-1" points="1237.14 82.66 1235.48 79.8 1233.71 76.76 1230.22 76.77 1226.88 76.77 1225.23 79.65 1221.82 85.59 1220.9 87.2 1234.53 87.2 1235.46 85.58 1237.14 82.66"/><polygon class="cls-1" points="1255.68 79.66 1254.03 76.78 1250.69 76.77 1247.2 76.76 1245.43 79.81 1243.77 82.67 1245.45 85.59 1246.37 87.2 1260.01 87.2 1259.08 85.59 1255.68 79.66"/><polygon class="cls-1" points="1300.14 53.44 1296.74 47.51 1294.18 43.03 1296.92 32.65 1286.39 29.73 1283.82 25.24 1280.46 19.36 1277.08 25.24 1274.52 29.73 1263.89 32.67 1266.64 43.03 1264.06 47.51 1260.67 53.44 1272.68 53.44 1280.41 61.07 1288.13 53.44 1300.14 53.44"/><polygon class="cls-1" points="1243.89 59.24 1240.45 53.34 1237.01 59.24 1230.2 59.23 1233.6 65.12 1230.2 71.01 1237.01 70.99 1240.45 76.91 1243.89 70.99 1250.71 71.01 1247.3 65.12 1250.71 59.23 1243.89 59.24"/><polygon class="cls-1" points="1257.37 59.2 1255.7 62.11 1253.95 65.12 1255.7 68.13 1257.37 71.02 1270.32 71.02 1276.31 65.12 1270.32 59.2 1257.37 59.2"/><polygon class="cls-1" points="1247.2 53.48 1250.69 53.47 1254.03 53.45 1255.68 50.58 1259.08 44.65 1260.47 42.22 1258.32 34.09 1250.21 36.33 1248.81 38.76 1243.77 47.58 1245.43 50.44 1247.2 53.48"/><polygon class="cls-1" points="1312 38.76 1310.61 36.33 1302.5 34.09 1300.35 42.22 1301.74 44.65 1305.15 50.58 1306.79 53.45 1310.12 53.47 1313.61 53.48 1315.38 50.44 1317.04 47.58 1315.37 44.64 1312 38.76"/><polygon class="cls-1" points="1303.44 59.2 1290.49 59.2 1284.51 65.11 1290.49 71.02 1303.44 71.02 1305.11 68.13 1306.86 65.12 1305.11 62.11 1303.44 59.2"/><polygon class="cls-1" points="1317.05 82.66 1315.39 79.8 1313.62 76.76 1310.13 76.77 1306.78 76.77 1305.14 79.65 1301.73 85.59 1300.81 87.2 1314.44 87.2 1315.37 85.58 1317.05 82.66"/><polygon class="cls-1" points="1285.45 16.5 1288.83 22.38 1290.22 24.81 1298.32 27.06 1300.47 18.93 1299.08 16.5 1295.68 10.56 1294.04 7.69 1290.7 7.68 1287.21 7.67 1285.44 10.72 1283.77 13.58 1285.45 16.5"/><polygon class="cls-1" points="1323.73 35.9 1326.29 31.42 1337.05 28.43 1334.32 18.12 1336.89 13.63 1340.29 7.7 1328.27 7.7 1320.48 0 1312.69 7.7 1300.68 7.7 1304.09 13.63 1306.65 18.12 1303.9 28.49 1314.43 31.42 1317 35.9 1320.36 41.77 1323.73 35.9"/><polygon class="cls-1" points="1300.15 76.79 1288.13 76.79 1280.41 69.17 1272.68 76.79 1260.68 76.79 1264.08 82.73 1266.64 87.2 1294.17 87.2 1296.74 82.73 1300.15 76.79"/><polygon class="cls-1" points="1270.69 24.81 1272.08 22.38 1275.46 16.5 1277.14 13.58 1275.47 10.72 1273.7 7.67 1270.21 7.68 1266.87 7.69 1265.23 10.56 1261.83 16.5 1260.44 18.93 1262.59 27.06 1270.69 24.81"/><polygon class="cls-1" points="1232.1 38.76 1230.71 36.33 1222.66 34.1 1222.64 34.17 1222.58 34.16 1220.44 42.22 1221.83 44.65 1225.23 50.58 1226.89 53.45 1230.22 53.47 1233.71 53.48 1235.48 50.44 1237.14 47.58 1235.46 44.64 1232.1 38.76"/><polygon class="cls-1" points="1243.83 35.9 1246.39 31.43 1257.01 28.47 1254.27 18.12 1256.83 13.64 1260.24 7.7 1248.22 7.7 1240.58 0.15 1232.93 7.7 1220.93 7.7 1224.33 13.63 1226.89 18.12 1224.13 28.53 1234.52 31.42 1237.1 35.9 1240.46 41.78 1243.83 35.9"/><polygon class="cls-1" points="1205.69 16.5 1209.06 22.38 1210.45 24.81 1218.51 27.05 1218.52 26.98 1218.58 27 1220.72 18.93 1219.33 16.5 1215.92 10.56 1214.27 7.69 1210.93 7.68 1207.44 7.67 1205.67 10.72 1204.01 13.58 1205.69 16.5"/><polygon class="cls-1" points="1539.91 76.79 1527.9 76.79 1520.17 69.16 1512.44 76.79 1500.43 76.79 1503.83 82.73 1506.39 87.2 1533.94 87.2 1536.51 82.73 1539.91 76.79"/><polygon class="cls-1" points="1556.81 82.66 1555.15 79.8 1553.38 76.76 1549.89 76.77 1546.55 76.77 1544.91 79.65 1541.5 85.59 1540.58 87.2 1554.21 87.2 1555.14 85.58 1556.81 82.66"/><polygon class="cls-1" points="1335.58 79.66 1333.94 76.78 1330.6 76.77 1327.11 76.76 1325.33 79.81 1323.68 82.66 1325.35 85.59 1326.27 87.2 1339.91 87.2 1338.99 85.59 1335.58 79.66"/><polygon class="cls-1" points="1380.05 76.79 1368.04 76.79 1360.32 69.17 1352.6 76.79 1340.58 76.79 1343.98 82.73 1346.55 87.2 1374.08 87.2 1376.64 82.73 1380.05 76.79"/><polygon class="cls-1" points="1415.5 79.66 1413.84 76.78 1410.51 76.77 1407.02 76.76 1405.24 79.81 1403.59 82.66 1405.27 85.59 1406.19 87.2 1419.82 87.2 1418.9 85.59 1415.5 79.66"/><polygon class="cls-1" points="1459.98 76.79 1447.97 76.79 1440.24 69.15 1432.51 76.79 1420.49 76.79 1423.89 82.73 1426.46 87.2 1454.01 87.2 1456.58 82.73 1459.98 76.79"/><polygon class="cls-1" points="1342.64 27.06 1350.75 24.81 1352.14 22.38 1355.52 16.5 1357.19 13.58 1355.54 10.72 1353.75 7.67 1350.26 7.68 1346.93 7.69 1345.28 10.56 1341.88 16.5 1340.49 18.93 1342.64 27.06"/><polygon class="cls-1" points="1380.05 53.44 1376.65 47.51 1374.08 43.03 1376.84 32.61 1366.45 29.73 1363.89 25.24 1360.51 19.36 1357.14 25.24 1354.57 29.73 1343.82 32.72 1346.55 43.03 1343.98 47.51 1340.57 53.44 1352.59 53.44 1360.31 61.07 1368.03 53.44 1380.05 53.44"/><polygon class="cls-1" points="1337.28 59.2 1335.6 62.11 1333.86 65.12 1335.6 68.13 1337.28 71.02 1337.28 71.03 1350.23 71.03 1356.21 65.12 1350.23 59.2 1337.28 59.2"/><polygon class="cls-1" points="1445.41 16.5 1448.79 22.38 1450.18 24.81 1458.25 27.06 1458.27 26.98 1458.31 26.99 1460.44 18.93 1459.05 16.5 1455.64 10.56 1454 7.69 1450.65 7.68 1447.16 7.67 1445.4 10.73 1443.74 13.58 1445.41 16.5"/><polygon class="cls-1" points="1459.98 53.44 1456.58 47.51 1454.02 43.03 1456.77 32.62 1446.36 29.73 1443.79 25.24 1440.42 19.36 1437.05 25.24 1434.48 29.73 1423.73 32.72 1426.46 43.03 1423.89 47.51 1420.48 53.44 1432.5 53.44 1440.24 61.09 1447.97 53.44 1459.98 53.44"/><polygon class="cls-1" points="1502.14 26.98 1502.16 27.05 1510.19 24.81 1511.6 22.38 1514.96 16.5 1516.64 13.58 1514.98 10.72 1513.21 7.67 1509.71 7.68 1506.37 7.69 1504.73 10.56 1501.33 16.5 1499.94 18.93 1502.07 27 1502.14 26.98"/><polygon class="cls-1" points="1417.18 59.2 1415.51 62.11 1413.77 65.12 1415.51 68.13 1417.18 71.02 1417.18 71.03 1430.13 71.03 1436.12 65.12 1430.13 59.2 1417.18 59.2"/><polygon class="cls-1" points="1422.55 27.06 1430.65 24.81 1432.05 22.38 1435.42 16.5 1437.09 13.58 1435.44 10.72 1433.66 7.67 1430.17 7.68 1426.83 7.69 1425.19 10.56 1421.78 16.5 1420.39 18.93 1422.55 27.06"/><polygon class="cls-1" points="1407.01 53.48 1410.51 53.47 1413.84 53.45 1415.48 50.58 1418.88 44.65 1420.27 42.22 1418.13 34.09 1410.02 36.33 1408.63 38.76 1405.27 44.64 1403.58 47.58 1405.24 50.44 1407.01 53.48"/><polygon class="cls-1" points="1323.79 59.24 1320.36 53.34 1316.92 59.24 1310.11 59.23 1313.5 65.12 1310.11 71.01 1316.92 70.99 1320.36 76.91 1323.8 70.99 1330.62 71.01 1327.21 65.12 1330.62 59.23 1323.79 59.24"/><polygon class="cls-1" points="1483.63 59.24 1480.2 53.34 1476.76 59.24 1469.95 59.23 1473.35 65.12 1469.95 71.01 1476.76 70.99 1480.2 76.91 1483.64 70.99 1490.46 71.01 1487.05 65.12 1490.46 59.23 1483.63 59.24"/><polygon class="cls-1" points="1486.95 53.48 1490.44 53.47 1493.78 53.45 1495.43 50.58 1498.82 44.65 1500.22 42.22 1498.08 34.16 1498.02 34.17 1498 34.1 1489.96 36.33 1488.56 38.76 1483.52 47.58 1485.18 50.44 1486.95 53.48"/><polygon class="cls-1" points="1497.12 59.2 1495.45 62.11 1493.7 65.12 1495.45 68.13 1497.12 71.02 1497.12 71.03 1510.07 71.03 1516.05 65.12 1510.07 59.2 1497.12 59.2"/><polygon class="cls-1" points="1463.29 59.2 1450.33 59.2 1444.35 65.11 1450.33 71.02 1463.29 71.02 1464.96 68.13 1466.7 65.12 1464.96 62.11 1463.29 59.2"/><polygon class="cls-1" points="1471.84 38.77 1470.45 36.34 1462.38 34.1 1462.35 34.18 1462.32 34.17 1460.19 42.22 1461.58 44.65 1464.98 50.58 1466.63 53.45 1469.96 53.47 1473.45 53.48 1475.22 50.44 1476.89 47.58 1475.21 44.65 1471.84 38.77"/><polygon class="cls-1" points="1483.58 35.9 1486.14 31.43 1496.53 28.54 1493.77 18.12 1496.34 13.64 1499.74 7.7 1487.73 7.7 1480.19 0.26 1472.67 7.7 1460.65 7.7 1464.06 13.64 1466.63 18.12 1463.87 28.53 1474.28 31.43 1476.85 35.9 1480.21 41.78 1483.58 35.9"/><polygon class="cls-1" points="1383.35 59.2 1370.4 59.2 1364.41 65.11 1370.4 71.02 1383.35 71.02 1385.03 68.13 1386.76 65.12 1385.03 62.11 1383.35 59.2"/><polygon class="cls-1" points="1327.11 53.48 1330.61 53.47 1333.94 53.45 1335.58 50.58 1338.98 44.65 1340.37 42.22 1338.23 34.09 1330.12 36.33 1328.73 38.76 1325.35 44.64 1323.68 47.58 1325.34 50.44 1327.11 53.48"/><polygon class="cls-1" points="1403.7 59.24 1400.26 53.34 1396.82 59.24 1390.01 59.23 1393.41 65.12 1390.01 71.01 1396.82 70.99 1400.26 76.91 1403.71 70.99 1410.52 71.01 1407.11 65.12 1410.52 59.23 1403.7 59.24"/><polygon class="cls-1" points="1403.63 35.9 1406.2 31.43 1416.96 28.44 1414.23 18.12 1416.8 13.64 1420.2 7.7 1408.18 7.7 1400.46 0.08 1392.75 7.7 1380.74 7.7 1384.15 13.64 1386.71 18.12 1383.95 28.54 1394.34 31.43 1396.9 35.9 1400.27 41.78 1403.63 35.9"/><polygon class="cls-1" points="1396.95 82.66 1395.29 79.8 1393.52 76.76 1390.03 76.77 1386.69 76.77 1385.04 79.65 1381.65 85.59 1380.72 87.2 1394.34 87.2 1395.27 85.58 1396.95 82.66"/><polygon class="cls-1" points="1391.9 38.76 1390.51 36.33 1382.47 34.1 1382.45 34.17 1382.39 34.16 1380.25 42.22 1381.64 44.65 1385.05 50.58 1386.69 53.45 1390.02 53.47 1393.51 53.48 1395.28 50.44 1396.96 47.58 1395.27 44.64 1391.9 38.76"/><polygon class="cls-1" points="1365.51 16.5 1368.88 22.38 1370.28 24.81 1378.31 27.05 1378.33 26.98 1378.4 27 1380.54 18.93 1379.14 16.5 1375.74 10.56 1374.09 7.69 1370.75 7.68 1367.26 7.67 1365.5 10.72 1363.83 13.58 1365.51 16.5"/><polygon class="cls-1" points="1595.2 65.12 1595.59 65.5 1595.97 65.12 1595.59 64.74 1595.2 65.12"/><polygon class="cls-1" points="1196.4 65.12 1196.79 65.5 1197.17 65.12 1196.79 64.74 1196.4 65.12"/><polygon class="cls-1" points="797.6 65.12 797.99 65.5 798.37 65.12 797.99 64.74 797.6 65.12"/><polygon class="cls-1" points="398.8 65.12 399.19 65.5 399.57 65.12 399.19 64.74 398.8 65.12"/></g></g></svg>