<svg xmlns="http://www.w3.org/2000/svg" viewBox="0 0 1921.59 95.29"><defs><style>.cls-1{fill:#b49b4b;}</style></defs><g id="Слой_2" data-name="Слой 2"><g id="Layer_1" data-name="Layer 1"><path class="cls-1" d="M1915.38,33.33l3.37-5.88,2.84,5V11l-2.83,4.87L1915.32,10l-6.82,0-6.66,0H1888.9L1879,.25l-4.11,4.05-5.7,5.63-.1.1h-12.95l-6.67,0-6.81,0-3.44,5.92L1835.77,10,1829,10l-6.66,0h-13l-6-5.91-4.09-4-4.11,4.05-4.26,4.21-1.73,1.7h-13l-6.65,0-6.82,0-3.43,5.92L1755.87,10l-6.81,0-6.67,0h-13l-6-5.91L1719.29,0l-4.17,4.12h0l-6,5.91h-12.95l-6.66,0-6.81,0-3.44,5.92L1675.81,10,1669,10l-6.66,0h-12.95l-5.92-5.84L1639.38.14l-4.1,4.05-5.07,5-.84.83h-12.95l-6.67,0-6.81,0-3.25,5.59v.33L1596.25,10l-6.81,0-6.66,0h-13l-5.9-5.83-4.1-4-4.1,4-5.35,5.29-.55.55h-12.95l-6.67,0-6.81,0L1520,15.91,1516.52,10l-6.82,0L1503,10H1490.1L1480.2.25l-4.11,4.05-5.7,5.63-.1.1h-13l-6.67,0-6.81,0-3.44,5.92L1437,10l-6.81,0-6.66,0h-13l-6-5.91-4.09-4-4.11,4.05-4.26,4.21-1.73,1.7h-12.95l-6.65,0L1364,10l-3.43,5.92L1357.07,10l-6.81,0-6.67,0h-12.95l-6-5.91L1320.49,0l-4.17,4.12h0l-6,5.91h-13l-6.66,0-6.81,0-3.44,5.92L1277,10l-6.81,0-6.66,0h-13l-5.92-5.84L1240.58.14l-4.1,4.05-5.07,5-.84.83h-13L1211,10l-6.81,0-3.25,5.59v.33L1197.45,10l-6.81,0L1184,10h-13l-5.9-5.83-4.1-4-4.1,4-5.35,5.29L1151,10h-13l-6.67,0-6.81,0-3.44,5.92L1117.72,10l-6.82,0-6.66,0H1091.3L1081.4.25l-4.11,4.05-5.7,5.63-.1.1h-13l-6.67,0-6.81,0-3.44,5.92L1038.17,10l-6.81,0-6.66,0h-13l-6-5.91-4.09-4-4.11,4.05L993.3,8.33,991.57,10h-13L972,10l-6.82,0-3.43,5.92L958.27,10l-6.81,0-6.67,0H931.84l-6-5.91L921.69,0l-4.17,4.12h0l-6,5.91H898.57l-6.66,0-6.81,0-3.44,5.92L878.21,10l-6.81,0-6.66,0h-13l-5.92-5.84L841.78.14l-4.1,4.05-5.07,5-.84.83H818.82l-6.67,0-6.81,0-3.25,5.59v.33L798.65,10l-6.81,0-6.66,0H772.23l-5.9-5.83-4.1-4-4.1,4-5.35,5.29-.55.55h-13l-6.67,0-6.81,0-3.44,5.92L718.92,10l-6.82,0-6.66,0H692.5L682.6.25,678.49,4.3l-5.7,5.63-.1.1h-13l-6.67,0-6.81,0-3.44,5.92L639.37,10l-6.81,0-6.66,0H613l-6-5.91-4.09-4-4.11,4.05L594.5,8.33,592.77,10H579.82l-6.65,0-6.82,0-3.43,5.92L559.47,10l-6.81,0L546,10H533l-6-5.91L522.89,0l-4.17,4.12h0l-6,5.91h-13l-6.66,0-6.81,0-3.44,5.92L479.41,10l-6.81,0-6.66,0H453l-5.92-5.84L443,.14l-4.1,4.05-5.07,5L433,10H420l-6.67,0-6.81,0-3.25,5.59v.33L399.85,10,393,10l-6.66,0H373.43l-5.9-5.83-4.1-4-4.1,4L354,9.48l-.55.55H340.48l-6.67,0L327,10l-3.44,5.92L320.12,10l-6.82,0-6.66,0H293.7L283.8.25,279.69,4.3,274,9.93l-.1.1H260.94l-6.67,0-6.81,0L244,15.91,240.57,10l-6.81,0-6.66,0H214.15l-6-5.91-4.09-4L200,4.12,195.7,8.33,194,10H181l-6.65,0-6.82,0-3.43,5.92L160.67,10l-6.81,0-6.67,0H134.24l-6-5.91L124.09,0l-4.17,4.12h0l-6,5.91H101l-6.66,0L87.5,10l-3.44,5.92L80.61,10,73.8,10l-6.66,0h-13L48.27,4.19,44.18.14l-4.1,4.05L35,9.2l-.84.83h-13l-6.67,0L7.74,10,4.49,15.58v12.2l3.18,5.55,2.57,4.49L20.63,40.7,17.87,51.12l2.56,4.48,3.4,5.93h-12L4.48,68.78,0,73.21l4.48,4.42,7.34,7.24h12l-3.4,5.94-2.56,4.48H24.5l.92-1.61,3.41-5.94,1.65-2.88h6.83l1.77,3,1.66,2.86-1.68,2.92-.93,1.62H50l-.92-1.61-1.68-2.92L49,87.9l1.77-3.05h6.83l1.65,2.88,3.4,5.93.93,1.61h6.63l-2.56-4.47-3.4-5.94h12L84,77.26l7.72,7.62h12l-3.41,5.94-2.57,4.47h6.64l.92-1.61,3.41-5.94,1.64-2.88h6.84l1.77,3,1.66,2.86L119,93.67,118,95.29h11.83L129,93.68l-1.67-2.93,1.65-2.85,1.78-3.05h6.83l1.64,2.88,3.41,5.93.92,1.61h6.64l-2.57-4.47-3.4-5.94h12l7.72-7.62,7.72,7.62h12l-3.41,5.94-2.56,4.47h6.64l.93-1.61,3.39-5.94,1.65-2.88h6.83l1.77,3,1.66,2.86-1.68,2.92-.93,1.62h11.85l-.92-1.61-1.68-2.93,1.65-2.85,1.78-3.05h6.82l1.66,2.88,3.4,5.93.92,1.61h6.64l-2.57-4.47-3.4-5.94h12l7.73-7.64,7.73,7.64h12l-3.4,5.94-2.57,4.47h6.64l.92-1.61,3.41-5.94,1.65-2.88h6.83l1.77,3,1.66,2.86-1.68,2.92-.93,1.62h11.84l-.92-1.61-1.68-2.93,1.66-2.85,1.78-3.05h6.82L299,87.75l3.4,5.93.93,1.61H310l-2.56-4.47L304,84.88h12l7.73-7.63,7.73,7.63h12l-3.4,5.94-2.57,4.47h6.64l.92-1.61,3.41-5.94,1.64-2.88H357l1.77,3,1.66,2.86-1.67,2.92-.93,1.62h11.83l-.93-1.61L367,90.75l1.66-2.85,1.77-3.05h6.83l1.64,2.88,3.41,5.93.92,1.61h6.64l-2.56-4.47L384,84.88h12l7.33-7.25h0l7.33,7.24h12l-3.4,5.94-2.56,4.48h6.64l.92-1.61,3.41-5.94,1.65-2.88h6.83l1.77,3,1.66,2.86-1.68,2.92-.93,1.62h11.84l-.92-1.61-1.68-2.92,1.66-2.86,1.77-3.05h6.83l1.65,2.88,3.4,5.93.93,1.61H469l-2.56-4.47-3.4-5.94h12l7.73-7.62,7.72,7.62h12l-3.41,5.94-2.57,4.47h6.64l.92-1.61,3.41-5.94,1.64-2.88H516l1.77,3,1.66,2.86-1.68,2.92-.93,1.62h11.83l-.92-1.61-1.67-2.93,1.65-2.85,1.78-3.05h6.83L538,87.75l3.41,5.93.92,1.61H549l-2.57-4.47L543,84.88h12l7.72-7.62,7.72,7.62h12L579,90.82l-2.56,4.47h6.64l.93-1.61,3.39-5.94,1.65-2.88h6.83l1.77,3,1.66,2.86-1.68,2.92-.93,1.62h11.85l-.92-1.61L606,90.75l1.65-2.85,1.78-3.05h6.82l1.66,2.88,3.4,5.93.92,1.61h6.64l-2.57-4.47-3.4-5.94h12l7.73-7.64,7.73,7.64h12L659,90.82l-2.57,4.47h6.64l.92-1.61,3.41-5.94L669,84.86h6.83l1.77,3,1.66,2.86-1.68,2.92-.93,1.62h11.84l-.92-1.61-1.68-2.93,1.66-2.85,1.78-3.05h6.82l1.65,2.88,3.4,5.93.93,1.61h6.63l-2.56-4.47-3.4-5.94h12l7.73-7.63,7.73,7.63h12l-3.4,5.94-2.57,4.47H743l.92-1.61,3.41-5.94L749,84.86h6.83l1.77,3,1.66,2.86-1.67,2.92-.93,1.62h11.83l-.93-1.61-1.67-2.93,1.66-2.85,1.77-3.05h6.83l1.64,2.88,3.41,5.93.92,1.61h6.64l-2.56-4.47-3.4-5.94h12l7.33-7.25h0l7.33,7.24h12L818,90.81l-2.56,4.48h6.64l.92-1.61,3.41-5.94,1.65-2.88h6.83l1.77,3,1.66,2.86-1.68,2.92-.93,1.62h11.84l-.92-1.61L845,90.76l1.66-2.86,1.77-3.05h6.83l1.65,2.88,3.4,5.93.93,1.61h6.63l-2.56-4.47-3.4-5.94h12l7.73-7.62,7.72,7.62h12l-3.41,5.94-2.57,4.47H902l.92-1.61,3.41-5.94L908,84.86h6.84l1.77,3,1.66,2.86-1.68,2.92-.93,1.62h11.83l-.92-1.61-1.67-2.93,1.65-2.85,1.78-3.05h6.83l1.64,2.88,3.41,5.93.92,1.61h6.64l-2.57-4.47-3.4-5.94h12l7.72-7.62,7.72,7.62h12l-3.41,5.94-2.56,4.47h6.64l.93-1.61,3.39-5.94,1.65-2.88h6.83l1.77,3,1.66,2.86-1.68,2.92-.93,1.62h11.85l-.92-1.61-1.68-2.93,1.65-2.85,1.78-3.05H1015l1.66,2.88,3.4,5.93.92,1.61h6.64l-2.57-4.47-3.4-5.94h12l7.73-7.64,7.73,7.64h12l-3.4,5.94-2.57,4.47h6.64l.92-1.61,3.41-5.94,1.65-2.88h6.83l1.77,3,1.66,2.86-1.68,2.92-.93,1.62h11.84l-.92-1.61-1.68-2.93,1.66-2.85,1.78-3.05H1095l1.65,2.88,3.4,5.93.93,1.61h6.63L1105,90.82l-3.4-5.94h12l7.73-7.63,7.73,7.63h12l-3.4,5.94-2.57,4.47h6.64l.92-1.61,3.41-5.94,1.64-2.88h6.83l1.77,3,1.66,2.86-1.67,2.92-.93,1.62h11.83l-.93-1.61-1.67-2.93,1.66-2.85,1.77-3.05h6.83l1.64,2.88,3.41,5.93.92,1.61h6.64L1185,90.82l-3.4-5.94h12l7.33-7.25h0l7.33,7.24h12l-3.4,5.94-2.56,4.48h6.64l.92-1.61,3.41-5.94,1.65-2.88h6.83l1.77,3,1.66,2.86-1.68,2.92-.93,1.62h11.84l-.92-1.61-1.68-2.92,1.66-2.86,1.77-3.05H1254l1.65,2.88,3.4,5.93.93,1.61h6.63l-2.56-4.47-3.4-5.94h12l7.73-7.62,7.72,7.62h12l-3.41,5.94-2.57,4.47h6.64l.92-1.61,3.41-5.94,1.64-2.88h6.84l1.77,3,1.66,2.86-1.68,2.92-.93,1.62h11.83l-.92-1.61-1.67-2.93,1.65-2.85,1.78-3.05h6.83l1.64,2.88,3.41,5.93.92,1.61h6.64L1344,90.82l-3.4-5.94h12l7.72-7.62,7.72,7.62h12l-3.41,5.94-2.56,4.47h6.64l.93-1.61,3.39-5.94,1.65-2.88h6.83l1.77,3,1.66,2.86-1.68,2.92-.93,1.62h11.85l-.92-1.61-1.68-2.93,1.65-2.85,1.78-3.05h6.82l1.66,2.88,3.4,5.93.92,1.61h6.64l-2.57-4.47-3.4-5.94h12l7.73-7.64,7.73,7.64h12l-3.4,5.94L1454,95.29h6.64l.92-1.61,3.41-5.94,1.65-2.88h6.83l1.77,3,1.66,2.86-1.68,2.92-.93,1.62h11.84l-.92-1.61-1.68-2.93,1.66-2.85,1.78-3.05h6.82l1.65,2.88,3.4,5.93.93,1.61h6.63l-2.56-4.47-3.4-5.94h12l7.73-7.63,7.73,7.63h12l-3.4,5.94-2.57,4.47h6.64l.92-1.61,3.41-5.94,1.64-2.88h6.83l1.77,3,1.66,2.86-1.67,2.92-.93,1.62H1566l-.93-1.61-1.67-2.93,1.66-2.85,1.77-3.05h6.83l1.64,2.88,3.41,5.93.92,1.61h6.64l-2.56-4.47-3.4-5.94h12l7.33-7.25h0l7.33,7.24h12l-3.4,5.94-2.56,4.48h6.64l.92-1.61,3.41-5.94,1.65-2.88h6.83l1.77,3,1.66,2.86-1.68,2.92-.93,1.62h11.84l-.92-1.61-1.68-2.92,1.66-2.86,1.77-3.05h6.83l1.65,2.88,3.4,5.93.93,1.61h6.63l-2.56-4.47-3.4-5.94h12l7.73-7.62,7.72,7.62h12l-3.41,5.94L1693,95.29h6.64l.92-1.61,3.41-5.94,1.64-2.88h6.84l1.77,3,1.66,2.86-1.68,2.92-.93,1.62h11.83l-.92-1.61-1.67-2.93,1.65-2.85,1.78-3.05h6.83l1.64,2.88,3.41,5.93.92,1.61h6.64l-2.57-4.47-3.4-5.94h12l7.72-7.62,7.72,7.62h12l-3.41,5.94-2.56,4.47h6.64l.93-1.61,3.39-5.94,1.65-2.88h6.83l1.77,3,1.66,2.86-1.68,2.92-.93,1.62H1805l-.92-1.61-1.68-2.93L1804,87.9l1.78-3.05h6.82l1.66,2.88,3.4,5.93.92,1.61h6.64l-2.57-4.47-3.4-5.94h12l7.73-7.64,7.73,7.64h12l-3.4,5.94-2.57,4.47h6.64l.92-1.61,3.41-5.94,1.65-2.88h6.83l1.77,3,1.66,2.86L1874,93.67l-.93,1.62h11.84l-.92-1.61-1.68-2.93L1884,87.9l1.78-3.05h6.82l1.65,2.88,3.4,5.93.93,1.61h6.63l-2.56-4.47-3.4-5.94h12l7.73-7.63,2.62,2.59V66.57l-2.63,2.6-7.73-7.64h-12l3.39-5.93,2.58-4.48-2.77-10.42,10.4-2.88Zm-43.91-17.54L1879,8.35l7.54,7.44h12l-3.4,5.94-2.57,4.48,2.76,10.42-10.39,2.89L1882.38,44,1879,49.87,1875.65,44l-2.57-4.47-10.41-2.9,2.76-10.41-2.57-4.48-3.41-5.94ZM1899,50.31l-1.4,2.43-3.39,5.93-1.65,2.87-3.34,0h-3.49l-1.77-3-1.66-2.86,5-8.82,1.4-2.43,8-2.23,0,.07h.06Zm-23.33,5.36L1874,58.53l-1.77,3h-3.49l-3.33,0-1.65-2.87-3.4-5.93L1859,50.31l2.13-8.05h0l0-.08,8.07,2.24,1.39,2.43,3.37,5.88ZM1844.2,18.82l1.76-3.06h6.84l1.64,2.87,3.41,5.94,1.39,2.43-2.13,8.06h0l0,.08L1849,32.9l-1.39-2.43-3.38-5.88-1.67-2.92Zm-23.62,5.77,3.41-5.94,1.64-2.87h6.83l1.78,3,1.65,2.86-1.67,2.92-3.37,5.88-1.4,2.43-8.1,2.25L1819.19,27Zm-29-8.8,7.71-7.62,7.72,7.62h12l-3.4,5.94L1813,26.21l2.73,10.32-10.76,3L1802.43,44l-3.36,5.88L1795.7,44l-2.56-4.47-10.39-2.89,2.76-10.42L1783,21.73l-3.41-5.94Zm27.52,34.52-1.39,2.43-3.4,5.93-1.64,2.87-3.33,0h-3.5l-1.77-3-1.66-2.86,1.69-2.94,3.36-5.88,1.39-2.43,8.11-2.24Zm-23.31,5.36-1.68,2.86-1.77,3h-3.49l-3.33,0-1.64-2.87-3.41-5.93-1.39-2.43,2.14-8.06h.06l0-.07,8,2.23,1.39,2.43,3.37,5.88ZM1764.3,18.81l1.76-3h6.83l1.65,2.87,3.4,5.94,1.4,2.43-2.14,8.07-.07,0,0,.07-8-2.24-1.4-2.43-3.37-5.88-1.68-2.92Zm-23.62,5.78,3.4-5.94,1.65-2.87h6.82l1.79,3,1.65,2.86-1.67,2.92-3.38,5.88-1.39,2.43-8.11,2.25L1739.29,27Zm-29.19-8.8,7.79-7.7,7.79,7.7h12l-3.4,5.93-2.57,4.49,2.73,10.31-10.76,3L1722.53,44l-3.37,5.87L1715.8,44l-2.57-4.48-10.53-2.93,2.75-10.37-2.56-4.49-3.41-5.93Zm27.68,34.52-1.39,2.43-3.4,5.93-1.64,2.87-3.33,0h-3.5l-1.77-3-1.66-2.86,1.67-2.94,3.38-5.88,1.39-2.43,8.11-2.24Zm-23.33,5.36-1.66,2.86-1.77,3h-3.49l-3.33,0L1704,58.67l-3.41-5.93-1.39-2.43,2.15-8.13,8.11,2.24,1.39,2.43,3.37,5.88Zm-31.6-36.86,1.77-3h6.83l1.64,2.87,3.4,5.94,1.39,2.43-2.15,8.13L1689,32.9l-1.39-2.43-3.38-5.88-1.68-2.92Zm-23.61,5.78,3.4-5.94,1.64-2.87h6.83l1.77,3,1.67,2.86-1.68,2.92-3.38,5.88-1.39,2.43-8.1,2.25L1659.24,27Zm-1.36,25.72-1.39,2.43-3.4,5.93-1.65,2.87-3.34,0H1646l-1.77-3-1.66-2.86,5-8.82,1.4-2.43,8.11-2.24Zm-27.54-34.52,7.65-7.55,7.64,7.55h12l-3.41,5.94-2.56,4.48,2.74,10.35-10.62,3L1642.63,44l-3.37,5.88L1635.9,44l-2.58-4.48-10.39-2.89,2.76-10.41-2.56-4.49-3.4-5.93Zm4.21,39.88-1.66,2.86-1.77,3H1629l-3.33,0L1624,58.67l-3.4-5.93-1.39-2.43,2.14-8.06h.06l0-.07,8,2.23,1.39,2.43,3.36,5.88Zm-31.47-36.86,1.77-3h6.83l1.65,2.87,3.41,5.94,1.39,2.43-2.14,8.07-.06,0v.07l-8.06-2.24-1.39-2.43-3.37-5.88-1.68-2.92Zm-23.39,5.78,3.39-5.94,1.65-2.87H1593l1.76,3,1.67,2.86-1.68,2.92-3.37,5.88-1.4,2.43-7.86,2.18v0l-.24.07L1579.67,27Zm-.95,25.72-1.39,2.43-3.4,5.93-1.65,2.87-3.33,0h-3.49l-1.77-3-1.66-2.86,5-8.82,1.4-2.43,7.87-2.18v0l.23-.06Zm-27.94-34.52,7.63-7.54,7.64,7.54h12l-3.41,5.94-2.57,4.48,2.78,10.47-10.23,2.84L1563.49,44l-3.37,5.88L1556.76,44l-2.56-4.47-10.77-3,2.73-10.31-2.57-4.48-3.41-5.94Zm-9.93,26.39,8.11,2.24,1.39,2.43,3.37,5.88,1.67,2.94-1.66,2.86-1.76,3h-3.5l-3.33,0-1.65-2.87-3.4-5.93-1.39-2.43Zm-17.32-23.37,1.77-3h6.83l1.64,2.87,3.4,5.94L1540,27l-2.14,8.13-8.11-2.25-1.39-2.43L1525,24.59l-1.67-2.92Zm-23.61,5.78,3.4-5.94,1.64-2.87h6.84l1.77,3,1.66,2.86L1515,24.59l-3.36,5.88-1.41,2.43-8,2.24,0-.07-.07,0L1499.94,27Zm-1.11,25.72-1.4,2.43-3.39,5.93-1.65,2.87-3.34,0H1487l-1.77-3-1.66-2.86,5-8.82,1.4-2.43,8-2.23,0,.07h.06Zm-27.55-34.52,7.52-7.44,7.54,7.44h12l-3.4,5.94-2.57,4.48,2.76,10.42-10.39,2.89L1483.58,44l-3.37,5.88L1476.85,44l-2.57-4.47-10.41-2.9,2.76-10.41-2.57-4.48-3.41-5.94Zm4.22,39.88-1.67,2.86-1.77,3H1470l-3.33,0L1465,58.67l-3.4-5.93-1.39-2.43,2.13-8.05h0l0-.08,8.07,2.24,1.39,2.43,3.37,5.88ZM1445.4,18.82l1.76-3.06H1454l1.64,2.87,3.41,5.94,1.39,2.43-2.13,8.06h0l0,.08-8.07-2.25-1.39-2.43-3.38-5.88-1.67-2.92Zm-23.62,5.77,3.41-5.94,1.64-2.87h6.83l1.78,3,1.65,2.86-1.67,2.92-3.37,5.88-1.4,2.43-8.1,2.25L1420.39,27Zm-29-8.8,7.71-7.62,7.72,7.62h12l-3.4,5.94-2.57,4.48L1417,36.53l-10.76,3L1403.63,44l-3.36,5.88L1396.9,44l-2.56-4.47L1384,36.63l2.76-10.42-2.56-4.48-3.41-5.94Zm27.52,34.52-1.39,2.43-3.4,5.93-1.64,2.87-3.33,0H1407l-1.77-3-1.66-2.86,1.69-2.94,3.36-5.88,1.39-2.43,8.11-2.24ZM1397,55.67l-1.68,2.86-1.77,3H1390l-3.33,0-1.64-2.87-3.41-5.93-1.39-2.43,2.14-8.06h.06l0-.07,8,2.23,1.39,2.43,3.37,5.88ZM1365.5,18.81l1.76-3h6.83l1.65,2.87,3.4,5.94,1.4,2.43-2.14,8.07-.07,0,0,.07-8-2.24-1.4-2.43-3.37-5.88-1.68-2.92Zm-23.62,5.78,3.4-5.94,1.65-2.87h6.82l1.79,3,1.65,2.86-1.67,2.92-3.38,5.88-1.39,2.43-8.11,2.25L1340.49,27Zm-29.19-8.8,7.79-7.7,7.79,7.7h12l-3.4,5.93-2.57,4.49,2.73,10.31-10.76,3L1323.73,44l-3.37,5.87L1317,44l-2.57-4.48-10.53-2.93,2.75-10.37-2.56-4.49-3.41-5.93Zm27.68,34.52L1339,52.74l-3.4,5.93-1.64,2.87-3.33,0h-3.5l-1.77-3-1.66-2.86,1.67-2.94,3.38-5.88,1.39-2.43,8.11-2.24ZM1317,55.67l-1.66,2.86-1.77,3h-3.49l-3.33,0-1.64-2.87-3.41-5.93-1.39-2.43,2.15-8.13,8.11,2.24,1.39,2.43,3.37,5.88Zm-31.6-36.86,1.77-3H1294l1.64,2.87,3.4,5.94,1.39,2.43-2.15,8.13-8.1-2.25-1.39-2.43-3.38-5.88-1.68-2.92Zm-23.61,5.78,3.4-5.94,1.64-2.87h6.83l1.77,3,1.67,2.86-1.68,2.92-3.38,5.88-1.39,2.43-8.1,2.25L1260.44,27Zm-1.36,25.72-1.39,2.43-3.4,5.93L1254,61.54l-3.34,0h-3.49l-1.77-3-1.66-2.86,5-8.82,1.4-2.43,8.11-2.24Zm-27.54-34.52,7.65-7.55,7.64,7.55h12l-3.41,5.94-2.56,4.48L1257,36.56l-10.62,3L1243.83,44l-3.37,5.88L1237.1,44l-2.58-4.48-10.39-2.89,2.76-10.41-2.56-4.49-3.4-5.93Zm4.21,39.88-1.66,2.86-1.77,3h-3.49l-3.33,0-1.66-2.87-3.4-5.93-1.39-2.43,2.14-8.06h.06l0-.07,8,2.23,1.39,2.43,3.36,5.88Zm-31.47-36.86,1.77-3h6.83l1.65,2.87,3.41,5.94,1.39,2.43-2.14,8.07-.06,0v.07l-8.06-2.24-1.39-2.43-3.37-5.88L1204,21.67Zm-23.39,5.78,3.39-5.94,1.65-2.87h6.83l1.76,3,1.67,2.86-1.68,2.92-3.37,5.88-1.4,2.43-7.86,2.18v0l-.24.07L1180.87,27Zm-1,25.72-1.39,2.43-3.4,5.93-1.65,2.87-3.33,0h-3.49l-1.77-3-1.66-2.86,5-8.82,1.4-2.43,7.87-2.18v0l.23-.06Zm-27.94-34.52L1161,8.25l7.64,7.54h12l-3.41,5.94-2.57,4.48,2.78,10.47-10.23,2.84L1164.69,44l-3.37,5.88L1158,44l-2.56-4.47-10.77-3,2.73-10.31-2.57-4.48-3.41-5.94Zm-9.93,26.39,8.11,2.24,1.39,2.43,3.37,5.88,1.67,2.94-1.66,2.86-1.76,3h-3.5l-3.33,0-1.65-2.87-3.4-5.93-1.39-2.43Zm-17.32-23.37,1.77-3h6.83l1.64,2.87,3.4,5.94,1.39,2.43L1139,35.15l-8.11-2.25-1.39-2.43-3.38-5.88-1.67-2.92Zm-23.61,5.78,3.4-5.94,1.64-2.87h6.84l1.77,3,1.66,2.86-1.68,2.92-3.36,5.88-1.41,2.43-8,2.24,0-.07-.07,0L1101.14,27Zm-1.11,25.72-1.4,2.43-3.39,5.93L1095,61.54l-3.34,0h-3.49l-1.77-3-1.66-2.86,5-8.82,1.4-2.43,8-2.23,0,.07h.06Zm-27.55-34.52,7.52-7.44,7.54,7.44h12l-3.4,5.94L1095,26.21l2.76,10.42-10.39,2.89L1084.78,44l-3.37,5.88L1078.05,44l-2.57-4.47-10.41-2.9,2.76-10.41-2.57-4.48-3.41-5.94Zm4.22,39.88-1.67,2.86-1.77,3h-3.49l-3.33,0-1.65-2.87-3.4-5.93-1.39-2.43,2.13-8.05h0l0-.08,8.07,2.24,1.39,2.43,3.37,5.88ZM1046.6,18.82l1.76-3.06h6.84l1.64,2.87,3.41,5.94,1.39,2.43-2.13,8.06h0l0,.08-8.07-2.25L1050,30.47l-3.38-5.88-1.67-2.92ZM1023,24.59l3.41-5.94,1.64-2.87h6.83l1.78,3,1.65,2.86-1.67,2.92-3.37,5.88-1.4,2.43-8.1,2.25L1021.59,27Zm-29-8.8,7.71-7.62,7.72,7.62h12l-3.4,5.94-2.57,4.48,2.73,10.32-10.76,3L1004.83,44l-3.36,5.88L998.1,44l-2.56-4.47-10.39-2.89,2.76-10.42-2.56-4.48-3.41-5.94Zm27.52,34.52-1.39,2.43-3.4,5.93L1015,61.54l-3.33,0h-3.5l-1.77-3-1.66-2.86,1.69-2.94,3.36-5.88,1.39-2.43,8.11-2.24Zm-23.31,5.36-1.68,2.86-1.77,3h-3.49l-3.33,0-1.64-2.87-3.41-5.93-1.39-2.43,2.14-8.06h.06l0-.07,8,2.23,1.39,2.43,3.37,5.88ZM966.7,18.81l1.76-3h6.83l1.65,2.87,3.4,5.94,1.4,2.43-2.14,8.07-.07,0,0,.07-8-2.24-1.4-2.43-3.37-5.88L965,21.67Zm-23.62,5.78,3.4-5.94,1.65-2.87H955l1.79,3,1.65,2.86-1.67,2.92-3.38,5.88L952,32.9l-8.11,2.25L941.69,27Zm-29.19-8.8,7.79-7.7,7.79,7.7h12l-3.4,5.93-2.57,4.49,2.73,10.31-10.76,3L924.93,44l-3.37,5.87L918.2,44l-2.57-4.48L905.1,36.58l2.75-10.37-2.56-4.49-3.41-5.93Zm27.68,34.52-1.39,2.43-3.4,5.93-1.64,2.87-3.33,0h-3.5l-1.77-3-1.66-2.86,1.67-2.94,3.38-5.88,1.39-2.43,8.11-2.24Zm-23.33,5.36-1.66,2.86-1.77,3h-3.49l-3.33,0-1.64-2.87-3.41-5.93-1.39-2.43,2.15-8.13,8.11,2.24,1.39,2.43,3.37,5.88Zm-31.6-36.86,1.77-3h6.83l1.64,2.87,3.4,5.94L901.67,27l-2.15,8.13-8.1-2.25L890,30.47l-3.38-5.88L885,21.67ZM863,24.59l3.4-5.94,1.64-2.87h6.83l1.77,3,1.67,2.86-1.68,2.92-3.38,5.88-1.39,2.43-8.1,2.25L861.64,27Zm-1.36,25.72-1.39,2.43-3.4,5.93-1.65,2.87-3.34,0H848.4l-1.77-3L845,55.67l5-8.82,1.4-2.43,8.11-2.24ZM834.13,15.79l7.65-7.55,7.64,7.55h12L858,21.73l-2.56,4.48,2.74,10.35-10.62,3L845,44l-3.37,5.88L838.3,44l-2.58-4.48-10.39-2.89,2.76-10.41-2.56-4.49-3.4-5.93Zm4.21,39.88-1.66,2.86-1.77,3h-3.49l-3.33,0-1.66-2.87L823,52.74l-1.39-2.43,2.14-8.06h.06l0-.07,8,2.23,1.39,2.43,3.36,5.88ZM806.87,18.81l1.77-3h6.83l1.65,2.87,3.41,5.94L821.92,27l-2.14,8.07-.06,0v.07l-8.06-2.24-1.39-2.43-3.37-5.88-1.68-2.92Zm-23.39,5.78,3.39-5.94,1.65-2.87h6.83l1.76,3,1.67,2.86-1.68,2.92-3.37,5.88-1.4,2.43-7.86,2.18v0l-.24.07L782.07,27Zm-1,25.72-1.39,2.43-3.4,5.93-1.65,2.87-3.33,0h-3.49l-1.77-3-1.66-2.86,5-8.82,1.4-2.43,7.87-2.18v0l.23-.06ZM754.59,15.79l7.63-7.54,7.64,7.54h12l-3.41,5.94-2.57,4.48,2.78,10.47-10.23,2.84L765.89,44l-3.37,5.88L759.16,44l-2.56-4.47-10.77-3,2.73-10.31L746,21.73l-3.41-5.94Zm-9.93,26.39,8.11,2.24,1.39,2.43,3.37,5.88,1.67,2.94-1.66,2.86-1.76,3h-3.5l-3.33,0-1.65-2.87-3.4-5.93-1.39-2.43ZM727.34,18.81l1.77-3h6.83l1.64,2.87,3.4,5.94L742.37,27l-2.14,8.13-8.11-2.25-1.39-2.43-3.38-5.88-1.67-2.92Zm-23.61,5.78,3.4-5.94,1.64-2.87h6.84l1.77,3L719,21.67l-1.68,2.92L714,30.47l-1.41,2.43-8,2.24,0-.07-.07,0L702.34,27Zm-1.11,25.72-1.4,2.43-3.39,5.93-1.65,2.87-3.34,0h-3.49l-1.77-3-1.66-2.86,5-8.82,1.4-2.43,8-2.23,0,.07h.06ZM675.07,15.79l7.52-7.44,7.54,7.44h12l-3.4,5.94-2.57,4.48,2.76,10.42-10.39,2.89L686,44l-3.37,5.88L679.25,44l-2.57-4.47-10.41-2.9L669,26.21l-2.57-4.48-3.41-5.94Zm4.22,39.88-1.67,2.86-1.77,3h-3.49l-3.33,0-1.65-2.87L664,52.74l-1.39-2.43,2.13-8.05h0l0-.08,8.07,2.24,1.39,2.43,3.37,5.88ZM647.8,18.82l1.76-3.06h6.84L658,18.65l3.41,5.94L662.84,27l-2.13,8.06h0l0,.08-8.07-2.25-1.39-2.43-3.38-5.88-1.67-2.92Zm-23.62,5.77,3.41-5.94,1.64-2.87h6.83l1.78,3,1.65,2.86-1.67,2.92-3.37,5.88-1.4,2.43L625,35.15,622.79,27Zm-29-8.8,7.71-7.62,7.72,7.62h12l-3.4,5.94-2.57,4.48,2.73,10.32-10.76,3L606,44l-3.36,5.88L599.3,44l-2.56-4.47-10.39-2.89,2.76-10.42-2.56-4.48-3.41-5.94Zm27.52,34.52-1.39,2.43-3.4,5.93-1.64,2.87-3.33,0h-3.5l-1.77-3L606,55.67l1.69-2.94L611,46.85l1.39-2.43,8.11-2.24Zm-23.31,5.36-1.68,2.86-1.77,3h-3.49l-3.33,0-1.64-2.87L584,52.74l-1.39-2.43,2.14-8.06h.06l0-.07,8,2.23,1.39,2.43,3.37,5.88ZM567.9,18.81l1.76-3h6.83l1.65,2.87,3.4,5.94,1.4,2.43-2.14,8.07-.07,0,0,.07-8-2.24-1.4-2.43-3.37-5.88-1.68-2.92Zm-23.62,5.78,3.4-5.94,1.65-2.87h6.82l1.79,3,1.65,2.86-1.67,2.92-3.38,5.88-1.39,2.43L545,35.15,542.89,27Zm-29.19-8.8,7.79-7.7,7.79,7.7h12l-3.4,5.93-2.57,4.49,2.73,10.31-10.76,3L526.13,44l-3.37,5.87L519.4,44l-2.57-4.48L506.3,36.58l2.75-10.37-2.56-4.49-3.41-5.93Zm27.68,34.52-1.39,2.43L538,58.67l-1.64,2.87-3.33,0h-3.5l-1.77-3-1.66-2.86,1.67-2.94,3.38-5.88,1.39-2.43,8.11-2.24Zm-23.33,5.36-1.66,2.86-1.77,3h-3.49l-3.33,0-1.64-2.87-3.41-5.93-1.39-2.43,2.15-8.13L513,44.42l1.39,2.43,3.37,5.88Zm-31.6-36.86,1.77-3h6.83l1.64,2.87,3.4,5.94L502.87,27l-2.15,8.13-8.1-2.25-1.39-2.43-3.38-5.88-1.68-2.92Zm-23.61,5.78,3.4-5.94,1.64-2.87h6.83l1.77,3,1.67,2.86-1.68,2.92-3.38,5.88-1.39,2.43L465,35.15,462.84,27Zm-1.36,25.72-1.39,2.43-3.4,5.93-1.65,2.87-3.34,0H449.6l-1.77-3-1.66-2.86,5-8.82,1.4-2.43,8.11-2.24ZM435.33,15.79,443,8.24l7.64,7.55h12l-3.41,5.94-2.56,4.48,2.74,10.35-10.62,3L446.23,44l-3.37,5.88L439.5,44l-2.58-4.48-10.39-2.89,2.76-10.41-2.56-4.49-3.4-5.93Zm4.21,39.88-1.66,2.86-1.77,3h-3.49l-3.33,0-1.66-2.87-3.4-5.93-1.39-2.43L425,42.25H425l0-.07,8.05,2.23,1.39,2.43,3.36,5.88ZM408.07,18.81l1.77-3h6.83l1.65,2.87,3.41,5.94L423.12,27,421,35.09l-.06,0v.07l-8.06-2.24-1.39-2.43-3.37-5.88-1.68-2.92Zm-23.39,5.78,3.39-5.94,1.65-2.87h6.83l1.76,3L400,21.67l-1.68,2.92-3.37,5.88-1.4,2.43-7.86,2.18v0l-.24.07L383.27,27Zm-.95,25.72-1.39,2.43-3.4,5.93-1.65,2.87-3.33,0h-3.49l-1.77-3L367,55.67l5-8.82,1.4-2.43,7.87-2.18v0l.23-.06ZM355.79,15.79l7.63-7.54,7.64,7.54h12l-3.41,5.94-2.57,4.48,2.78,10.47-10.23,2.84L367.09,44l-3.37,5.88L360.36,44l-2.56-4.47-10.77-3,2.73-10.31-2.57-4.48-3.41-5.94Zm-9.93,26.39L354,44.42l1.39,2.43,3.37,5.88,1.67,2.94-1.66,2.86-1.76,3h-3.5l-3.33,0-1.65-2.87-3.4-5.93-1.39-2.43ZM328.54,18.81l1.77-3h6.83l1.64,2.87,3.4,5.94L343.57,27l-2.14,8.13-8.11-2.25-1.39-2.43-3.38-5.88-1.67-2.92Zm-23.61,5.78,3.4-5.94L310,15.78h6.84l1.77,3,1.66,2.86-1.68,2.92-3.36,5.88-1.41,2.43-8,2.24,0-.07-.07,0L303.54,27Zm-1.11,25.72-1.4,2.43L299,58.67l-1.65,2.87-3.34,0h-3.49l-1.77-3-1.66-2.86,5-8.82,1.4-2.43,8-2.23,0,.07h.06ZM276.27,15.79l7.52-7.44,7.54,7.44h12l-3.4,5.94-2.57,4.48,2.76,10.42-10.39,2.89L287.18,44l-3.37,5.88L280.45,44l-2.57-4.47-10.41-2.9,2.76-10.41-2.57-4.48-3.41-5.94Zm4.22,39.88-1.67,2.86-1.77,3h-3.49l-3.33,0-1.65-2.87-3.4-5.93-1.39-2.43,2.13-8.05h0l0-.08,8.07,2.24,1.39,2.43,3.37,5.88ZM249,18.82l1.76-3.06h6.84l1.64,2.87,3.41,5.94L264,27l-2.13,8.06h0l0,.08-8.07-2.25-1.39-2.43L249,24.59l-1.67-2.92Zm-23.62,5.77,3.41-5.94,1.64-2.87h6.83l1.78,3,1.65,2.86L239,24.59l-3.37,5.88-1.4,2.43-8.1,2.25L224,27Zm-29-8.8,7.71-7.62,7.72,7.62h12l-3.4,5.94-2.57,4.48,2.73,10.32-10.76,3L207.23,44l-3.36,5.88L200.5,44l-2.56-4.47-10.39-2.89,2.76-10.42-2.56-4.48-3.41-5.94Zm27.52,34.52-1.39,2.43-3.4,5.93-1.64,2.87-3.33,0h-3.5l-1.77-3-1.66-2.86,1.69-2.94,3.36-5.88,1.39-2.43,8.11-2.24Zm-23.31,5.36-1.68,2.86-1.77,3h-3.49l-3.33,0-1.64-2.87-3.41-5.93-1.39-2.43L186,42.25h.06l0-.07,8,2.23,1.39,2.43,3.37,5.88ZM169.1,18.81l1.76-3h6.83l1.65,2.87,3.4,5.94,1.4,2.43L182,35.09l-.07,0,0,.07-8-2.24-1.4-2.43-3.37-5.88-1.68-2.92Zm-23.62,5.78,3.4-5.94,1.65-2.87h6.82l1.79,3,1.65,2.86-1.67,2.92-3.38,5.88-1.39,2.43-8.11,2.25L144.09,27Zm-29.19-8.8,7.79-7.7,7.79,7.7h12l-3.4,5.93-2.57,4.49,2.73,10.31-10.76,3L127.33,44,124,49.86,120.6,44,118,39.51,107.5,36.58l2.75-10.37-2.56-4.49-3.41-5.93ZM144,50.31l-1.39,2.43-3.4,5.93-1.64,2.87-3.33,0h-3.5l-1.77-3-1.66-2.86L129,52.73l3.38-5.88,1.39-2.43,8.11-2.24Zm-23.33,5.36L119,58.53l-1.77,3h-3.49l-3.33,0-1.64-2.87-3.41-5.93L104,50.31l2.15-8.13,8.11,2.24,1.39,2.43L119,52.73ZM89,18.81l1.77-3h6.83l1.64,2.87,3.4,5.94L104.07,27l-2.15,8.13-8.1-2.25-1.39-2.43-3.38-5.88-1.68-2.92ZM65.43,24.59l3.4-5.94,1.64-2.87H77.3l1.77,3,1.67,2.86-1.68,2.92-3.38,5.88L74.29,32.9l-8.1,2.25L64,27ZM64.07,50.31l-1.39,2.43-3.4,5.93-1.65,2.87-3.34,0H50.8l-1.77-3-1.66-2.86,5-8.82,1.4-2.43,8.11-2.24ZM36.53,15.79l7.65-7.55,7.64,7.55h12l-3.41,5.94-2.56,4.48,2.74,10.35L50,39.52,47.43,44l-3.37,5.88L40.7,44l-2.58-4.48L27.73,36.62l2.76-10.41-2.56-4.49-3.4-5.93Zm4.21,39.88-1.66,2.86-1.77,3H33.82l-3.33,0-1.66-2.87-3.4-5.93L24,50.31l2.14-8.06h.06l0-.07,8.05,2.23,1.39,2.43,3.36,5.88ZM22.18,35.09l-.06,0v.07L14.05,32.9l-1.39-2.43L9.29,24.59,7.61,21.67l1.66-2.86,1.77-3h6.83l1.65,2.87,3.41,5.94L24.32,27Zm6.63,41.12-1.67,2.9h-13l-6-5.91,6-5.91h13l1.67,2.9,1.74,3Zm25.5,2.89-6.82,0L44.05,85l-3.44-5.92-6.81,0,3.4-5.89-3.4-5.89h6.81l3.44-5.9,3.44,5.9h6.82L50.9,73.21Zm19.61,0H61L59.3,76.22l-1.75-3,1.75-3L61,67.29h13l6,5.92Zm2.36-17.58h-12l3.39-5.93,2.58-4.48L67.49,40.76l10.63-2.94,2.56-4.49,3.38-5.88,3.36,5.88L90,37.82l10.53,2.92L97.78,51.12l2.56,4.48,3.4,5.93h-12L84,69.16Zm32.43,14.69L107,79.11h-13l-6-5.91,6-5.91h13l1.67,2.91,1.75,3Zm25.51,2.88-6.82,0L124,85l-3.44-5.92-6.81,0,3.39-5.89-3.39-5.89h6.81l3.44-5.9,3.43,5.9h6.83l-3.41,5.89Zm19.61,0h-13l-1.68-2.89-1.74-3,1.74-3,1.68-2.91h13l6,5.92Zm10.08-10-7.72-7.63h-12l3.41-5.93,2.57-4.48-2.73-10.31,10.75-3,2.57-4.49,3.37-5.88,3.38,5.88,2.56,4.49,10.39,2.88-2.76,10.42,2.57,4.48,3.4,5.93h-12Zm24.72,7.06L187,79.11H174l-6-5.91,6-5.91H187l1.68,2.91,1.73,3Zm25.49,2.88-6.81,0L203.86,85l-3.44-5.92-6.81,0,3.4-5.89-3.4-5.89h6.81l3.44-5.9,3.44,5.9h6.82l-3.41,5.89Zm19.61,0H220.78l-1.67-2.89-1.74-3,1.74-3,1.67-2.91h12.95l6,5.92Zm2.37-17.59h-12l3.41-5.93,2.57-4.48-2.73-10.31,10.75-3,2.57-4.49L244,27.45l3.37,5.88L250,37.82l10.41,2.89-2.75,10.41,2.56,4.48,3.4,5.93h-12l-7.73,7.65Zm32.46,14.69-1.67,2.89h-13l-6-5.91,6-5.91h13l1.67,2.91,1.74,3Zm25.5,2.88-6.82,0L283.8,85l-3.44-5.92-6.81,0,3.4-5.89-3.4-5.89h6.81l3.44-5.9,3.43,5.9h6.83l-3.41,5.89Zm19.61,0H300.72l-1.67-2.89-1.75-3,1.75-3,1.67-2.91h12.95l6,5.92Zm10.09-10L316,61.53H304l3.39-5.93L310,51.12,307.22,40.7l10.4-2.88,2.56-4.49,3.37-5.88,3.37,5.88,2.56,4.49,10.77,3-2.71,10.31,2.57,4.48,3.4,5.93h-12Zm24.72,7-1.68,2.89H333.85l-6-5.91,6-5.91H346.8l1.68,2.91,1.74,3ZM374,79.1l-6.81,0L363.72,85l-3.43-5.92-6.81,0,3.39-5.89-3.39-5.89h6.81l3.43-5.9,3.44,5.9H374l-3.4,5.89Zm19.62,0H380.64L379,76.22l-1.74-3,1.74-3,1.67-2.9h12.95l5.6,5.54-.39.38.39.38Zm9.69-10.34L396,61.53h-12l3.4-5.93,2.56-4.48-2.76-10.46,10.21-2.84,2.58-4.49,3.36-5.88v.33l3.18,5.55L409,37.82l10.39,2.88-2.76,10.42,2.56,4.48,3.4,5.93h-12l-7.33,7.25Zm24.33,7.43-1.67,2.9H413l-5.59-5.52.38-.38-.39-.39,5.6-5.53h13l1.67,2.9,1.74,3Zm25.5,2.89-6.82,0L442.85,85l-3.44-5.92-6.81,0,3.4-5.89-3.4-5.89h6.81l3.44-5.9,3.44,5.9h6.82l-3.41,5.89Zm19.61,0h-13l-1.67-2.89-1.75-3,1.75-3,1.67-2.91h13l6,5.92Zm2.36-17.58h-12l3.39-5.93L469,51.12l-2.75-10.36,10.63-2.94,2.56-4.49,3.38-5.88,3.36,5.88,2.57,4.49,10.53,2.92-2.74,10.38,2.56,4.48,3.4,5.93h-12l-7.72,7.63Zm32.43,14.69-1.67,2.89H492.89l-6-5.91,6-5.91h12.95l1.67,2.91,1.75,3ZM533,79.1l-6.82,0L522.76,85l-3.44-5.92-6.81,0,3.39-5.89-3.39-5.89h6.81l3.44-5.9,3.43,5.9H533l-3.41,5.89Zm19.61,0h-13L538,76.22l-1.74-3,1.74-3,1.68-2.91h13l6,5.92Zm10.08-10L555,61.53H543l3.41-5.93L549,51.12l-2.73-10.31,10.75-3,2.57-4.49,3.37-5.88,3.38,5.88,2.56,4.49,10.39,2.88-2.76,10.42,2.57,4.48,3.4,5.93h-12Zm24.72,7.06-1.68,2.89h-13l-6-5.91,6-5.91h13l1.68,2.91,1.73,3Zm25.49,2.88-6.81,0L602.66,85l-3.44-5.92-6.81,0,3.4-5.89-3.4-5.89h6.81l3.44-5.9,3.44,5.9h6.82l-3.41,5.89Zm19.61,0H619.58l-1.67-2.89-1.74-3,1.74-3,1.67-2.91h12.95l6,5.92Zm2.37-17.59h-12l3.41-5.93,2.57-4.48-2.73-10.31,10.75-3,2.57-4.49,3.37-5.88,3.37,5.88,2.57,4.49,10.41,2.89-2.75,10.41L659,55.6l3.4,5.93h-12l-7.73,7.65Zm32.46,14.69-1.67,2.89h-13l-6-5.91,6-5.91h13l1.67,2.91,1.74,3Zm25.5,2.88-6.82,0L682.6,85l-3.44-5.92-6.81,0,3.4-5.89-3.4-5.89h6.81l3.44-5.9,3.43,5.9h6.83l-3.41,5.89Zm19.61,0h-13l-1.67-2.89-1.75-3,1.75-3,1.67-2.91h13l6,5.92Zm10.09-10-7.73-7.64h-12l3.39-5.93,2.58-4.48L706,40.7l10.4-2.88L719,33.33l3.37-5.88,3.37,5.88,2.56,4.49,10.77,3-2.71,10.31,2.57,4.48,3.4,5.93h-12Zm24.72,7-1.68,2.89h-13l-6-5.91,6-5.91h13l1.68,2.91,1.74,3Zm25.49,2.88-6.81,0L762.52,85l-3.43-5.92-6.81,0,3.39-5.89-3.39-5.89h6.81l3.43-5.9,3.44,5.9h6.82l-3.4,5.89Zm19.62,0H779.44l-1.67-2.9-1.74-3,1.74-3,1.67-2.9h12.95l5.6,5.54-.39.38.39.38Zm9.69-10.34-7.33-7.25h-12l3.4-5.93,2.56-4.48-2.76-10.46,10.21-2.84,2.58-4.49,3.36-5.88v.33l3.18,5.55,2.57,4.49,10.39,2.88-2.76,10.42L818,55.6l3.4,5.93h-12l-7.33,7.25Zm24.33,7.43-1.67,2.9h-13l-5.59-5.52.38-.38-.39-.39,5.6-5.53h13l1.67,2.9,1.74,3Zm25.5,2.89-6.82,0L841.65,85l-3.44-5.92-6.81,0,3.4-5.89-3.4-5.89h6.81l3.44-5.9,3.44,5.9h6.82l-3.41,5.89Zm19.61,0H858.57l-1.67-2.89-1.75-3,1.75-3,1.67-2.91h12.95l6,5.92Zm2.36-17.58h-12l3.39-5.93,2.58-4.48-2.75-10.36,10.63-2.94,2.56-4.49,3.38-5.88L885,33.33l2.57,4.49,10.53,2.92-2.74,10.38,2.56,4.48,3.4,5.93h-12l-7.72,7.63Zm32.43,14.69-1.67,2.89H891.69l-6-5.91,6-5.91h12.95l1.67,2.91,1.75,3Zm25.51,2.88-6.82,0L921.56,85l-3.44-5.92-6.81,0,3.39-5.89-3.39-5.89h6.81l3.44-5.9,3.43,5.9h6.83l-3.41,5.89Zm19.61,0H938.48l-1.68-2.89-1.74-3,1.74-3,1.68-2.91h12.95l6,5.92Zm10.08-10-7.72-7.63h-12l3.41-5.93,2.57-4.48L945,40.81l10.75-3,2.57-4.49,3.37-5.88,3.38,5.88,2.56,4.49L978,40.7l-2.76,10.42,2.57,4.48,3.4,5.93h-12Zm24.72,7.06-1.68,2.89H971.6l-6-5.91,6-5.91h12.95l1.68,2.91,1.73,3Zm25.49,2.88-6.81,0L1001.46,85,998,79.08l-6.81,0,3.4-5.89-3.4-5.89H998l3.44-5.9,3.44,5.9h6.82l-3.41,5.89Zm19.61,0h-12.95l-1.67-2.89-1.74-3,1.74-3,1.67-2.91h12.95l6,5.92Zm2.37-17.59h-12l3.41-5.93,2.57-4.48-2.73-10.31,10.75-3,2.57-4.49,3.37-5.88,3.37,5.88,2.57,4.49L1058,40.71l-2.75,10.41,2.56,4.48,3.4,5.93h-12l-7.73,7.65Zm32.46,14.69-1.67,2.89h-13l-6-5.91,6-5.91h13l1.67,2.91,1.74,3Zm25.5,2.88-6.82,0L1081.4,85,1078,79.08l-6.81,0,3.4-5.89-3.4-5.89H1078l3.44-5.9,3.43,5.9h6.83l-3.41,5.89Zm19.61,0h-13l-1.67-2.89-1.75-3,1.75-3,1.67-2.91h13l6,5.92Zm10.09-10-7.73-7.64h-12L1105,55.6l2.58-4.48-2.77-10.42,10.4-2.88,2.56-4.49,3.37-5.88,3.37,5.88,2.56,4.49,10.77,3-2.71,10.31,2.57,4.48,3.4,5.93h-12Zm24.72,7-1.68,2.89h-13l-6-5.91,6-5.91h13l1.68,2.91,1.74,3Zm25.49,2.88-6.81,0L1161.32,85l-3.43-5.92-6.81,0,3.39-5.89-3.39-5.89h6.81l3.43-5.9,3.44,5.9h6.82l-3.4,5.89Zm19.62,0h-13l-1.67-2.9-1.74-3,1.74-3,1.67-2.9h13l5.6,5.54-.39.38.39.38Zm9.69-10.34-7.33-7.25h-12l3.4-5.93,2.56-4.48-2.76-10.46L1195,37.82l2.58-4.49,3.36-5.88v.33l3.18,5.55,2.57,4.49L1217,40.7l-2.76,10.42,2.56,4.48,3.4,5.93h-12l-7.33,7.25Zm24.33,7.43-1.67,2.9h-13L1205,73.59l.38-.38-.39-.39,5.6-5.53h13l1.67,2.9,1.74,3Zm25.5,2.89-6.82,0L1240.45,85,1237,79.08l-6.81,0,3.4-5.89-3.4-5.89H1237l3.44-5.9,3.44,5.9h6.82l-3.41,5.89Zm19.61,0h-13l-1.67-2.89-1.75-3,1.75-3,1.67-2.91h13l6,5.92Zm2.36-17.58h-12l3.39-5.93,2.58-4.48-2.75-10.36,10.63-2.94,2.56-4.49,3.38-5.88,3.36,5.88,2.57,4.49,10.53,2.92-2.74,10.38,2.56,4.48,3.4,5.93h-12l-7.72,7.63Zm32.43,14.69-1.67,2.89h-13l-6-5.91,6-5.91h13l1.67,2.91,1.75,3Zm25.51,2.88-6.82,0L1320.36,85l-3.44-5.92-6.81,0,3.39-5.89-3.39-5.89h6.81l3.44-5.9,3.43,5.9h6.83l-3.41,5.89Zm19.61,0h-13l-1.68-2.89-1.74-3,1.74-3,1.68-2.91h13l6,5.92Zm10.08-10-7.72-7.63h-12L1344,55.6l2.57-4.48-2.73-10.31,10.75-3,2.57-4.49,3.37-5.88,3.38,5.88,2.56,4.49,10.39,2.88-2.76,10.42,2.57,4.48,3.4,5.93h-12ZM1385,76.22l-1.68,2.89H1370.4l-6-5.91,6-5.91h12.95L1385,70.2l1.73,3Zm25.49,2.88-6.81,0L1400.26,85l-3.44-5.92-6.81,0,3.4-5.89-3.4-5.89h6.81l3.44-5.9,3.44,5.9h6.82l-3.41,5.89Zm19.61,0h-13l-1.67-2.89-1.74-3,1.74-3,1.67-2.91h13l6,5.92Zm2.37-17.59h-12l3.41-5.93,2.57-4.48-2.73-10.31,10.75-3,2.57-4.49,3.37-5.88,3.37,5.88,2.57,4.49,10.41,2.89L1454,51.12l2.56,4.48,3.4,5.93h-12l-7.73,7.65ZM1465,76.22l-1.67,2.89h-13l-6-5.91,6-5.91h13L1465,70.2l1.74,3Zm25.5,2.88-6.82,0L1480.2,85l-3.44-5.92-6.81,0,3.4-5.89-3.4-5.89h6.81l3.44-5.9,3.43,5.9h6.83l-3.41,5.89Zm19.61,0h-13l-1.67-2.89-1.75-3,1.75-3,1.67-2.91h13l6,5.92Zm10.09-10-7.73-7.64h-12l3.39-5.93,2.58-4.48-2.77-10.42,10.4-2.88,2.56-4.49,3.37-5.88,3.37,5.88,2.56,4.49,10.77,3-2.71,10.31,2.57,4.48,3.4,5.93h-12Zm24.72,7-1.68,2.89h-13l-6-5.91,6-5.91h13l1.68,2.91,1.74,3Zm25.49,2.88-6.81,0L1560.12,85l-3.43-5.92-6.81,0,3.39-5.89-3.39-5.89h6.81l3.43-5.9,3.44,5.9h6.82l-3.4,5.89Zm19.62,0h-13l-1.67-2.9-1.74-3,1.74-3,1.67-2.9h13l5.6,5.54-.39.38.39.38Zm9.69-10.34-7.33-7.25h-12l3.4-5.93,2.56-4.48-2.76-10.46,10.21-2.84,2.58-4.49,3.36-5.88v.33l3.18,5.55,2.57,4.49,10.39,2.88-2.76,10.42,2.56,4.48,3.4,5.93h-12l-7.33,7.25ZM1624,76.21l-1.67,2.9h-13l-5.59-5.52.38-.38-.39-.39,5.6-5.53h13l1.67,2.9,1.74,3Zm25.5,2.89-6.82,0L1639.25,85l-3.44-5.92-6.81,0,3.4-5.89-3.4-5.89h6.81l3.44-5.9,3.44,5.9h6.82l-3.41,5.89Zm19.61,0h-12.95l-1.67-2.89-1.75-3,1.75-3,1.67-2.91h12.95l6,5.92Zm2.36-17.58h-12l3.39-5.93,2.58-4.48-2.75-10.36,10.63-2.94,2.56-4.49,3.38-5.88,3.36,5.88,2.57,4.49,10.53,2.92L1693,51.12l2.56,4.48,3.4,5.93h-12l-7.72,7.63Zm32.43,14.69-1.67,2.89h-13l-6-5.91,6-5.91h13l1.67,2.91,1.75,3Zm25.51,2.88-6.82,0L1719.16,85l-3.44-5.92-6.81,0,3.39-5.89-3.39-5.89h6.81l3.44-5.9,3.43,5.9h6.83L1726,73.21Zm19.61,0h-13l-1.68-2.89-1.74-3,1.74-3,1.68-2.91h13l6,5.92Zm10.08-10-7.72-7.63h-12l3.41-5.93,2.57-4.48-2.73-10.31,10.75-3,2.57-4.49,3.37-5.88,3.38,5.88,2.56,4.49,10.39,2.88-2.76,10.42,2.57,4.48,3.4,5.93h-12Zm24.72,7.06-1.68,2.89h-13l-6-5.91,6-5.91h13l1.68,2.91,1.73,3Zm25.49,2.88-6.81,0L1799.06,85l-3.44-5.92-6.81,0,3.4-5.89-3.4-5.89h6.81l3.44-5.9,3.44,5.9h6.82l-3.41,5.89Zm19.61,0h-13l-1.67-2.89-1.74-3,1.74-3,1.67-2.91h13l6,5.92Zm2.37-17.59h-12l3.41-5.93,2.57-4.48-2.73-10.31,10.75-3,2.57-4.49,3.37-5.88,3.37,5.88,2.57,4.49,10.41,2.89-2.75,10.41,2.56,4.48,3.4,5.93h-12L1839,69.18Zm32.46,14.69-1.67,2.89h-13l-6-5.91,6-5.91h13l1.67,2.91,1.74,3Zm25.5,2.88-6.82,0L1879,85l-3.44-5.92-6.81,0,3.4-5.89-3.4-5.89h6.81l3.44-5.9,3.43,5.9h6.83l-3.41,5.89Zm19.61-11.81,6,5.92-6,5.91h-12.95l-1.67-2.89-1.75-3,1.75-3,1.67-2.91ZM1909,32.9l-8,2.24,0-.07-.07,0L1898.74,27l1.39-2.43,3.4-5.94,1.64-2.87H1912l1.77,3,1.66,2.86-1.68,2.92-3.36,5.88Z"/></g></g></svg>