<svg xmlns="http://www.w3.org/2000/svg" viewBox="0 0 1921.59 87.2"><defs><style>.cls-1{fill:#b49b4b;opacity:0.15;}</style></defs><g id="Слой_2" data-name="Слой 2"><g id="Layer_1" data-name="Layer 1"><polygon class="cls-1" points="1500.43 10.41 1512.44 10.41 1520.17 18.04 1527.9 10.41 1539.91 10.41 1536.51 4.47 1533.94 0 1506.39 0 1503.83 4.47 1500.43 10.41"/><polygon class="cls-1" points="1544.91 7.55 1546.55 10.43 1549.89 10.43 1553.38 10.44 1555.15 7.4 1556.81 4.54 1555.14 1.62 1554.21 0 1540.58 0 1541.5 1.61 1544.91 7.55"/><polygon class="cls-1" points="1577.04 27.99 1589.99 27.99 1589.99 28 1595.59 22.46 1595.2 22.08 1595.59 21.7 1589.99 16.17 1577.04 16.17 1575.37 19.07 1573.63 22.08 1575.37 25.09 1577.04 27.99"/><polygon class="cls-1" points="1473.45 33.72 1469.96 33.73 1466.63 33.75 1464.98 36.62 1461.58 42.55 1460.19 44.98 1462.32 53.03 1462.35 53.02 1462.38 53.1 1470.45 50.86 1471.84 48.43 1475.21 42.55 1476.89 39.62 1475.22 36.76 1473.45 33.72"/><polygon class="cls-1" points="1476.76 27.96 1480.2 33.86 1483.63 27.96 1490.46 27.97 1487.05 22.08 1490.46 16.19 1483.64 16.21 1480.2 10.29 1476.76 16.21 1469.95 16.19 1473.35 22.08 1469.95 27.97 1476.76 27.96"/><polygon class="cls-1" points="1497.12 28 1510.07 28 1516.05 22.08 1510.07 16.17 1497.12 16.17 1497.12 16.18 1495.45 19.07 1493.7 22.08 1495.45 25.09 1497.12 28"/><polygon class="cls-1" points="1463.29 28 1464.96 25.09 1466.7 22.08 1464.96 19.07 1463.29 16.18 1450.33 16.18 1444.35 22.09 1450.33 28 1463.29 28"/><polygon class="cls-1" points="1464.98 7.55 1466.63 10.43 1469.97 10.43 1473.46 10.44 1475.23 7.4 1476.89 4.54 1475.21 1.62 1474.28 0 1460.65 0 1461.57 1.61 1464.98 7.55"/><polygon class="cls-1" points="1420.48 33.76 1423.89 39.69 1426.46 44.17 1423.73 54.48 1434.48 57.47 1437.05 61.96 1440.42 67.84 1443.79 61.96 1446.36 57.47 1456.77 54.58 1454.02 44.17 1456.58 39.69 1459.98 33.76 1447.97 33.76 1440.24 26.11 1432.5 33.76 1420.48 33.76"/><polygon class="cls-1" points="1483.52 4.54 1485.18 7.39 1486.96 10.44 1490.44 10.43 1493.78 10.42 1495.43 7.54 1498.83 1.61 1499.76 0 1486.12 0 1485.2 1.61 1483.52 4.54"/><polygon class="cls-1" points="1425.19 76.64 1426.83 79.51 1430.17 79.52 1433.66 79.53 1435.44 76.48 1437.09 73.62 1435.42 70.7 1432.05 64.82 1430.65 62.39 1422.55 60.14 1420.39 68.27 1421.78 70.7 1425.19 76.64"/><polygon class="cls-1" points="1458.27 60.22 1458.25 60.14 1450.18 62.39 1448.79 64.82 1445.41 70.7 1443.74 73.62 1445.4 76.47 1447.16 79.53 1450.65 79.52 1454 79.51 1455.64 76.64 1459.05 70.7 1460.44 68.27 1458.31 60.21 1458.27 60.22"/><polygon class="cls-1" points="1495.43 36.62 1493.78 33.75 1490.44 33.73 1486.95 33.72 1485.18 36.76 1483.52 39.62 1488.56 48.44 1489.96 50.87 1498 53.1 1498.02 53.03 1498.08 53.04 1500.22 44.98 1498.82 42.55 1495.43 36.62"/><polygon class="cls-1" points="1540.18 79.5 1552.19 79.5 1559.82 87.04 1567.46 79.5 1579.48 79.5 1576.07 73.56 1573.5 69.08 1576.28 58.61 1566.05 55.77 1563.49 51.3 1560.12 45.42 1556.76 51.3 1554.2 55.77 1543.43 58.77 1546.16 69.08 1543.59 73.56 1540.18 79.5"/><polygon class="cls-1" points="1594.7 70.7 1591.33 64.82 1589.93 62.39 1582.07 60.21 1582.06 60.23 1581.82 60.16 1579.67 68.27 1581.08 70.7 1584.47 76.64 1586.12 79.51 1589.46 79.52 1592.95 79.53 1594.71 76.48 1596.38 73.62 1594.7 70.7"/><polygon class="cls-1" points="1575.34 36.62 1573.69 33.75 1570.36 33.73 1566.87 33.72 1565.1 36.76 1563.44 39.62 1568.48 48.44 1569.88 50.87 1577.75 53.05 1577.76 53.03 1577.99 53.09 1580.13 44.98 1578.74 42.55 1575.34 36.62"/><polygon class="cls-1" points="1476.85 51.3 1474.28 55.77 1463.87 58.67 1466.63 69.08 1464.06 73.56 1460.65 79.5 1472.67 79.5 1480.19 86.94 1487.73 79.5 1499.74 79.5 1496.34 73.56 1493.77 69.08 1496.53 58.66 1486.14 55.77 1483.58 51.3 1480.21 45.42 1476.85 51.3"/><polygon class="cls-1" points="1563.44 4.54 1565.1 7.39 1566.87 10.44 1570.36 10.43 1573.7 10.42 1575.34 7.54 1578.75 1.61 1579.67 0 1566.04 0 1565.11 1.61 1563.44 4.54"/><polygon class="cls-1" points="1500.42 33.76 1503.81 39.69 1506.39 44.17 1503.62 54.59 1514.02 57.47 1516.58 61.96 1519.95 67.84 1523.32 61.96 1525.88 57.47 1536.65 54.48 1533.94 44.17 1536.51 39.69 1539.91 33.76 1527.89 33.76 1520.16 26.12 1512.43 33.76 1500.42 33.76"/><polygon class="cls-1" points="1543.2 28 1544.88 25.09 1546.62 22.08 1544.88 19.07 1543.2 16.18 1530.25 16.18 1524.27 22.09 1530.25 28 1543.2 28"/><polygon class="cls-1" points="1544.9 36.62 1541.5 42.55 1540.11 44.98 1542.26 53.11 1550.37 50.87 1551.76 48.44 1555.13 42.56 1556.8 39.62 1555.14 36.76 1553.38 33.72 1549.88 33.73 1546.55 33.75 1544.9 36.62"/><polygon class="cls-1" points="1526.71 79.53 1530.2 79.52 1533.54 79.51 1535.18 76.64 1538.58 70.7 1539.97 68.27 1537.83 60.14 1529.72 62.39 1528.33 64.82 1524.95 70.7 1523.28 73.62 1524.94 76.48 1526.71 79.53"/><polygon class="cls-1" points="1556.69 27.96 1560.12 33.86 1563.56 27.96 1570.38 27.97 1566.98 22.08 1570.37 16.19 1563.56 16.21 1560.12 10.29 1556.69 16.21 1549.88 16.19 1553.27 22.08 1549.88 27.97 1556.69 27.96"/><polygon class="cls-1" points="1514.96 70.7 1511.6 64.82 1510.19 62.39 1502.16 60.15 1502.14 60.22 1502.07 60.2 1499.94 68.27 1501.33 70.7 1504.73 76.64 1506.37 79.51 1509.71 79.52 1513.21 79.53 1514.98 76.48 1516.64 73.62 1514.96 70.7"/><polygon class="cls-1" points="918.2 51.3 915.63 55.78 905.1 58.71 907.85 69.08 905.29 73.57 901.88 79.5 913.89 79.5 921.68 87.2 929.47 79.5 941.49 79.5 938.09 73.57 935.52 69.08 938.25 58.77 927.49 55.78 924.93 51.3 921.56 45.43 918.2 51.3"/><polygon class="cls-1" points="891.42 62.39 890.03 64.82 886.65 70.7 884.97 73.62 886.64 76.48 888.41 79.53 891.9 79.52 895.24 79.51 896.88 76.64 900.28 70.7 901.67 68.27 899.52 60.14 891.42 62.39"/><polygon class="cls-1" points="929.93 48.44 931.32 50.87 939.43 53.11 941.57 44.98 940.18 42.55 936.78 36.62 935.14 33.75 931.81 33.73 928.31 33.72 926.54 36.76 924.88 39.62 926.55 42.56 929.93 48.44"/><polygon class="cls-1" points="838.3 51.3 835.72 55.78 825.33 58.67 828.09 69.08 825.53 73.57 822.13 79.5 834.13 79.5 841.78 87.05 849.42 79.5 861.44 79.5 858.03 73.56 855.47 69.08 858.21 58.73 847.59 55.77 845.03 51.3 841.66 45.42 838.3 51.3"/><polygon class="cls-1" points="904.64 28 906.31 25.09 908.06 22.08 906.31 19.07 904.64 16.18 891.69 16.18 885.71 22.09 891.69 28 904.64 28"/><polygon class="cls-1" points="938.48 28 951.43 28 957.41 22.08 951.43 16.17 938.48 16.17 938.48 16.18 936.8 19.07 935.06 22.08 936.8 25.09 938.48 28"/><polygon class="cls-1" points="876.66 70.7 873.28 64.82 871.89 62.39 863.79 60.14 861.64 68.27 863.03 70.7 866.43 76.64 868.07 79.51 871.41 79.52 874.9 79.53 876.67 76.48 878.34 73.62 876.66 70.7"/><polygon class="cls-1" points="861.87 33.76 865.26 39.69 867.84 44.17 865.09 54.53 875.72 57.47 878.28 61.96 881.66 67.84 885.02 61.96 887.59 57.47 898.12 54.55 895.38 44.17 897.94 39.69 901.34 33.76 889.33 33.76 881.61 26.13 873.88 33.76 861.87 33.76"/><polygon class="cls-1" points="941.77 33.76 945.18 39.69 947.75 44.17 945.02 54.48 955.77 57.47 958.34 61.96 961.71 67.84 965.09 61.96 967.65 57.47 978.04 54.59 975.28 44.17 977.85 39.69 981.25 33.76 969.23 33.76 961.51 26.13 953.79 33.76 941.77 33.76"/><polygon class="cls-1" points="914.81 33.72 911.32 33.73 907.99 33.75 906.35 36.62 902.94 42.55 901.55 44.98 903.7 53.11 911.81 50.87 913.2 48.44 916.57 42.56 918.24 39.62 916.58 36.76 914.81 33.72"/><polygon class="cls-1" points="906.34 7.55 907.98 10.43 911.33 10.43 914.82 10.44 916.59 7.4 918.25 4.54 916.57 1.62 915.64 0 902.01 0 902.93 1.61 906.34 7.55"/><polygon class="cls-1" points="918.12 27.96 921.56 33.86 924.99 27.96 931.82 27.97 928.41 22.08 931.82 16.19 925 16.21 921.56 10.29 918.12 16.21 911.31 16.19 914.7 22.08 911.31 27.97 918.12 27.96"/><polygon class="cls-1" points="946.48 76.64 948.13 79.51 951.46 79.52 954.95 79.53 956.74 76.48 958.39 73.62 956.72 70.7 953.34 64.82 951.95 62.39 943.84 60.14 941.69 68.27 943.08 70.7 946.48 76.64"/><polygon class="cls-1" points="1026.39 76.64 1028.03 79.51 1031.37 79.52 1034.86 79.53 1036.64 76.48 1038.29 73.62 1036.62 70.7 1033.25 64.82 1031.85 62.39 1023.75 60.14 1021.59 68.27 1022.98 70.7 1026.39 76.64"/><polygon class="cls-1" points="1018.38 28 1031.33 28 1037.32 22.08 1031.33 16.17 1018.38 16.17 1018.38 16.18 1016.71 19.07 1014.97 22.08 1016.71 25.09 1018.38 28"/><polygon class="cls-1" points="1021.68 33.76 1025.09 39.69 1027.66 44.17 1024.93 54.48 1035.68 57.47 1038.25 61.96 1041.62 67.84 1044.99 61.96 1047.56 57.47 1057.97 54.58 1055.22 44.17 1057.78 39.69 1061.18 33.76 1049.17 33.76 1041.44 26.11 1033.7 33.76 1021.68 33.76"/><polygon class="cls-1" points="1009.83 48.44 1011.22 50.87 1019.33 53.11 1021.47 44.98 1020.08 42.55 1016.68 36.62 1015.04 33.75 1011.71 33.73 1008.21 33.72 1006.44 36.76 1004.78 39.62 1006.47 42.56 1009.83 48.44"/><polygon class="cls-1" points="1417.18 28 1430.13 28 1436.12 22.08 1430.13 16.17 1417.18 16.17 1417.18 16.18 1415.51 19.07 1413.77 22.08 1415.51 25.09 1417.18 28"/><polygon class="cls-1" points="998.02 27.96 1001.46 33.86 1004.9 27.96 1011.72 27.97 1008.31 22.08 1011.72 16.19 1004.91 16.21 1001.46 10.29 998.02 16.21 991.21 16.19 994.61 22.08 991.21 27.97 998.02 27.96"/><polygon class="cls-1" points="998.1 51.3 995.54 55.77 985.15 58.66 987.91 69.08 985.35 73.56 981.94 79.5 993.95 79.5 1001.66 87.12 1009.38 79.5 1021.4 79.5 1018 73.56 1015.43 69.08 1018.16 58.76 1007.4 55.77 1004.83 51.3 1001.47 45.42 998.1 51.3"/><polygon class="cls-1" points="1420.49 10.41 1432.51 10.41 1440.24 18.05 1447.97 10.41 1459.98 10.41 1456.58 4.47 1454.01 0 1426.46 0 1423.89 4.47 1420.49 10.41"/><polygon class="cls-1" points="986.24 7.55 987.89 10.43 991.23 10.43 994.72 10.44 996.49 7.4 998.15 4.54 996.47 1.62 995.54 0 981.92 0 982.85 1.61 986.24 7.55"/><polygon class="cls-1" points="984.55 28 986.23 25.09 987.96 22.08 986.23 19.07 984.55 16.18 971.6 16.18 965.61 22.09 971.6 28 984.55 28"/><polygon class="cls-1" points="979.53 60.22 979.51 60.15 971.48 62.39 970.08 64.82 966.71 70.7 965.03 73.62 966.7 76.48 968.46 79.53 971.95 79.52 975.29 79.51 976.94 76.64 980.34 70.7 981.74 68.27 979.6 60.2 979.53 60.22"/><polygon class="cls-1" points="994.71 33.72 991.22 33.73 987.89 33.75 986.25 36.62 982.84 42.55 981.45 44.98 983.59 53.04 983.65 53.03 983.67 53.1 991.71 50.87 993.1 48.44 996.47 42.56 998.16 39.62 996.48 36.76 994.71 33.72"/><polygon class="cls-1" points="819.72 60.22 819.71 60.15 811.65 62.39 810.26 64.82 806.89 70.7 805.21 73.62 806.87 76.48 808.64 79.53 812.13 79.52 815.47 79.51 817.12 76.64 820.53 70.7 821.92 68.27 819.78 60.2 819.72 60.22"/><polygon class="cls-1" points="1323.68 4.54 1325.33 7.39 1327.11 10.44 1330.6 10.43 1333.94 10.42 1335.58 7.54 1338.99 1.61 1339.91 0 1326.27 0 1325.35 1.61 1323.68 4.54"/><polygon class="cls-1" points="1403.59 4.54 1405.24 7.39 1407.02 10.44 1410.51 10.43 1413.84 10.42 1415.5 7.54 1418.9 1.61 1419.82 0 1406.19 0 1405.27 1.61 1403.59 4.54"/><polygon class="cls-1" points="1340.58 10.41 1352.6 10.41 1360.32 18.03 1368.04 10.41 1380.05 10.41 1376.64 4.47 1374.08 0 1346.55 0 1343.98 4.47 1340.58 10.41"/><polygon class="cls-1" points="838.21 27.96 841.65 33.86 845.09 27.96 851.91 27.97 848.5 22.08 851.91 16.19 845.09 16.21 841.65 10.29 838.21 16.21 831.4 16.19 834.8 22.08 831.4 27.97 838.21 27.96"/><polygon class="cls-1" points="856.88 36.62 855.23 33.75 851.89 33.73 848.4 33.72 846.63 36.76 844.97 39.62 850.01 48.44 851.41 50.87 859.52 53.11 861.67 44.98 860.28 42.55 856.88 36.62"/><polygon class="cls-1" points="858.57 28 871.52 28 877.51 22.08 871.52 16.18 858.57 16.18 856.9 19.07 855.15 22.08 856.9 25.09 858.57 28"/><polygon class="cls-1" points="834.91 33.72 831.42 33.73 828.09 33.75 826.43 36.62 823.03 42.55 821.64 44.98 823.78 53.04 823.84 53.03 823.86 53.1 831.91 50.87 833.3 48.44 836.66 42.56 838.34 39.62 836.68 36.76 834.91 33.72"/><polygon class="cls-1" points="1260.68 10.41 1272.68 10.41 1280.41 18.03 1288.13 10.41 1300.15 10.41 1296.74 4.47 1294.17 0 1266.64 0 1264.08 4.47 1260.68 10.41"/><polygon class="cls-1" points="826.43 7.55 828.08 10.43 831.42 10.43 834.91 10.44 836.68 7.4 838.34 4.54 836.66 1.62 835.73 0 822.1 0 823.02 1.61 826.43 7.55"/><polygon class="cls-1" points="1702.24 28 1703.91 25.09 1705.66 22.08 1703.91 19.07 1702.24 16.18 1689.29 16.18 1683.31 22.09 1689.29 28 1702.24 28"/><polygon class="cls-1" points="1715.8 51.3 1713.23 55.78 1702.7 58.71 1705.45 69.08 1702.89 73.57 1699.48 79.5 1711.49 79.5 1719.28 87.2 1727.07 79.5 1739.09 79.5 1735.69 73.57 1733.12 69.08 1735.85 58.77 1725.09 55.78 1722.53 51.3 1719.16 45.43 1715.8 51.3"/><polygon class="cls-1" points="1689.02 62.39 1687.63 64.82 1684.25 70.7 1682.57 73.62 1684.24 76.48 1686.01 79.53 1689.5 79.52 1692.84 79.51 1694.48 76.64 1697.88 70.7 1699.27 68.27 1697.12 60.14 1689.02 62.39"/><polygon class="cls-1" points="1727.53 48.44 1728.92 50.87 1737.03 53.11 1739.17 44.98 1737.78 42.55 1734.38 36.62 1732.74 33.75 1729.41 33.73 1725.91 33.72 1724.14 36.76 1722.48 39.62 1724.15 42.56 1727.53 48.44"/><polygon class="cls-1" points="1712.41 33.72 1708.92 33.73 1705.59 33.75 1703.95 36.62 1700.54 42.55 1699.15 44.98 1701.3 53.11 1709.41 50.87 1710.8 48.44 1714.17 42.56 1715.84 39.62 1714.18 36.76 1712.41 33.72"/><polygon class="cls-1" points="1739.37 33.76 1742.78 39.69 1745.35 44.17 1742.62 54.48 1753.37 57.47 1755.94 61.96 1759.31 67.84 1762.69 61.96 1765.25 57.47 1775.64 54.59 1772.88 44.17 1775.45 39.69 1778.85 33.76 1766.83 33.76 1759.11 26.13 1751.39 33.76 1739.37 33.76"/><polygon class="cls-1" points="1408.63 48.44 1410.02 50.87 1418.13 53.11 1420.27 44.98 1418.88 42.55 1415.48 36.62 1413.84 33.75 1410.51 33.73 1407.01 33.72 1405.24 36.76 1403.58 39.62 1405.27 42.56 1408.63 48.44"/><polygon class="cls-1" points="1744.08 76.64 1745.73 79.51 1749.06 79.52 1752.55 79.53 1754.34 76.48 1755.99 73.62 1754.32 70.7 1750.94 64.82 1749.55 62.39 1741.44 60.14 1739.29 68.27 1740.68 70.7 1744.08 76.64"/><polygon class="cls-1" points="1617.32 60.22 1617.31 60.15 1609.25 62.39 1607.86 64.82 1604.49 70.7 1602.81 73.62 1604.47 76.48 1606.24 79.53 1609.73 79.52 1613.07 79.51 1614.72 76.64 1618.13 70.7 1619.52 68.27 1617.38 60.2 1617.32 60.22"/><polygon class="cls-1" points="1632.51 33.72 1629.02 33.73 1625.69 33.75 1624.03 36.62 1620.63 42.55 1619.24 44.98 1621.38 53.04 1621.44 53.03 1621.46 53.1 1629.51 50.87 1630.9 48.44 1634.26 42.56 1635.94 39.62 1634.28 36.76 1632.51 33.72"/><polygon class="cls-1" points="1635.9 51.3 1633.32 55.78 1622.93 58.67 1625.69 69.08 1623.13 73.57 1619.73 79.5 1631.73 79.5 1639.38 87.05 1647.02 79.5 1659.04 79.5 1655.63 73.56 1653.07 69.08 1655.81 58.73 1645.19 55.77 1642.63 51.3 1639.26 45.42 1635.9 51.3"/><polygon class="cls-1" points="1703.94 7.55 1705.58 10.43 1708.93 10.43 1712.42 10.44 1714.19 7.4 1715.85 4.54 1714.17 1.62 1713.24 0 1699.61 0 1700.53 1.61 1703.94 7.55"/><polygon class="cls-1" points="1715.72 27.96 1719.16 33.86 1722.59 27.96 1729.42 27.97 1726.01 22.08 1729.42 16.19 1722.6 16.21 1719.16 10.29 1715.72 16.21 1708.91 16.19 1712.3 22.08 1708.91 27.97 1715.72 27.96"/><polygon class="cls-1" points="1674.26 70.7 1670.88 64.82 1669.49 62.39 1661.39 60.14 1659.24 68.27 1660.63 70.7 1664.03 76.64 1665.67 79.51 1669.01 79.52 1672.5 79.53 1674.27 76.48 1675.94 73.62 1674.26 70.7"/><polygon class="cls-1" points="1659.47 33.76 1662.86 39.69 1665.44 44.17 1662.69 54.53 1673.32 57.47 1675.88 61.96 1679.26 67.84 1682.62 61.96 1685.19 57.47 1695.72 54.55 1692.98 44.17 1695.54 39.69 1698.94 33.76 1686.93 33.76 1679.21 26.13 1671.48 33.76 1659.47 33.76"/><polygon class="cls-1" points="1783.84 7.55 1785.49 10.43 1788.83 10.43 1792.32 10.44 1794.09 7.4 1795.75 4.54 1794.07 1.62 1793.14 0 1779.52 0 1780.45 1.61 1783.84 7.55"/><polygon class="cls-1" points="1656.17 28 1669.12 28 1675.11 22.08 1669.12 16.18 1656.17 16.18 1654.5 19.07 1652.75 22.08 1654.5 25.09 1656.17 28"/><polygon class="cls-1" points="1823.99 76.64 1825.63 79.51 1828.97 79.52 1832.46 79.53 1834.24 76.48 1835.89 73.62 1834.22 70.7 1830.85 64.82 1829.45 62.39 1821.35 60.14 1819.19 68.27 1820.58 70.7 1823.99 76.64"/><polygon class="cls-1" points="1815.98 28 1828.93 28 1834.92 22.08 1828.93 16.17 1815.98 16.17 1815.98 16.18 1814.31 19.07 1812.57 22.08 1814.31 25.09 1815.98 28"/><polygon class="cls-1" points="1863.78 7.55 1865.43 10.43 1868.77 10.43 1872.26 10.44 1874.03 7.4 1875.69 4.54 1874.01 1.62 1873.08 0 1859.45 0 1860.37 1.61 1863.78 7.55"/><polygon class="cls-1" points="1882.32 4.54 1883.98 7.39 1885.76 10.44 1889.24 10.43 1892.58 10.42 1894.23 7.54 1897.63 1.61 1898.56 0 1884.92 0 1884 1.61 1882.32 4.54"/><polygon class="cls-1" points="1872.25 33.72 1868.76 33.73 1865.43 33.75 1863.78 36.62 1860.38 42.55 1858.99 44.98 1861.12 53.03 1861.15 53.02 1861.18 53.1 1869.25 50.86 1870.64 48.43 1874.01 42.55 1875.69 39.62 1874.02 36.76 1872.25 33.72"/><polygon class="cls-1" points="1875.56 27.96 1879 33.86 1882.43 27.96 1889.26 27.97 1885.85 22.08 1889.26 16.19 1882.44 16.21 1879 10.29 1875.56 16.21 1868.75 16.19 1872.15 22.08 1868.75 27.97 1875.56 27.96"/><polygon class="cls-1" points="1819.28 33.76 1822.69 39.69 1825.26 44.17 1822.53 54.48 1833.28 57.47 1835.85 61.96 1839.22 67.84 1842.59 61.96 1845.16 57.47 1855.57 54.58 1852.82 44.17 1855.38 39.69 1858.78 33.76 1846.77 33.76 1839.04 26.11 1831.3 33.76 1819.28 33.76"/><polygon class="cls-1" points="1792.31 33.72 1788.82 33.73 1785.49 33.75 1783.85 36.62 1780.44 42.55 1779.05 44.98 1781.19 53.04 1781.25 53.03 1781.27 53.1 1789.31 50.87 1790.7 48.44 1794.07 42.56 1795.76 39.62 1794.08 36.76 1792.31 33.72"/><polygon class="cls-1" points="1807.43 48.44 1808.82 50.87 1816.93 53.11 1819.07 44.98 1817.68 42.55 1814.28 36.62 1812.64 33.75 1809.31 33.73 1805.81 33.72 1804.04 36.76 1802.38 39.62 1804.07 42.56 1807.43 48.44"/><polygon class="cls-1" points="1795.62 27.96 1799.06 33.86 1802.5 27.96 1809.32 27.97 1805.91 22.08 1809.32 16.19 1802.51 16.21 1799.06 10.29 1795.62 16.21 1788.81 16.19 1792.21 22.08 1788.81 27.97 1795.62 27.96"/><polygon class="cls-1" points="1782.15 28 1783.83 25.09 1785.56 22.08 1783.83 19.07 1782.15 16.18 1769.2 16.18 1763.21 22.09 1769.2 28 1782.15 28"/><polygon class="cls-1" points="1777.13 60.22 1777.11 60.15 1769.08 62.39 1767.68 64.82 1764.31 70.7 1762.63 73.62 1764.3 76.48 1766.06 79.53 1769.55 79.52 1772.89 79.51 1774.54 76.64 1777.94 70.7 1779.34 68.27 1777.2 60.2 1777.13 60.22"/><polygon class="cls-1" points="1795.7 51.3 1793.14 55.77 1782.75 58.66 1785.51 69.08 1782.95 73.56 1779.54 79.5 1791.55 79.5 1799.26 87.12 1806.98 79.5 1819 79.5 1815.6 73.56 1813.03 69.08 1815.76 58.76 1805 55.77 1802.43 51.3 1799.07 45.42 1795.7 51.3"/><polygon class="cls-1" points="383.94 33.76 387.34 39.69 389.9 44.17 387.14 54.63 397.35 57.47 399.93 61.96 403.29 67.84 403.29 67.51 406.47 61.96 409.04 57.47 419.43 54.59 416.67 44.17 419.23 39.69 422.63 33.76 410.62 33.76 403.29 26.52 395.95 33.76 383.94 33.76"/><polygon class="cls-1" points="383.95 10.41 395.95 10.41 403.29 17.66 410.62 10.42 422.62 10.42 419.22 4.48 416.66 0 389.91 0 387.35 4.47 383.95 10.41"/><polygon class="cls-1" points="1654.48 36.62 1652.83 33.75 1649.49 33.73 1646 33.72 1644.23 36.76 1642.57 39.62 1647.61 48.44 1649.01 50.87 1657.12 53.11 1659.27 44.98 1657.88 42.55 1654.48 36.62"/><polygon class="cls-1" points="412.98 28 425.94 28 427.61 25.1 429.35 22.09 427.61 19.08 425.94 16.18 412.98 16.18 407.39 21.7 407.77 22.08 407.38 22.47 412.98 28"/><polygon class="cls-1" points="1609.38 28 1622.34 28 1624.01 25.1 1625.75 22.09 1624.01 19.08 1622.34 16.18 1609.38 16.18 1603.79 21.7 1604.17 22.08 1603.78 22.47 1609.38 28"/><polygon class="cls-1" points="1888.76 50.87 1896.8 53.1 1896.82 53.03 1896.88 53.04 1899.02 44.98 1897.62 42.55 1894.23 36.62 1892.58 33.75 1889.24 33.73 1885.75 33.72 1883.98 36.76 1882.32 39.62 1887.36 48.44 1888.76 50.87"/><polygon class="cls-1" points="1580.34 33.76 1583.74 39.69 1586.3 44.17 1583.54 54.63 1593.75 57.47 1596.33 61.96 1599.69 67.84 1599.69 67.51 1602.87 61.96 1605.44 57.47 1615.83 54.59 1613.07 44.17 1615.63 39.69 1619.03 33.76 1607.02 33.76 1599.68 26.52 1592.35 33.76 1580.34 33.76"/><polygon class="cls-1" points="1580.35 10.41 1592.35 10.41 1599.68 17.66 1607.02 10.42 1619.02 10.42 1615.62 4.48 1613.06 0 1586.31 0 1583.75 4.47 1580.35 10.41"/><polygon class="cls-1" points="1624.03 7.55 1625.68 10.43 1629.02 10.43 1632.51 10.44 1634.28 7.4 1635.94 4.54 1634.26 1.62 1633.33 0 1619.7 0 1620.62 1.61 1624.03 7.55"/><polygon class="cls-1" points="1635.81 27.96 1639.25 33.86 1642.69 27.96 1649.51 27.97 1646.1 22.08 1649.51 16.19 1642.69 16.21 1639.25 10.29 1635.81 16.21 1629 16.19 1632.4 22.08 1629 27.97 1635.81 27.96"/><polygon class="cls-1" points="1642.57 4.53 1644.23 7.39 1646 10.44 1649.49 10.43 1652.83 10.42 1654.48 7.54 1657.88 1.61 1658.81 0 1645.17 0 1644.25 1.61 1642.57 4.53"/><polygon class="cls-1" points="1181.54 33.76 1184.94 39.69 1187.5 44.17 1184.74 54.63 1194.95 57.47 1197.53 61.96 1200.89 67.84 1200.89 67.51 1204.07 61.96 1206.64 57.47 1217.03 54.59 1214.27 44.17 1216.83 39.69 1220.23 33.76 1208.22 33.76 1200.88 26.52 1193.55 33.76 1181.54 33.76"/><polygon class="cls-1" points="811.78 28 824.74 28 826.41 25.1 828.15 22.09 826.41 19.08 824.74 16.18 811.78 16.18 806.19 21.7 806.57 22.08 806.18 22.47 811.78 28"/><polygon class="cls-1" points="782.75 10.41 794.75 10.41 802.09 17.66 809.42 10.42 821.42 10.42 818.02 4.48 815.46 0 788.71 0 786.15 4.47 782.75 10.41"/><polygon class="cls-1" points="782.74 33.76 786.14 39.69 788.7 44.17 785.94 54.63 796.15 57.47 798.73 61.96 802.09 67.84 802.09 67.51 805.27 61.96 807.84 57.47 818.23 54.59 815.47 44.17 818.03 39.69 821.43 33.76 809.42 33.76 802.09 26.52 794.75 33.76 782.74 33.76"/><polygon class="cls-1" points="1181.55 10.41 1193.55 10.41 1200.88 17.66 1208.22 10.42 1220.22 10.42 1216.82 4.48 1214.26 0 1187.51 0 1184.95 4.47 1181.55 10.41"/><polygon class="cls-1" points="1210.58 28 1223.54 28 1225.21 25.1 1226.95 22.09 1225.21 19.08 1223.54 16.18 1210.58 16.18 1204.99 21.7 1205.37 22.08 1204.98 22.47 1210.58 28"/><polygon class="cls-1" points="1736.08 28 1749.03 28 1755.01 22.08 1749.03 16.17 1736.08 16.17 1736.08 16.18 1734.4 19.07 1732.66 22.08 1734.4 25.09 1736.08 28"/><polygon class="cls-1" points="1275.46 70.7 1272.08 64.82 1270.69 62.39 1262.59 60.14 1260.44 68.27 1261.83 70.7 1265.23 76.64 1266.87 79.51 1270.21 79.52 1273.7 79.53 1275.47 76.48 1277.14 73.62 1275.46 70.7"/><polygon class="cls-1" points="1237.1 51.3 1234.52 55.78 1224.13 58.67 1226.89 69.08 1224.33 73.57 1220.93 79.5 1232.93 79.5 1240.58 87.05 1248.22 79.5 1260.24 79.5 1256.83 73.56 1254.27 69.08 1257.01 58.73 1246.39 55.77 1243.83 51.3 1240.46 45.42 1237.1 51.3"/><polygon class="cls-1" points="1260.67 33.76 1264.06 39.69 1266.64 44.17 1263.89 54.53 1274.52 57.47 1277.08 61.96 1280.46 67.84 1283.82 61.96 1286.39 57.47 1296.92 54.55 1294.18 44.17 1296.74 39.69 1300.14 33.76 1288.13 33.76 1280.41 26.13 1272.68 33.76 1260.67 33.76"/><polygon class="cls-1" points="1316.92 27.96 1320.36 33.86 1323.79 27.96 1330.62 27.97 1327.21 22.08 1330.62 16.19 1323.8 16.21 1320.36 10.29 1316.92 16.21 1310.11 16.19 1313.5 22.08 1310.11 27.97 1316.92 27.96"/><polygon class="cls-1" points="1218.52 60.22 1218.51 60.15 1210.45 62.39 1209.06 64.82 1205.69 70.7 1204.01 73.62 1205.67 76.48 1207.44 79.53 1210.93 79.52 1214.27 79.51 1215.92 76.64 1219.33 70.7 1220.72 68.27 1218.58 60.2 1218.52 60.22"/><polygon class="cls-1" points="1305.14 7.55 1306.78 10.43 1310.13 10.43 1313.62 10.44 1315.39 7.4 1317.05 4.54 1315.37 1.62 1314.44 0 1300.81 0 1301.73 1.61 1305.14 7.55"/><polygon class="cls-1" points="1225.23 7.55 1226.88 10.43 1230.22 10.43 1233.71 10.44 1235.48 7.4 1237.14 4.54 1235.46 1.62 1234.53 0 1220.9 0 1221.82 1.61 1225.23 7.55"/><polygon class="cls-1" points="1243.77 4.53 1245.43 7.39 1247.2 10.44 1250.69 10.43 1254.03 10.42 1255.68 7.54 1259.08 1.61 1260.01 0 1246.37 0 1245.45 1.61 1243.77 4.53"/><polygon class="cls-1" points="1313.61 33.72 1310.12 33.73 1306.79 33.75 1305.15 36.62 1301.74 42.55 1300.35 44.98 1302.5 53.11 1310.61 50.87 1312 48.44 1315.37 42.56 1317.04 39.62 1315.38 36.76 1313.61 33.72"/><polygon class="cls-1" points="1237.01 27.96 1240.45 33.86 1243.89 27.96 1250.71 27.97 1247.3 22.08 1250.71 16.19 1243.89 16.21 1240.45 10.29 1237.01 16.21 1230.2 16.19 1233.6 22.08 1230.2 27.97 1237.01 27.96"/><polygon class="cls-1" points="1257.37 28 1270.32 28 1276.31 22.08 1270.32 16.18 1257.37 16.18 1255.7 19.07 1253.95 22.08 1255.7 25.09 1257.37 28"/><polygon class="cls-1" points="1233.71 33.72 1230.22 33.73 1226.89 33.75 1225.23 36.62 1221.83 42.55 1220.44 44.98 1222.58 53.04 1222.64 53.03 1222.66 53.1 1230.71 50.87 1232.1 48.44 1235.46 42.56 1237.14 39.62 1235.48 36.76 1233.71 33.72"/><polygon class="cls-1" points="1895.92 28 1908.87 28 1914.85 22.08 1908.87 16.17 1895.92 16.17 1895.92 16.18 1894.25 19.07 1892.5 22.08 1894.25 25.09 1895.92 28"/><polygon class="cls-1" points="1396.82 27.96 1400.26 33.86 1403.7 27.96 1410.52 27.97 1407.11 22.08 1410.52 16.19 1403.71 16.21 1400.26 10.29 1396.82 16.21 1390.01 16.19 1393.41 22.08 1390.01 27.97 1396.82 27.96"/><polygon class="cls-1" points="1393.51 33.72 1390.02 33.73 1386.69 33.75 1385.05 36.62 1381.64 42.55 1380.25 44.98 1382.39 53.04 1382.45 53.03 1382.47 53.1 1390.51 50.87 1391.9 48.44 1395.27 42.56 1396.96 39.62 1395.28 36.76 1393.51 33.72"/><polygon class="cls-1" points="1385.04 7.55 1386.69 10.43 1390.03 10.43 1393.52 10.44 1395.29 7.4 1396.95 4.54 1395.27 1.62 1394.34 0 1380.72 0 1381.65 1.61 1385.04 7.55"/><polygon class="cls-1" points="1396.9 51.3 1394.34 55.77 1383.95 58.66 1386.71 69.08 1384.15 73.56 1380.74 79.5 1392.75 79.5 1400.46 87.12 1408.18 79.5 1420.2 79.5 1416.8 73.56 1414.23 69.08 1416.96 58.76 1406.2 55.77 1403.63 51.3 1400.27 45.42 1396.9 51.3"/><polygon class="cls-1" points="1378.33 60.22 1378.31 60.15 1370.28 62.39 1368.88 64.82 1365.51 70.7 1363.83 73.62 1365.5 76.48 1367.26 79.53 1370.75 79.52 1374.09 79.51 1375.74 76.64 1379.14 70.7 1380.54 68.27 1378.4 60.2 1378.33 60.22"/><polygon class="cls-1" points="1383.35 28 1385.03 25.09 1386.76 22.08 1385.03 19.07 1383.35 16.18 1370.4 16.18 1364.41 22.09 1370.4 28 1383.35 28"/><polygon class="cls-1" points="1303.44 28 1305.11 25.09 1306.86 22.08 1305.11 19.07 1303.44 16.18 1290.49 16.18 1284.51 22.09 1290.49 28 1303.44 28"/><polygon class="cls-1" points="1317 51.3 1314.43 55.78 1303.9 58.71 1306.65 69.08 1304.09 73.57 1300.68 79.5 1312.69 79.5 1320.48 87.2 1328.27 79.5 1340.29 79.5 1336.89 73.57 1334.32 69.08 1337.05 58.77 1326.29 55.78 1323.73 51.3 1320.36 45.43 1317 51.3"/><polygon class="cls-1" points="1290.22 62.39 1288.83 64.82 1285.45 70.7 1283.77 73.62 1285.44 76.48 1287.21 79.53 1290.7 79.52 1294.04 79.51 1295.68 76.64 1299.08 70.7 1300.47 68.27 1298.32 60.14 1290.22 62.39"/><polygon class="cls-1" points="1340.57 33.76 1343.98 39.69 1346.55 44.17 1343.82 54.48 1354.57 57.47 1357.14 61.96 1360.51 67.84 1363.89 61.96 1366.45 57.47 1376.84 54.59 1374.08 44.17 1376.65 39.69 1380.05 33.76 1368.03 33.76 1360.31 26.13 1352.59 33.76 1340.57 33.76"/><polygon class="cls-1" points="1328.73 48.44 1330.12 50.87 1338.23 53.11 1340.37 44.98 1338.98 42.55 1335.58 36.62 1333.94 33.75 1330.61 33.73 1327.11 33.72 1325.34 36.76 1323.68 39.62 1325.35 42.56 1328.73 48.44"/><polygon class="cls-1" points="1337.28 28 1350.23 28 1356.21 22.08 1350.23 16.17 1337.28 16.17 1337.28 16.18 1335.6 19.07 1333.86 22.08 1335.6 25.09 1337.28 28"/><polygon class="cls-1" points="1345.28 76.64 1346.93 79.51 1350.26 79.52 1353.75 79.53 1355.54 76.48 1357.19 73.62 1355.52 70.7 1352.14 64.82 1350.75 62.39 1342.64 60.14 1340.49 68.27 1341.88 70.7 1345.28 76.64"/><polygon class="cls-1" points="1255.68 36.62 1254.03 33.75 1250.69 33.73 1247.2 33.72 1245.43 36.76 1243.77 39.62 1248.81 48.44 1250.21 50.87 1258.32 53.11 1260.47 44.98 1259.08 42.55 1255.68 36.62"/><polygon class="cls-1" points="1899.23 10.41 1911.24 10.41 1918.97 18.04 1921.59 15.46 1921.59 0 1905.19 0 1902.63 4.47 1899.23 10.41"/><polygon class="cls-1" points="1819.29 10.41 1831.31 10.41 1839.04 18.05 1846.77 10.41 1858.78 10.41 1855.38 4.47 1852.81 0 1825.26 0 1822.69 4.47 1819.29 10.41"/><polygon class="cls-1" points="1857.07 60.22 1857.05 60.14 1848.98 62.39 1847.59 64.82 1844.21 70.7 1842.54 73.62 1844.2 76.47 1845.96 79.53 1849.45 79.52 1852.8 79.51 1854.44 76.64 1857.85 70.7 1859.24 68.27 1857.11 60.21 1857.07 60.22"/><polygon class="cls-1" points="1862.09 28 1863.76 25.09 1865.5 22.08 1863.76 19.07 1862.09 16.18 1849.13 16.18 1843.15 22.09 1849.13 28 1862.09 28"/><polygon class="cls-1" points="1875.65 51.3 1873.08 55.77 1862.67 58.67 1865.43 69.08 1862.86 73.56 1859.45 79.5 1871.47 79.5 1878.99 86.94 1886.53 79.5 1898.54 79.5 1895.14 73.56 1892.57 69.08 1895.33 58.66 1884.94 55.77 1882.38 51.3 1879.01 45.42 1875.65 51.3"/><polygon class="cls-1" points="1900.13 70.7 1903.53 76.64 1905.17 79.51 1908.51 79.52 1912.01 79.53 1913.78 76.48 1915.44 73.62 1913.76 70.7 1910.4 64.82 1908.99 62.39 1900.96 60.15 1900.94 60.22 1900.87 60.2 1898.74 68.27 1900.13 70.7"/><polygon class="cls-1" points="1911.23 33.76 1899.22 33.76 1902.61 39.69 1905.19 44.17 1902.42 54.59 1912.82 57.47 1915.38 61.96 1918.75 67.84 1921.59 62.89 1921.59 28.72 1918.96 26.12 1911.23 33.76"/><polygon class="cls-1" points="1722.48 4.54 1724.13 7.39 1725.91 10.44 1729.4 10.43 1732.74 10.42 1734.38 7.54 1737.79 1.61 1738.71 0 1725.07 0 1724.15 1.61 1722.48 4.54"/><polygon class="cls-1" points="1659.48 10.41 1671.48 10.41 1679.21 18.03 1686.93 10.41 1698.95 10.41 1695.54 4.47 1692.97 0 1665.44 0 1662.88 4.47 1659.48 10.41"/><polygon class="cls-1" points="1739.38 10.41 1751.4 10.41 1759.12 18.03 1766.84 10.41 1778.85 10.41 1775.44 4.47 1772.88 0 1745.35 0 1742.78 4.47 1739.38 10.41"/><polygon class="cls-1" points="1802.39 4.54 1804.04 7.39 1805.82 10.44 1809.31 10.43 1812.64 10.42 1814.3 7.54 1817.7 1.61 1818.62 0 1804.99 0 1804.07 1.61 1802.39 4.54"/><polygon class="cls-1" points="844.97 4.53 846.63 7.39 848.4 10.44 851.89 10.43 855.23 10.42 856.88 7.54 860.28 1.61 861.21 0 847.57 0 846.65 1.61 844.97 4.53"/><polygon class="cls-1" points="1066.18 7.55 1067.83 10.43 1071.17 10.43 1074.66 10.44 1076.43 7.4 1078.09 4.54 1076.41 1.62 1075.48 0 1061.85 0 1062.77 1.61 1066.18 7.55"/><polygon class="cls-1" points="27.14 28 28.81 25.1 30.55 22.09 28.81 19.08 27.14 16.18 14.18 16.18 8.2 22.09 14.18 28 27.14 28"/><polygon class="cls-1" points="28.83 7.55 30.48 10.43 33.82 10.43 37.31 10.44 39.08 7.4 40.74 4.54 39.06 1.62 38.13 0 24.5 0 25.42 1.61 28.83 7.55"/><polygon class="cls-1" points="675.85 33.72 672.36 33.73 669.03 33.75 667.38 36.62 663.98 42.55 662.59 44.98 664.72 53.03 664.75 53.02 664.78 53.1 672.85 50.86 674.24 48.43 677.61 42.55 679.29 39.62 677.62 36.76 675.85 33.72"/><polygon class="cls-1" points="742.58 79.5 754.59 79.5 762.22 87.04 769.86 79.5 781.88 79.5 778.47 73.56 775.9 69.08 778.68 58.61 768.45 55.77 765.89 51.3 762.52 45.42 759.16 51.3 756.6 55.77 745.83 58.77 748.56 69.08 745.99 73.56 742.58 79.5"/><polygon class="cls-1" points="679.25 51.3 676.68 55.77 666.27 58.67 669.03 69.08 666.46 73.56 663.05 79.5 675.07 79.5 682.59 86.94 690.13 79.5 702.14 79.5 698.74 73.56 696.17 69.08 698.93 58.66 688.54 55.77 685.98 51.3 682.61 45.42 679.25 51.3"/><polygon class="cls-1" points="660.67 60.22 660.65 60.14 652.58 62.39 651.19 64.82 647.81 70.7 646.14 73.62 647.8 76.47 649.56 79.53 653.05 79.52 656.4 79.51 658.04 76.64 661.45 70.7 662.84 68.27 660.71 60.21 660.67 60.22"/><polygon class="cls-1" points="699.52 28 712.47 28 718.45 22.08 712.47 16.17 699.52 16.17 699.52 16.18 697.85 19.07 696.1 22.08 697.85 25.09 699.52 28"/><polygon class="cls-1" points="697.83 36.62 696.18 33.75 692.84 33.73 689.35 33.72 687.58 36.76 685.92 39.62 690.96 48.44 692.36 50.87 700.4 53.1 700.42 53.03 700.48 53.04 702.62 44.98 701.22 42.55 697.83 36.62"/><polygon class="cls-1" points="665.69 28 667.36 25.09 669.1 22.08 667.36 19.07 665.69 16.18 652.73 16.18 646.75 22.09 652.73 28 665.69 28"/><polygon class="cls-1" points="759.09 27.96 762.52 33.86 765.96 27.96 772.78 27.97 769.38 22.08 772.77 16.19 765.96 16.21 762.52 10.29 759.09 16.21 752.28 16.19 755.67 22.08 752.28 27.97 759.09 27.96"/><polygon class="cls-1" points="777.74 36.62 776.09 33.75 772.76 33.73 769.27 33.72 767.5 36.76 765.84 39.62 770.88 48.44 772.28 50.87 780.15 53.05 780.16 53.03 780.39 53.09 782.53 44.98 781.14 42.55 777.74 36.62"/><polygon class="cls-1" points="747.3 36.62 743.9 42.55 742.51 44.98 744.66 53.11 752.77 50.87 754.16 48.44 757.53 42.56 759.2 39.62 757.54 36.76 755.78 33.72 752.28 33.73 748.95 33.75 747.3 36.62"/><polygon class="cls-1" points="702.82 33.76 706.21 39.69 708.79 44.17 706.02 54.59 716.42 57.47 718.98 61.96 722.35 67.84 725.72 61.96 728.28 57.47 739.05 54.48 736.34 44.17 738.91 39.69 742.31 33.76 730.29 33.76 722.56 26.12 714.83 33.76 702.82 33.76"/><polygon class="cls-1" points="729.11 79.53 732.6 79.52 735.94 79.51 737.58 76.64 740.98 70.7 742.37 68.27 740.23 60.14 732.12 62.39 730.73 64.82 727.35 70.7 725.68 73.62 727.34 76.48 729.11 79.53"/><polygon class="cls-1" points="745.6 28 747.28 25.09 749.02 22.08 747.28 19.07 745.6 16.18 732.65 16.18 726.67 22.09 732.65 28 745.6 28"/><polygon class="cls-1" points="717.36 70.7 714 64.82 712.59 62.39 704.56 60.15 704.54 60.22 704.47 60.2 702.34 68.27 703.73 70.7 707.13 76.64 708.77 79.51 712.11 79.52 715.61 79.53 717.38 76.48 719.04 73.62 717.36 70.7"/><polygon class="cls-1" points="580.73 60.22 580.71 60.15 572.68 62.39 571.28 64.82 567.91 70.7 566.23 73.62 567.9 76.48 569.66 79.53 573.15 79.52 576.49 79.51 578.14 76.64 581.54 70.7 582.94 68.27 580.8 60.2 580.73 60.22"/><polygon class="cls-1" points="599.3 51.3 596.74 55.77 586.35 58.66 589.11 69.08 586.55 73.56 583.14 79.5 595.15 79.5 602.86 87.12 610.58 79.5 622.6 79.5 619.2 73.56 616.63 69.08 619.36 58.76 608.6 55.77 606.03 51.3 602.67 45.42 599.3 51.3"/><polygon class="cls-1" points="585.75 28 587.43 25.09 589.16 22.08 587.43 19.07 585.75 16.18 572.8 16.18 566.81 22.09 572.8 28 585.75 28"/><polygon class="cls-1" points="611.03 48.44 612.42 50.87 620.53 53.11 622.67 44.98 621.28 42.55 617.88 36.62 616.24 33.75 612.91 33.73 609.41 33.72 607.64 36.76 605.98 39.62 607.67 42.56 611.03 48.44"/><polygon class="cls-1" points="599.22 27.96 602.66 33.86 606.1 27.96 612.92 27.97 609.51 22.08 612.92 16.19 606.11 16.21 602.66 10.29 599.22 16.21 592.41 16.19 595.81 22.08 592.41 27.97 599.22 27.96"/><polygon class="cls-1" points="679.16 27.96 682.6 33.86 686.03 27.96 692.86 27.97 689.45 22.08 692.86 16.19 686.04 16.21 682.6 10.29 679.16 16.21 672.35 16.19 675.75 22.08 672.35 27.97 679.16 27.96"/><polygon class="cls-1" points="595.91 33.72 592.42 33.73 589.09 33.75 587.45 36.62 584.04 42.55 582.65 44.98 584.79 53.04 584.85 53.03 584.87 53.1 592.91 50.87 594.3 48.44 597.67 42.56 599.36 39.62 597.68 36.76 595.91 33.72"/><polygon class="cls-1" points="685.92 4.54 687.58 7.39 689.36 10.44 692.84 10.43 696.18 10.42 697.83 7.54 701.23 1.61 702.16 0 688.52 0 687.6 1.61 685.92 4.54"/><polygon class="cls-1" points="667.38 7.55 669.03 10.43 672.37 10.43 675.86 10.44 677.63 7.4 679.29 4.54 677.61 1.62 676.68 0 663.05 0 663.97 1.61 667.38 7.55"/><polygon class="cls-1" points="627.59 76.64 629.23 79.51 632.57 79.52 636.06 79.53 637.84 76.48 639.49 73.62 637.82 70.7 634.45 64.82 633.05 62.39 624.95 60.14 622.79 68.27 624.18 70.7 627.59 76.64"/><polygon class="cls-1" points="619.58 28 632.53 28 638.52 22.08 632.53 16.17 619.58 16.17 619.58 16.18 617.91 19.07 616.17 22.08 617.91 25.09 619.58 28"/><polygon class="cls-1" points="622.88 33.76 626.29 39.69 628.86 44.17 626.13 54.48 636.88 57.47 639.45 61.96 642.82 67.84 646.19 61.96 648.76 57.47 659.17 54.58 656.42 44.17 658.98 39.69 662.38 33.76 650.37 33.76 642.64 26.11 634.9 33.76 622.88 33.76"/><polygon class="cls-1" points="542.98 10.41 555 10.41 562.72 18.03 570.44 10.41 582.45 10.41 579.04 4.47 576.48 0 548.95 0 546.38 4.47 542.98 10.41"/><polygon class="cls-1" points="526.08 4.54 527.73 7.39 529.51 10.44 533 10.43 536.34 10.42 537.98 7.54 541.39 1.61 542.31 0 528.67 0 527.75 1.61 526.08 4.54"/><polygon class="cls-1" points="463.08 10.41 475.08 10.41 482.81 18.03 490.53 10.41 502.55 10.41 499.14 4.47 496.57 0 469.04 0 466.48 4.47 463.08 10.41"/><polygon class="cls-1" points="797.1 70.7 793.73 64.82 792.33 62.39 784.47 60.21 784.46 60.23 784.22 60.16 782.07 68.27 783.48 70.7 786.87 76.64 788.52 79.51 791.86 79.52 795.35 79.53 797.11 76.48 798.78 73.62 797.1 70.7"/><polygon class="cls-1" points="747.31 7.55 748.95 10.43 752.29 10.43 755.78 10.44 757.55 7.4 759.21 4.54 757.54 1.62 756.61 0 742.98 0 743.9 1.61 747.31 7.55"/><polygon class="cls-1" points="702.83 10.41 714.84 10.41 722.57 18.04 730.3 10.41 742.31 10.41 738.91 4.47 736.34 0 708.79 0 706.23 4.47 702.83 10.41"/><polygon class="cls-1" points="587.44 7.55 589.09 10.43 592.43 10.43 595.92 10.44 597.69 7.4 599.35 4.54 597.67 1.62 596.74 0 583.12 0 584.05 1.61 587.44 7.55"/><polygon class="cls-1" points="605.99 4.54 607.64 7.39 609.42 10.44 612.91 10.43 616.24 10.42 617.9 7.54 621.3 1.61 622.22 0 608.59 0 607.67 1.61 605.99 4.54"/><polygon class="cls-1" points="779.44 27.99 792.39 27.99 792.39 28 797.99 22.46 797.6 22.08 797.99 21.7 792.39 16.17 779.44 16.17 777.77 19.07 776.03 22.08 777.77 25.09 779.44 27.99"/><polygon class="cls-1" points="64.28 10.41 76.28 10.41 84.01 18.03 91.73 10.41 103.75 10.41 100.34 4.47 97.77 0 70.24 0 67.68 4.47 64.28 10.41"/><polygon class="cls-1" points="622.89 10.41 634.91 10.41 642.64 18.05 650.37 10.41 662.38 10.41 658.98 4.47 656.41 0 628.86 0 626.29 4.47 622.89 10.41"/><polygon class="cls-1" points="531.13 48.44 532.52 50.87 540.63 53.11 542.77 44.98 541.38 42.55 537.98 36.62 536.34 33.75 533.01 33.73 529.51 33.72 527.74 36.76 526.08 39.62 527.75 42.56 531.13 48.44"/><polygon class="cls-1" points="1141.38 79.5 1153.39 79.5 1161.02 87.04 1168.66 79.5 1180.68 79.5 1177.27 73.56 1174.7 69.08 1177.48 58.61 1167.25 55.77 1164.69 51.3 1161.32 45.42 1157.96 51.3 1155.4 55.77 1144.63 58.77 1147.36 69.08 1144.79 73.56 1141.38 79.5"/><polygon class="cls-1" points="1195.9 70.7 1192.53 64.82 1191.13 62.39 1183.27 60.21 1183.26 60.23 1183.02 60.16 1180.87 68.27 1182.28 70.7 1185.67 76.64 1187.32 79.51 1190.66 79.52 1194.15 79.53 1195.91 76.48 1197.58 73.62 1195.9 70.7"/><polygon class="cls-1" points="1178.24 27.99 1191.19 27.99 1191.19 28 1196.79 22.46 1196.4 22.08 1196.79 21.7 1191.19 16.17 1178.24 16.17 1176.57 19.07 1174.83 22.08 1176.57 25.09 1178.24 27.99"/><polygon class="cls-1" points="1176.54 36.62 1174.89 33.75 1171.56 33.73 1168.07 33.72 1166.3 36.76 1164.64 39.62 1169.68 48.44 1171.08 50.87 1178.95 53.05 1178.96 53.03 1179.19 53.09 1181.33 44.98 1179.94 42.55 1176.54 36.62"/><polygon class="cls-1" points="1164.64 4.54 1166.3 7.39 1168.07 10.44 1171.56 10.43 1174.9 10.42 1176.54 7.54 1179.95 1.61 1180.87 0 1167.24 0 1166.31 1.61 1164.64 4.54"/><polygon class="cls-1" points="1157.89 27.96 1161.32 33.86 1164.76 27.96 1171.58 27.97 1168.18 22.08 1171.57 16.19 1164.76 16.21 1161.32 10.29 1157.89 16.21 1151.08 16.19 1154.47 22.08 1151.08 27.97 1157.89 27.96"/><polygon class="cls-1" points="1146.11 7.55 1147.75 10.43 1151.09 10.43 1154.58 10.44 1156.35 7.4 1158.01 4.54 1156.34 1.62 1155.41 0 1141.78 0 1142.7 1.61 1146.11 7.55"/><polygon class="cls-1" points="1021.69 10.41 1033.71 10.41 1041.44 18.05 1049.17 10.41 1061.18 10.41 1057.78 4.47 1055.21 0 1027.66 0 1025.09 4.47 1021.69 10.41"/><polygon class="cls-1" points="1004.79 4.54 1006.44 7.39 1008.22 10.44 1011.71 10.43 1015.04 10.42 1016.7 7.54 1020.1 1.61 1021.02 0 1007.39 0 1006.47 1.61 1004.79 4.54"/><polygon class="cls-1" points="1146.1 36.62 1142.7 42.55 1141.31 44.98 1143.46 53.11 1151.57 50.87 1152.96 48.44 1156.33 42.56 1158 39.62 1156.34 36.76 1154.58 33.72 1151.08 33.73 1147.75 33.75 1146.1 36.62"/><polygon class="cls-1" points="1101.63 10.41 1113.64 10.41 1121.37 18.04 1129.1 10.41 1141.11 10.41 1137.71 4.47 1135.14 0 1107.59 0 1105.03 4.47 1101.63 10.41"/><polygon class="cls-1" points="1098.32 28 1111.27 28 1117.25 22.08 1111.27 16.17 1098.32 16.17 1098.32 16.18 1096.65 19.07 1094.9 22.08 1096.65 25.09 1098.32 28"/><polygon class="cls-1" points="1096.63 36.62 1094.98 33.75 1091.64 33.73 1088.15 33.72 1086.38 36.76 1084.72 39.62 1089.76 48.44 1091.16 50.87 1099.2 53.1 1099.22 53.03 1099.28 53.04 1101.42 44.98 1100.02 42.55 1096.63 36.62"/><polygon class="cls-1" points="1127.91 79.53 1131.4 79.52 1134.74 79.51 1136.38 76.64 1139.78 70.7 1141.17 68.27 1139.03 60.14 1130.92 62.39 1129.53 64.82 1126.15 70.7 1124.48 73.62 1126.14 76.48 1127.91 79.53"/><polygon class="cls-1" points="941.78 10.41 953.8 10.41 961.52 18.03 969.24 10.41 981.25 10.41 977.84 4.47 975.28 0 947.75 0 945.18 4.47 941.78 10.41"/><polygon class="cls-1" points="1077.96 27.96 1081.4 33.86 1084.83 27.96 1091.66 27.97 1088.25 22.08 1091.66 16.19 1084.84 16.21 1081.4 10.29 1077.96 16.21 1071.15 16.19 1074.55 22.08 1071.15 27.97 1077.96 27.96"/><polygon class="cls-1" points="1064.49 28 1066.16 25.09 1067.9 22.08 1066.16 19.07 1064.49 16.18 1051.53 16.18 1045.55 22.09 1051.53 28 1064.49 28"/><polygon class="cls-1" points="1084.72 4.54 1086.38 7.39 1088.16 10.44 1091.64 10.43 1094.98 10.42 1096.63 7.54 1100.03 1.61 1100.96 0 1087.32 0 1086.4 1.61 1084.72 4.54"/><polygon class="cls-1" points="1074.65 33.72 1071.16 33.73 1067.83 33.75 1066.18 36.62 1062.78 42.55 1061.39 44.98 1063.52 53.03 1063.55 53.02 1063.58 53.1 1071.65 50.86 1073.04 48.43 1076.41 42.55 1078.09 39.62 1076.42 36.76 1074.65 33.72"/><polygon class="cls-1" points="1059.47 60.22 1059.45 60.14 1051.38 62.39 1049.99 64.82 1046.61 70.7 1044.94 73.62 1046.6 76.47 1048.36 79.53 1051.85 79.52 1055.2 79.51 1056.84 76.64 1060.25 70.7 1061.64 68.27 1059.51 60.21 1059.47 60.22"/><polygon class="cls-1" points="1144.4 28 1146.08 25.09 1147.82 22.08 1146.08 19.07 1144.4 16.18 1131.45 16.18 1125.47 22.09 1131.45 28 1144.4 28"/><polygon class="cls-1" points="1101.62 33.76 1105.01 39.69 1107.59 44.17 1104.82 54.59 1115.22 57.47 1117.78 61.96 1121.15 67.84 1124.52 61.96 1127.08 57.47 1137.85 54.48 1135.14 44.17 1137.71 39.69 1141.11 33.76 1129.09 33.76 1121.36 26.12 1113.63 33.76 1101.62 33.76"/><polygon class="cls-1" points="1078.05 51.3 1075.48 55.77 1065.07 58.67 1067.83 69.08 1065.26 73.56 1061.85 79.5 1073.87 79.5 1081.39 86.94 1088.93 79.5 1100.94 79.5 1097.54 73.56 1094.97 69.08 1097.73 58.66 1087.34 55.77 1084.78 51.3 1081.41 45.42 1078.05 51.3"/><polygon class="cls-1" points="1116.16 70.7 1112.8 64.82 1111.39 62.39 1103.36 60.15 1103.34 60.22 1103.27 60.2 1101.14 68.27 1102.53 70.7 1105.93 76.64 1107.57 79.51 1110.91 79.52 1114.41 79.53 1116.18 76.48 1117.84 73.62 1116.16 70.7"/><polygon class="cls-1" points="477.86 70.7 474.48 64.82 473.09 62.39 464.99 60.14 462.84 68.27 464.23 70.7 467.63 76.64 469.27 79.51 472.61 79.52 476.1 79.53 477.87 76.48 479.54 73.62 477.86 70.7"/><polygon class="cls-1" points="516.01 33.72 512.52 33.73 509.19 33.75 507.55 36.62 504.14 42.55 502.75 44.98 504.9 53.11 513.01 50.87 514.4 48.44 517.77 42.56 519.44 39.62 517.78 36.76 516.01 33.72"/><polygon class="cls-1" points="492.62 62.39 491.23 64.82 487.85 70.7 486.17 73.62 487.84 76.48 489.61 79.53 493.1 79.52 496.44 79.51 498.08 76.64 501.48 70.7 502.87 68.27 500.72 60.14 492.62 62.39"/><polygon class="cls-1" points="519.32 27.96 522.76 33.86 526.19 27.96 533.02 27.97 529.61 22.08 533.02 16.19 526.2 16.21 522.76 10.29 519.32 16.21 512.51 16.19 515.9 22.08 512.51 27.97 519.32 27.96"/><polygon class="cls-1" points="505.84 28 507.51 25.09 509.26 22.08 507.51 19.07 505.84 16.18 492.89 16.18 486.91 22.09 492.89 28 505.84 28"/><polygon class="cls-1" points="463.07 33.76 466.46 39.69 469.04 44.17 466.29 54.53 476.92 57.47 479.48 61.96 482.86 67.84 486.22 61.96 488.79 57.47 499.32 54.55 496.58 44.17 499.14 39.69 502.54 33.76 490.53 33.76 482.81 26.13 475.08 33.76 463.07 33.76"/><polygon class="cls-1" points="507.54 7.55 509.18 10.43 512.53 10.43 516.02 10.44 517.79 7.4 519.45 4.54 517.77 1.62 516.84 0 503.21 0 504.13 1.61 507.54 7.55"/><polygon class="cls-1" points="547.68 76.64 549.33 79.51 552.66 79.52 556.15 79.53 557.94 76.48 559.59 73.62 557.92 70.7 554.54 64.82 553.15 62.39 545.04 60.14 542.89 68.27 544.28 70.7 547.68 76.64"/><polygon class="cls-1" points="542.97 33.76 546.38 39.69 548.95 44.17 546.22 54.48 556.97 57.47 559.54 61.96 562.91 67.84 566.29 61.96 568.85 57.47 579.24 54.59 576.48 44.17 579.05 39.69 582.45 33.76 570.43 33.76 562.71 26.13 554.99 33.76 542.97 33.76"/><polygon class="cls-1" points="539.68 28 552.63 28 558.61 22.08 552.63 16.17 539.68 16.17 539.68 16.18 538 19.07 536.26 22.08 538 25.09 539.68 28"/><polygon class="cls-1" points="11.82 10.42 23.82 10.42 20.42 4.48 17.86 0 0 0 0 22.08 4.48 17.66 11.82 10.42"/><polygon class="cls-1" points="519.4 51.3 516.83 55.78 506.3 58.71 509.05 69.08 506.49 73.57 503.08 79.5 515.09 79.5 522.88 87.2 530.67 79.5 542.69 79.5 539.29 73.57 536.72 69.08 539.45 58.77 528.69 55.78 526.13 51.3 522.76 45.43 519.4 51.3"/><polygon class="cls-1" points="446.17 4.53 447.83 7.39 449.6 10.44 453.09 10.43 456.43 10.42 458.08 7.54 461.48 1.61 462.41 0 448.77 0 447.85 1.61 446.17 4.53"/><polygon class="cls-1" points="439.5 51.3 436.92 55.78 426.53 58.67 429.29 69.08 426.73 73.57 423.33 79.5 435.33 79.5 442.98 87.05 450.62 79.5 462.64 79.5 459.23 73.56 456.67 69.08 459.41 58.73 448.79 55.77 446.23 51.3 442.86 45.42 439.5 51.3"/><polygon class="cls-1" points="427.63 7.55 429.28 10.43 432.62 10.43 436.11 10.44 437.88 7.4 439.54 4.54 437.86 1.62 436.93 0 423.3 0 424.22 1.61 427.63 7.55"/><polygon class="cls-1" points="861.88 10.41 873.88 10.41 881.61 18.03 889.33 10.41 901.35 10.41 897.94 4.47 895.37 0 867.84 0 865.28 4.47 861.88 10.41"/><polygon class="cls-1" points="924.88 4.54 926.53 7.39 928.31 10.44 931.8 10.43 935.14 10.42 936.78 7.54 940.19 1.61 941.11 0 927.47 0 926.55 1.61 924.88 4.54"/><polygon class="cls-1" points="439.41 27.96 442.85 33.86 446.29 27.96 453.11 27.97 449.7 22.08 453.11 16.19 446.29 16.21 442.85 10.29 439.41 16.21 432.6 16.19 436 22.08 432.6 27.97 439.41 27.96"/><polygon class="cls-1" points="436.11 33.72 432.62 33.73 429.29 33.75 427.63 36.62 424.23 42.55 422.84 44.98 424.98 53.04 425.04 53.03 425.06 53.1 433.11 50.87 434.5 48.44 437.86 42.56 439.54 39.62 437.88 36.76 436.11 33.72"/><polygon class="cls-1" points="420.92 60.22 420.91 60.15 412.85 62.39 411.46 64.82 408.09 70.7 406.41 73.62 408.07 76.48 409.84 79.53 413.33 79.52 416.67 79.51 418.32 76.64 421.73 70.7 423.12 68.27 420.98 60.2 420.92 60.22"/><polygon class="cls-1" points="459.77 28 472.72 28 478.71 22.08 472.72 16.18 459.77 16.18 458.1 19.07 456.35 22.08 458.1 25.09 459.77 28"/><polygon class="cls-1" points="458.08 36.62 456.43 33.75 453.09 33.73 449.6 33.72 447.83 36.76 446.17 39.62 451.21 48.44 452.61 50.87 460.72 53.11 462.87 44.98 461.48 42.55 458.08 36.62"/><polygon class="cls-1" points="765.84 4.54 767.5 7.39 769.27 10.44 772.76 10.43 776.1 10.42 777.74 7.54 781.15 1.61 782.07 0 768.44 0 767.51 1.61 765.84 4.54"/><polygon class="cls-1" points="107.04 28 108.71 25.09 110.46 22.08 108.71 19.07 107.04 16.18 94.09 16.18 88.11 22.09 94.09 28 107.04 28"/><polygon class="cls-1" points="117.21 33.72 113.72 33.73 110.39 33.75 108.75 36.62 105.34 42.55 103.95 44.98 106.1 53.11 114.21 50.87 115.6 48.44 118.97 42.56 120.64 39.62 118.98 36.76 117.21 33.72"/><polygon class="cls-1" points="93.82 62.39 92.43 64.82 89.05 70.7 87.37 73.62 89.04 76.48 90.81 79.53 94.3 79.52 97.64 79.51 99.28 76.64 102.68 70.7 104.07 68.27 101.92 60.14 93.82 62.39"/><polygon class="cls-1" points="266.89 28 268.56 25.09 270.3 22.08 268.56 19.07 266.89 16.18 253.93 16.18 247.95 22.09 253.93 28 266.89 28"/><polygon class="cls-1" points="120.52 27.96 123.96 33.86 127.39 27.96 134.22 27.97 130.81 22.08 134.22 16.19 127.4 16.21 123.96 10.29 120.52 16.21 113.71 16.19 117.1 22.08 113.71 27.97 120.52 27.96"/><polygon class="cls-1" points="148.88 76.64 150.53 79.51 153.86 79.52 157.35 79.53 159.14 76.48 160.79 73.62 159.12 70.7 155.74 64.82 154.35 62.39 146.24 60.14 144.09 68.27 145.48 70.7 148.88 76.64"/><polygon class="cls-1" points="120.6 51.3 118.03 55.78 107.5 58.71 110.25 69.08 107.69 73.57 104.28 79.5 116.29 79.5 124.08 87.2 131.87 79.5 143.89 79.5 140.49 73.57 137.92 69.08 140.65 58.77 129.89 55.78 127.33 51.3 123.96 45.43 120.6 51.3"/><polygon class="cls-1" points="140.88 28 153.83 28 159.81 22.08 153.83 16.17 140.88 16.17 140.88 16.18 139.2 19.07 137.46 22.08 139.2 25.09 140.88 28"/><polygon class="cls-1" points="132.33 48.44 133.72 50.87 141.83 53.11 143.97 44.98 142.58 42.55 139.18 36.62 137.54 33.75 134.21 33.73 130.71 33.72 128.94 36.76 127.28 39.62 128.95 42.56 132.33 48.44"/><polygon class="cls-1" points="330.31 79.53 333.8 79.52 337.14 79.51 338.78 76.64 342.18 70.7 343.57 68.27 341.43 60.14 333.32 62.39 331.93 64.82 328.55 70.7 326.88 73.62 328.54 76.48 330.31 79.53"/><polygon class="cls-1" points="144.17 33.76 147.58 39.69 150.15 44.17 147.42 54.48 158.17 57.47 160.74 61.96 164.11 67.84 167.49 61.96 170.05 57.47 180.44 54.59 177.68 44.17 180.25 39.69 183.65 33.76 171.63 33.76 163.91 26.13 156.19 33.76 144.17 33.76"/><polygon class="cls-1" points="108.74 7.55 110.38 10.43 113.73 10.43 117.22 10.44 118.99 7.4 120.65 4.54 118.97 1.62 118.04 0 104.41 0 105.33 1.61 108.74 7.55"/><polygon class="cls-1" points="348.5 36.62 345.1 42.55 343.71 44.98 345.86 53.11 353.97 50.87 355.36 48.44 358.73 42.56 360.4 39.62 358.74 36.76 356.98 33.72 353.48 33.73 350.15 33.75 348.5 36.62"/><polygon class="cls-1" points="360.29 27.96 363.72 33.86 367.16 27.96 373.98 27.97 370.58 22.08 373.97 16.19 367.16 16.21 363.72 10.29 360.29 16.21 353.48 16.19 356.87 22.08 353.48 27.97 360.29 27.96"/><polygon class="cls-1" points="318.56 70.7 315.2 64.82 313.79 62.39 305.76 60.15 305.74 60.22 305.67 60.2 303.54 68.27 304.93 70.7 308.33 76.64 309.97 79.51 313.31 79.52 316.81 79.53 318.58 76.48 320.24 73.62 318.56 70.7"/><polygon class="cls-1" points="261.87 60.22 261.85 60.14 253.78 62.39 252.39 64.82 249.01 70.7 247.34 73.62 249 76.47 250.76 79.53 254.25 79.52 257.6 79.51 259.24 76.64 262.65 70.7 264.04 68.27 261.91 60.21 261.87 60.22"/><polygon class="cls-1" points="280.45 51.3 277.88 55.77 267.47 58.67 270.23 69.08 267.66 73.56 264.25 79.5 276.27 79.5 283.79 86.94 291.33 79.5 303.34 79.5 299.94 73.56 297.37 69.08 300.13 58.66 289.74 55.77 287.18 51.3 283.81 45.42 280.45 51.3"/><polygon class="cls-1" points="304.02 33.76 307.41 39.69 309.99 44.17 307.22 54.59 317.62 57.47 320.18 61.96 323.55 67.84 326.92 61.96 329.48 57.47 340.25 54.48 337.54 44.17 340.11 39.69 343.51 33.76 331.49 33.76 323.76 26.12 316.03 33.76 304.02 33.76"/><polygon class="cls-1" points="378.94 36.62 377.29 33.75 373.96 33.73 370.47 33.72 368.7 36.76 367.04 39.62 372.08 48.44 373.48 50.87 381.35 53.05 381.36 53.03 381.59 53.09 383.73 44.98 382.34 42.55 378.94 36.62"/><polygon class="cls-1" points="346.8 28 348.48 25.09 350.22 22.08 348.48 19.07 346.8 16.18 333.85 16.18 327.87 22.09 333.85 28 346.8 28"/><polygon class="cls-1" points="300.72 28 313.67 28 319.65 22.08 313.67 16.17 300.72 16.17 300.72 16.18 299.05 19.07 297.3 22.08 299.05 25.09 300.72 28"/><polygon class="cls-1" points="188.64 7.55 190.29 10.43 193.63 10.43 197.12 10.44 198.89 7.4 200.55 4.54 198.87 1.62 197.94 0 184.32 0 185.25 1.61 188.64 7.55"/><polygon class="cls-1" points="200.5 51.3 197.94 55.77 187.55 58.66 190.31 69.08 187.75 73.56 184.34 79.5 196.35 79.5 204.06 87.12 211.78 79.5 223.8 79.5 220.4 73.56 217.83 69.08 220.56 58.76 209.8 55.77 207.23 51.3 203.87 45.42 200.5 51.3"/><polygon class="cls-1" points="220.78 28 233.73 28 239.72 22.08 233.73 16.17 220.78 16.17 220.78 16.18 219.11 19.07 217.37 22.08 219.11 25.09 220.78 28"/><polygon class="cls-1" points="186.95 28 188.63 25.09 190.36 22.08 188.63 19.07 186.95 16.18 174 16.18 168.01 22.09 174 28 186.95 28"/><polygon class="cls-1" points="228.79 76.64 230.43 79.51 233.77 79.52 237.26 79.53 239.04 76.48 240.69 73.62 239.02 70.7 235.65 64.82 234.25 62.39 226.15 60.14 223.99 68.27 225.38 70.7 228.79 76.64"/><polygon class="cls-1" points="181.93 60.22 181.91 60.15 173.88 62.39 172.48 64.82 169.11 70.7 167.43 73.62 169.1 76.48 170.86 79.53 174.35 79.52 177.69 79.51 179.34 76.64 182.74 70.7 184.14 68.27 182 60.2 181.93 60.22"/><polygon class="cls-1" points="197.11 33.72 193.62 33.73 190.29 33.75 188.65 36.62 185.24 42.55 183.85 44.98 185.99 53.04 186.05 53.03 186.07 53.1 194.11 50.87 195.5 48.44 198.87 42.56 200.56 39.62 198.88 36.76 197.11 33.72"/><polygon class="cls-1" points="200.42 27.96 203.86 33.86 207.3 27.96 214.12 27.97 210.71 22.08 214.12 16.19 207.31 16.21 203.86 10.29 200.42 16.21 193.61 16.19 197.01 22.08 193.61 27.97 200.42 27.96"/><polygon class="cls-1" points="212.23 48.44 213.62 50.87 221.73 53.11 223.87 44.98 222.48 42.55 219.08 36.62 217.44 33.75 214.11 33.73 210.61 33.72 208.84 36.76 207.18 39.62 208.87 42.56 212.23 48.44"/><polygon class="cls-1" points="277.05 33.72 273.56 33.73 270.23 33.75 268.58 36.62 265.18 42.55 263.79 44.98 265.92 53.03 265.95 53.02 265.98 53.1 274.05 50.86 275.44 48.43 278.81 42.55 280.49 39.62 278.82 36.76 277.05 33.72"/><polygon class="cls-1" points="224.08 33.76 227.49 39.69 230.06 44.17 227.33 54.48 238.08 57.47 240.65 61.96 244.02 67.84 247.39 61.96 249.96 57.47 260.37 54.58 257.62 44.17 260.18 39.69 263.58 33.76 251.57 33.76 243.84 26.11 236.1 33.76 224.08 33.76"/><polygon class="cls-1" points="299.03 36.62 297.38 33.75 294.04 33.73 290.55 33.72 288.78 36.76 287.12 39.62 292.16 48.44 293.56 50.87 301.6 53.1 301.62 53.03 301.68 53.04 303.82 44.98 302.42 42.55 299.03 36.62"/><polygon class="cls-1" points="280.36 27.96 283.8 33.86 287.23 27.96 294.06 27.97 290.65 22.08 294.06 16.19 287.24 16.21 283.8 10.29 280.36 16.21 273.55 16.19 276.95 22.08 273.55 27.97 280.36 27.96"/><polygon class="cls-1" points="268.58 7.55 270.23 10.43 273.57 10.43 277.06 10.44 278.83 7.4 280.49 4.54 278.81 1.62 277.88 0 264.25 0 265.17 1.61 268.58 7.55"/><polygon class="cls-1" points="287.12 4.54 288.78 7.39 290.56 10.44 294.04 10.43 297.38 10.42 299.03 7.54 302.43 1.61 303.36 0 289.72 0 288.8 1.61 287.12 4.54"/><polygon class="cls-1" points="11.04 79.53 14.53 79.52 17.87 79.51 19.52 76.64 22.93 70.7 24.32 68.27 22.18 60.2 22.12 60.22 22.11 60.15 14.05 62.39 12.66 64.82 9.29 70.7 7.61 73.62 9.27 76.48 11.04 79.53"/><polygon class="cls-1" points="207.19 4.54 208.84 7.39 210.62 10.44 214.11 10.43 217.44 10.42 219.1 7.54 222.5 1.61 223.42 0 209.79 0 208.87 1.61 207.19 4.54"/><polygon class="cls-1" points="343.78 79.5 355.79 79.5 363.42 87.04 371.06 79.5 383.08 79.5 379.67 73.56 377.1 69.08 379.88 58.61 369.65 55.77 367.09 51.3 363.72 45.42 360.36 51.3 357.8 55.77 347.03 58.77 349.76 69.08 347.19 73.56 343.78 79.5"/><polygon class="cls-1" points="59.28 36.62 57.63 33.75 54.29 33.73 50.8 33.72 49.03 36.76 47.37 39.62 52.41 48.44 53.81 50.87 61.92 53.11 64.07 44.98 62.68 42.55 59.28 36.62"/><polygon class="cls-1" points="37.31 33.72 33.82 33.73 30.49 33.75 28.83 36.62 25.43 42.55 24.04 44.98 26.18 53.04 26.24 53.03 26.26 53.1 34.31 50.87 35.7 48.44 39.06 42.56 40.74 39.62 39.08 36.76 37.31 33.72"/><polygon class="cls-1" points="40.7 51.3 38.12 55.78 27.73 58.67 30.49 69.08 27.93 73.57 24.53 79.5 36.53 79.5 44.18 87.05 51.82 79.5 63.84 79.5 60.43 73.56 57.87 69.08 60.61 58.73 49.99 55.77 47.43 51.3 44.06 45.42 40.7 51.3"/><polygon class="cls-1" points="224.09 10.41 236.11 10.41 243.84 18.05 251.57 10.41 263.58 10.41 260.18 4.47 257.61 0 230.06 0 227.49 4.47 224.09 10.41"/><polygon class="cls-1" points="79.06 70.7 75.68 64.82 74.29 62.39 66.19 60.14 64.04 68.27 65.43 70.7 68.83 76.64 70.47 79.51 73.81 79.52 77.3 79.53 79.07 76.48 80.74 73.62 79.06 70.7"/><polygon class="cls-1" points="60.97 28 73.92 28 79.91 22.08 73.92 16.18 60.97 16.18 59.3 19.07 57.55 22.08 59.3 25.09 60.97 28"/><polygon class="cls-1" points="144.18 10.41 156.2 10.41 163.92 18.03 171.64 10.41 183.65 10.41 180.24 4.47 177.68 0 150.15 0 147.58 4.47 144.18 10.41"/><polygon class="cls-1" points="40.61 27.96 44.05 33.86 47.49 27.96 54.31 27.97 50.9 22.08 54.31 16.19 47.49 16.21 44.05 10.29 40.61 16.21 33.8 16.19 37.2 22.08 33.8 27.97 40.61 27.96"/><polygon class="cls-1" points="47.37 4.53 49.03 7.39 50.8 10.44 54.29 10.43 57.63 10.42 59.28 7.54 62.68 1.61 63.61 0 49.97 0 49.05 1.61 47.37 4.53"/><polygon class="cls-1" points="127.28 4.54 128.93 7.39 130.71 10.44 134.2 10.43 137.54 10.42 139.18 7.54 142.59 1.61 143.51 0 129.87 0 128.95 1.61 127.28 4.54"/><polygon class="cls-1" points="304.03 10.41 316.04 10.41 323.77 18.04 331.5 10.41 343.51 10.41 340.11 4.47 337.54 0 309.99 0 307.43 4.47 304.03 10.41"/><polygon class="cls-1" points="380.64 27.99 393.59 27.99 393.59 28 399.19 22.46 398.8 22.08 399.19 21.7 393.59 16.17 380.64 16.17 378.97 19.07 377.23 22.08 378.97 25.09 380.64 27.99"/><polygon class="cls-1" points="367.04 4.54 368.7 7.39 370.47 10.44 373.96 10.43 377.3 10.42 378.94 7.54 382.35 1.61 383.27 0 369.64 0 368.71 1.61 367.04 4.54"/><polygon class="cls-1" points="64.27 33.76 67.66 39.69 70.24 44.17 67.49 54.53 78.12 57.47 80.68 61.96 84.06 67.84 87.42 61.96 89.99 57.47 100.52 54.55 97.78 44.17 100.34 39.69 103.74 33.76 91.73 33.76 84.01 26.13 76.28 33.76 64.27 33.76"/><polygon class="cls-1" points="348.51 7.55 350.15 10.43 353.49 10.43 356.98 10.44 358.75 7.4 360.41 4.54 358.74 1.62 357.81 0 344.18 0 345.1 1.61 348.51 7.55"/><polygon class="cls-1" points="398.3 70.7 394.93 64.82 393.53 62.39 385.67 60.21 385.66 60.23 385.42 60.16 383.27 68.27 384.68 70.7 388.07 76.64 389.72 79.51 393.06 79.52 396.55 79.53 398.31 76.48 399.98 73.62 398.3 70.7"/><polygon class="cls-1" points="1595.59 22.46 1595.97 22.08 1595.59 21.7 1595.2 22.08 1595.59 22.46"/><polygon class="cls-1" points="1196.79 22.46 1197.17 22.08 1196.79 21.7 1196.4 22.08 1196.79 22.46"/><polygon class="cls-1" points="797.99 22.46 798.37 22.08 797.99 21.7 797.6 22.08 797.99 22.46"/><polygon class="cls-1" points="399.19 22.46 399.57 22.08 399.19 21.7 398.8 22.08 399.19 22.46"/></g></g></svg>